SourceSerif-Italic_d2.ufo
<glyph name="exclam" format="2">
	<unicode hex="0021"/>
	<advance width="264"/>
	<outline>
		<contour>
			<point x="120" y="224" type="line"/>
			<point x="157" y="224" type="line"/>
			<point x="230" y="387"/>
			<point x="292" y="531"/>
			<point x="292" y="595" type="curve" smooth="yes"/>
			<point x="292" y="639"/>
			<point x="264" y="664"/>
			<point x="217" y="664" type="curve"/>
			<point x="160" y="664"/>
			<point x="129" y="633"/>
			<point x="117" y="568" type="curve" smooth="yes"/>
			<point x="110" y="530"/>
			<point x="107" y="435"/>
			<point x="115" y="308" type="curve" smooth="yes"/>
		</contour>
		<contour>
			<point x="36" y="62" type="curve" smooth="yes"/>
			<point x="36" y="23"/>
			<point x="67" y="-12"/>
			<point x="113" y="-12" type="curve" smooth="yes"/>
			<point x="161" y="-12"/>
			<point x="204" y="26"/>
			<point x="204" y="77" type="curve" smooth="yes"/>
			<point x="204" y="117"/>
			<point x="172" y="152"/>
			<point x="127" y="152" type="curve" smooth="yes"/>
			<point x="79" y="152"/>
			<point x="36" y="112"/>
		</contour>
	</outline>
</glyph>
<glyph name="numbersign" format="2">
	<unicode hex="0023"/>
	<advance width="583"/>
	<outline>
		<contour>
			<point x="102" y="0" type="line"/>
			<point x="166" y="0" type="line"/>
			<point x="335" y="640" type="line"/>
			<point x="271" y="640" type="line"/>
		</contour>
		<contour>
			<point x="44" y="260" type="line"/>
			<point x="32" y="164" type="line"/>
			<point x="548" y="164" type="line"/>
			<point x="560" y="260" type="line"/>
		</contour>
		<contour>
			<point x="609" y="380" type="line"/>
			<point x="621" y="476" type="line"/>
			<point x="101" y="476" type="line"/>
			<point x="89" y="380" type="line"/>
		</contour>
		<contour>
			<point x="326" y="0" type="line"/>
			<point x="386" y="0" type="line"/>
			<point x="555" y="640" type="line"/>
			<point x="495" y="640" type="line"/>
		</contour>
	</outline>
</glyph>
<glyph name="dollar" format="2">
	<unicode hex="0024"/>
	<advance width="524"/>
	<outline>
		<contour>
			<point x="206" y="-16" type="curve" smooth="yes"/>
			<point x="367" y="-16"/>
			<point x="474" y="50"/>
			<point x="474" y="190" type="curve" smooth="yes"/>
			<point x="474" y="291"/>
			<point x="401" y="333"/>
			<point x="335" y="373" type="curve" smooth="yes"/>
			<point x="315" y="385" type="line" smooth="yes"/>
			<point x="269" y="412"/>
			<point x="228" y="441"/>
			<point x="228" y="490" type="curve" smooth="yes"/>
			<point x="228" y="575"/>
			<point x="282" y="612"/>
			<point x="342" y="612" type="curve" smooth="yes"/>
			<point x="387" y="612"/>
			<point x="422" y="604"/>
			<point x="441" y="588" type="curve"/>
			<point x="406" y="624" type="line"/>
			<point x="406" y="532" type="line" smooth="yes"/>
			<point x="406" y="471"/>
			<point x="431" y="456"/>
			<point x="466" y="456" type="curve" smooth="yes"/>
			<point x="496" y="456"/>
			<point x="517" y="472"/>
			<point x="526" y="500" type="curve"/>
			<point x="525" y="593"/>
			<point x="456" y="640"/>
			<point x="349" y="640" type="curve"/>
			<point x="188" y="640"/>
			<point x="95" y="565"/>
			<point x="95" y="439" type="curve" smooth="yes"/>
			<point x="95" y="344"/>
			<point x="165" y="299"/>
			<point x="230" y="260" type="curve" smooth="yes"/>
			<point x="250" y="248" type="line" smooth="yes"/>
			<point x="293" y="222"/>
			<point x="333" y="192"/>
			<point x="333" y="143" type="curve" smooth="yes"/>
			<point x="333" y="61"/>
			<point x="276" y="12"/>
			<point x="209" y="12" type="curve" smooth="yes"/>
			<point x="172" y="12"/>
			<point x="134" y="16"/>
			<point x="114" y="28" type="curve"/>
			<point x="141" y="0" type="line"/>
			<point x="141" y="100" type="line" smooth="yes"/>
			<point x="141" y="161"/>
			<point x="114" y="180"/>
			<point x="79" y="180" type="curve" smooth="yes"/>
			<point x="53" y="180"/>
			<point x="27" y="164"/>
			<point x="18" y="136" type="curve"/>
			<point x="19" y="36"/>
			<point x="97" y="-16"/>
		</contour>
		<contour>
			<point x="171" y="-116" type="line"/>
			<point x="201" y="-116" type="line"/>
			<point x="288" y="312" type="line"/>
			<point x="258" y="312" type="line"/>
		</contour>
		<contour>
			<point x="272" y="312" type="line"/>
			<point x="302" y="312" type="line"/>
			<point x="388" y="732" type="line"/>
			<point x="358" y="732" type="line"/>
		</contour>
	</outline>
</glyph>
<glyph name="ampersand" format="2">
	<unicode hex="0026"/>
	<advance width="676"/>
	<outline>
		<contour>
			<point x="302" y="-16" type="curve" smooth="yes"/>
			<point x="473" y="-16"/>
			<point x="566" y="82"/>
			<point x="566" y="192" type="curve" smooth="yes"/>
			<point x="566" y="254"/>
			<point x="529" y="301"/>
			<point x="469" y="313" type="curve"/>
			<point x="462" y="292" type="line"/>
			<point x="580" y="313"/>
			<point x="672" y="369"/>
			<point x="722" y="480" type="curve"/>
			<point x="614" y="532" type="line"/>
			<point x="582" y="425"/>
			<point x="516" y="343"/>
			<point x="421" y="322" type="curve"/>
			<point x="417" y="298" type="line"/>
			<point x="469" y="289"/>
			<point x="490" y="243"/>
			<point x="490" y="212" type="curve" smooth="yes"/>
			<point x="490" y="155"/>
			<point x="446" y="96"/>
			<point x="338" y="96" type="curve" smooth="yes"/>
			<point x="234" y="96"/>
			<point x="174" y="150"/>
			<point x="174" y="244" type="curve" smooth="yes"/>
			<point x="174" y="288"/>
			<point x="192" y="336"/>
			<point x="233" y="376" type="curve"/>
			<point x="217" y="384" type="line"/>
			<point x="253.1779033148" y="353.1423765844"/>
			<point x="296" y="334"/>
			<point x="350" y="334" type="curve" smooth="yes"/>
			<point x="390" y="334"/>
			<point x="411" y="357"/>
			<point x="411" y="384" type="curve" smooth="yes"/>
			<point x="411" y="414"/>
			<point x="382.7358490566" y="441"/>
			<point x="304" y="441" type="curve" smooth="yes"/>
			<point x="278" y="441"/>
			<point x="253.7975537188" y="442.2995922865"/>
			<point x="228" y="438" type="curve"/>
			<point x="291" y="429" type="line"/>
			<point x="273" y="462"/>
			<point x="268" y="486"/>
			<point x="268" y="520" type="curve" smooth="yes"/>
			<point x="268" y="589"/>
			<point x="312" y="644"/>
			<point x="394" y="644" type="curve" smooth="yes"/>
			<point x="409" y="644"/>
			<point x="420" y="642"/>
			<point x="438" y="640" type="curve"/>
			<point x="378" y="656" type="line"/>
			<point x="412" y="580" type="line" smooth="yes"/>
			<point x="434" y="531"/>
			<point x="458" y="516"/>
			<point x="485" y="516" type="curve" smooth="yes"/>
			<point x="516" y="516"/>
			<point x="536" y="536"/>
			<point x="538" y="568" type="curve"/>
			<point x="527" y="618"/>
			<point x="478" y="668"/>
			<point x="374" y="668" type="curve" smooth="yes"/>
			<point x="243" y="668"/>
			<point x="162" y="586"/>
			<point x="162" y="498" type="curve" smooth="yes"/>
			<point x="162" y="464"/>
			<point x="170" y="438"/>
			<point x="193" y="409" type="curve"/>
			<point x="191" y="420" type="line"/>
			<point x="82" y="377"/>
			<point x="34" y="288"/>
			<point x="34" y="200" type="curve" smooth="yes"/>
			<point x="34" y="91"/>
			<point x="111" y="-16"/>
		</contour>
	</outline>
</glyph>
<glyph name="quotesingle" format="2">
	<unicode hex="0027"/>
	<advance width="224"/>
	<outline>
		<contour>
			<point x="224" y="724" type="curve"/>
			<point x="178" y="724"/>
			<point x="151" y="700"/>
			<point x="142" y="650" type="curve" smooth="yes"/>
			<point x="134" y="610"/>
			<point x="141" y="526"/>
			<point x="142" y="500" type="curve" smooth="yes"/>
			<point x="150" y="380" type="line"/>
			<point x="178" y="380" type="line"/>
			<point x="253" y="555"/>
			<point x="288" y="620"/>
			<point x="288" y="669" type="curve" smooth="yes"/>
			<point x="288" y="705"/>
			<point x="263" y="724"/>
		</contour>
	</outline>
</glyph>
<glyph name="parenleft" format="2">
	<unicode hex="0028"/>
	<advance width="380"/>
	<outline>
		<contour>
			<point x="264" y="-160" type="curve"/>
			<point x="283" y="-144" type="line"/>
			<point x="232" y="-62"/>
			<point x="208" y="55"/>
			<point x="208" y="159" type="curve" smooth="yes"/>
			<point x="208" y="359"/>
			<point x="289" y="544"/>
			<point x="438" y="696" type="curve"/>
			<point x="425" y="712" type="line"/>
			<point x="235" y="589"/>
			<point x="85" y="409"/>
			<point x="85" y="193" type="curve" smooth="yes"/>
			<point x="85" y="50"/>
			<point x="158" y="-69"/>
		</contour>
	</outline>
</glyph>
<glyph name="asterisk" format="2">
	<unicode hex="002A"/>
	<advance width="428"/>
	<outline>
		<contour>
			<point x="215" y="730"/>
			<point x="187" y="710"/>
			<point x="187" y="677" type="curve" smooth="yes"/>
			<point x="187" y="648"/>
			<point x="207" y="619"/>
			<point x="273" y="523" type="curve"/>
			<point x="279" y="524" type="line"/>
			<point x="294" y="619"/>
			<point x="301" y="645"/>
			<point x="301" y="666" type="curve" smooth="yes"/>
			<point x="301" y="702"/>
			<point x="282" y="730"/>
			<point x="248" y="730" type="curve" smooth="yes"/>
		</contour>
		<contour>
			<point x="102" y="600"/>
			<point x="71" y="585"/>
			<point x="71" y="544" type="curve" smooth="yes"/>
			<point x="71" y="476"/>
			<point x="128" y="479"/>
			<point x="283" y="527" type="curve"/>
			<point x="283" y="529" type="line"/>
			<point x="181" y="585"/>
			<point x="153" y="600"/>
			<point x="125" y="600" type="curve" smooth="yes"/>
		</contour>
		<contour>
			<point x="180" y="448"/>
			<point x="157" y="417"/>
			<point x="157" y="387" type="curve" smooth="yes"/>
			<point x="157" y="362"/>
			<point x="182" y="336"/>
			<point x="218" y="336" type="curve" smooth="yes"/>
			<point x="267" y="336"/>
			<point x="278" y="385"/>
			<point x="278" y="534" type="curve"/>
			<point x="276" y="535" type="line"/>
		</contour>
		<contour>
			<point x="270" y="532" type="line"/>
			<point x="324" y="407"/>
			<point x="352" y="371"/>
			<point x="384" y="371" type="curve" smooth="yes"/>
			<point x="416" y="371"/>
			<point x="443" y="405"/>
			<point x="443" y="432" type="curve" smooth="yes"/>
			<point x="443" y="471"/>
			<point x="403" y="491"/>
			<point x="271" y="533" type="curve"/>
		</contour>
		<contour>
			<point x="461" y="642"/>
			<point x="427" y="660"/>
			<point x="405" y="660" type="curve" smooth="yes"/>
			<point x="371" y="659"/>
			<point x="345" y="630"/>
			<point x="269" y="527" type="curve"/>
			<point x="270" y="525" type="line"/>
			<point x="382" y="536"/>
			<point x="461" y="546"/>
			<point x="461" y="597" type="curve" smooth="yes"/>
		</contour>
	</outline>
</glyph>
<glyph name="plus" format="2">
	<unicode hex="002B"/>
	<advance width="512"/>
	<outline>
		<contour>
			<point x="267" y="76" type="line"/>
			<point x="317" y="76" type="line"/>
			<point x="317" y="556" type="line"/>
			<point x="267" y="556" type="line"/>
		</contour>
		<contour>
			<point x="512" y="296" type="line"/>
			<point x="512" y="344" type="line"/>
			<point x="72" y="344" type="line"/>
			<point x="72" y="296" type="line"/>
		</contour>
	</outline>
</glyph>
<glyph name="comma" format="2">
	<unicode hex="002C"/>
	<advance width="266"/>
	<outline>
		<contour>
			<point x="-12" y="-152" type="line"/>
			<point x="112" y="-114"/>
			<point x="179" y="-25"/>
			<point x="179" y="83" type="curve" smooth="yes"/>
			<point x="179" y="97"/>
			<point x="176" y="108"/>
			<point x="172" y="121" type="curve"/>
			<point x="152" y="141"/>
			<point x="131" y="151"/>
			<point x="103" y="151" type="curve" smooth="yes"/>
			<point x="53" y="151"/>
			<point x="19" y="109"/>
			<point x="19" y="68" type="curve" smooth="yes"/>
			<point x="19" y="43"/>
			<point x="32" y="11"/>
			<point x="65" y="-6" type="curve" smooth="yes"/>
			<point x="110" y="-29" type="line"/>
			<point x="111" y="-6" type="line"/>
			<point x="85" y="-63"/>
			<point x="46" y="-98"/>
			<point x="-18" y="-129" type="curve"/>
		</contour>
	</outline>
</glyph>
<glyph name="hyphen" format="2">
	<unicode hex="002D"/>
	<unicode hex="00AD"/>
	<unicode hex="2010"/>
	<advance width="320"/>
	<outline>
		<contour>
			<point x="56" y="228" type="line"/>
			<point x="304" y="228" type="line"/>
			<point x="304" y="280" type="line"/>
			<point x="56" y="280" type="line"/>
		</contour>
	</outline>
</glyph>
<glyph name="period" format="2">
	<unicode hex="002E"/>
	<advance width="266"/>
	<outline>
		<contour>
			<point x="95" y="-12" type="curve" smooth="yes"/>
			<point x="143" y="-12"/>
			<point x="186" y="26"/>
			<point x="186" y="77" type="curve" smooth="yes"/>
			<point x="186" y="117"/>
			<point x="154" y="152"/>
			<point x="109" y="152" type="curve" smooth="yes"/>
			<point x="61" y="152"/>
			<point x="18" y="112"/>
			<point x="18" y="62" type="curve" smooth="yes"/>
			<point x="18" y="23"/>
			<point x="49" y="-12"/>
		</contour>
	</outline>
</glyph>
<glyph name="slash" format="2">
	<unicode hex="002F"/>
	<advance width="356"/>
	<outline>
		<contour>
			<point x="-47" y="-160" type="line"/>
			<point x="24" y="-160" type="line"/>
			<point x="453" y="708" type="line"/>
			<point x="381" y="708" type="line"/>
		</contour>
	</outline>
</glyph>
<glyph name="one" format="2">
	<unicode hex="0031"/>
	<advance width="524"/>
	<outline>
		<contour>
			<point x="162" y="0" type="line"/>
			<point x="320" y="0" type="line"/>
			<point x="325" y="53"/>
			<point x="342" y="140"/>
			<point x="356" y="208" type="curve" smooth="yes"/>
			<point x="399" y="420" type="line"/>
			<point x="444" y="624" type="line"/>
			<point x="430" y="636" type="line"/>
			<point x="184" y="560" type="line"/>
			<point x="179" y="536" type="line"/>
			<point x="302" y="547" type="line"/>
			<point x="278" y="573" type="line"/>
		</contour>
		<contour>
			<point x="50" y="0" type="line"/>
			<point x="426" y="0" type="line"/>
			<point x="431" y="24" type="line"/>
			<point x="292" y="48" type="line"/>
			<point x="204" y="48" type="line"/>
			<point x="55" y="24" type="line"/>
		</contour>
	</outline>
</glyph>
<glyph name="less" format="2">
	<unicode hex="003C"/>
	<advance width="512"/>
	<outline>
		<contour>
			<point x="78" y="308" type="line"/>
			<point x="486" y="76" type="line"/>
			<point x="506" y="120" type="line"/>
			<point x="118" y="336" type="line"/>
			<point x="118" y="308" type="line"/>
			<point x="506" y="520" type="line"/>
			<point x="486" y="564" type="line"/>
			<point x="78" y="336" type="line"/>
		</contour>
	</outline>
</glyph>
<glyph name="question" format="2">
	<unicode hex="003F"/>
	<advance width="448"/>
	<outline>
		<contour>
			<point x="133" y="202" type="curve"/>
			<point x="167" y="196" type="line"/>
			<point x="171" y="226"/>
			<point x="177" y="247"/>
			<point x="193" y="263" type="curve" smooth="yes"/>
			<point x="220" y="289"/>
			<point x="261" y="315"/>
			<point x="364" y="362" type="curve" smooth="yes"/>
			<point x="445" y="399"/>
			<point x="492" y="452"/>
			<point x="492" y="532" type="curve" smooth="yes"/>
			<point x="492" y="621"/>
			<point x="413" y="672"/>
			<point x="308" y="672" type="curve" smooth="yes"/>
			<point x="204" y="672"/>
			<point x="115" y="620"/>
			<point x="105" y="532" type="curve"/>
			<point x="115" y="500"/>
			<point x="139" y="488"/>
			<point x="161" y="488" type="curve" smooth="yes"/>
			<point x="196" y="488"/>
			<point x="222" y="502"/>
			<point x="228" y="556" type="curve" smooth="yes"/>
			<point x="240" y="656" type="line"/>
			<point x="192" y="616" type="line"/>
			<point x="219" y="630"/>
			<point x="250" y="640"/>
			<point x="278" y="640" type="curve" smooth="yes"/>
			<point x="321" y="640"/>
			<point x="363" y="618"/>
			<point x="363" y="563" type="curve" smooth="yes"/>
			<point x="363" y="516"/>
			<point x="331" y="493"/>
			<point x="276" y="466" type="curve" smooth="yes"/>
			<point x="209" y="433"/>
			<point x="176" y="411"/>
			<point x="152" y="373" type="curve" smooth="yes"/>
			<point x="123" y="326"/>
			<point x="124" y="283"/>
		</contour>
		<contour>
			<point x="130" y="-13" type="curve" smooth="yes"/>
			<point x="176" y="-13"/>
			<point x="219" y="24"/>
			<point x="219" y="73" type="curve" smooth="yes"/>
			<point x="219" y="111"/>
			<point x="191" y="145"/>
			<point x="148" y="145" type="curve" smooth="yes"/>
			<point x="102" y="145"/>
			<point x="59" y="106"/>
			<point x="59" y="58" type="curve" smooth="yes"/>
			<point x="59" y="21"/>
			<point x="86" y="-13"/>
		</contour>
	</outline>
</glyph>
<glyph name="at" format="2">
	<unicode hex="0040"/>
	<advance width="856"/>
	<outline>
		<contour>
			<point x="331" y="36" type="curve" smooth="yes"/>
			<point x="397" y="36"/>
			<point x="451" y="91"/>
			<point x="498" y="163" type="curve"/>
			<point x="505" y="163" type="line"/>
			<point x="494" y="190" type="line"/>
			<point x="451" y="133"/>
			<point x="426" y="117"/>
			<point x="404" y="117" type="curve" smooth="yes"/>
			<point x="377" y="117"/>
			<point x="367" y="140"/>
			<point x="367" y="183" type="curve" smooth="yes"/>
			<point x="367" y="294"/>
			<point x="426" y="428"/>
			<point x="485" y="428" type="curve" smooth="yes"/>
			<point x="515" y="428"/>
			<point x="530" y="415"/>
			<point x="543" y="388" type="curve"/>
			<point x="628" y="421" type="line"/>
			<point x="593" y="469"/>
			<point x="569" y="487"/>
			<point x="508" y="487" type="curve" smooth="yes"/>
			<point x="394" y="487"/>
			<point x="228" y="325"/>
			<point x="228" y="157" type="curve" smooth="yes"/>
			<point x="228" y="67"/>
			<point x="281" y="36"/>
		</contour>
		<contour>
			<point x="604" y="36" type="curve" smooth="yes"/>
			<point x="729" y="36"/>
			<point x="852" y="155"/>
			<point x="852" y="340" type="curve" smooth="yes"/>
			<point x="852" y="508"/>
			<point x="736" y="652"/>
			<point x="508" y="652" type="curve" smooth="yes"/>
			<point x="213" y="652"/>
			<point x="52" y="406"/>
			<point x="52" y="196" type="curve" smooth="yes"/>
			<point x="52" y="-7"/>
			<point x="167" y="-152"/>
			<point x="396" y="-152" type="curve" smooth="yes"/>
			<point x="463" y="-152"/>
			<point x="532" y="-137"/>
			<point x="591" y="-106" type="curve"/>
			<point x="584" y="-88" type="line"/>
			<point x="519" y="-113"/>
			<point x="467" y="-124"/>
			<point x="396" y="-124" type="curve" smooth="yes"/>
			<point x="227" y="-124"/>
			<point x="112" y="-12"/>
			<point x="112" y="196" type="curve" smooth="yes"/>
			<point x="112" y="404"/>
			<point x="238" y="624"/>
			<point x="500" y="624" type="curve" smooth="yes"/>
			<point x="692" y="624"/>
			<point x="792" y="515"/>
			<point x="792" y="340" type="curve" smooth="yes"/>
			<point x="792" y="176"/>
			<point x="701" y="80"/>
			<point x="652" y="80" type="curve" smooth="yes"/>
			<point x="616" y="80"/>
			<point x="592" y="101"/>
			<point x="614" y="204" type="curve" smooth="yes"/>
			<point x="672" y="476" type="line"/>
			<point x="660" y="488" type="line"/>
			<point x="528" y="420" type="line"/>
			<point x="475" y="177" type="line" smooth="yes"/>
			<point x="456" y="88"/>
			<point x="531" y="36"/>
		</contour>
	</outline>
</glyph>
<glyph name="A" format="2">
	<unicode hex="0041"/>
	<advance width="600"/>
	<outline>
		<contour>
			<point x="24" y="0" type="line"/>
			<point x="58" y="0" type="line"/>
			<point x="302" y="504" type="line"/>
			<point x="292" y="504" type="line"/>
			<point x="347" y="0" type="line"/>
			<point x="511" y="0" type="line"/>
			<point x="428" y="652" type="line"/>
			<point x="348" y="652" type="line"/>
		</contour>
		<contour>
			<point x="138" y="208" type="line"/>
			<point x="434" y="208" type="line"/>
			<point x="415" y="238" type="line"/>
			<point x="159" y="238" type="line"/>
		</contour>
		<contour>
			<point x="482" y="40" type="line"/>
			<point x="390" y="40" type="line"/>
			<point x="276" y="24" type="line"/>
			<point x="271" y="0" type="line"/>
			<point x="559" y="0" type="line"/>
			<point x="564" y="24" type="line"/>
		</contour>
		<contour>
			<point x="-19" y="24" type="line"/>
			<point x="-24" y="0" type="line"/>
			<point x="136" y="0" type="line"/>
			<point x="141" y="24" type="line"/>
			<point x="66" y="34" type="line"/>
			<point x="49" y="34" type="line"/>
		</contour>
	</outline>
	<anchor name="aboveUC" x="428" y="682"/>
	<anchor name="belowLC" x="259" y="-22"/>
	<anchor name="ogonek" x="533" y="0"/>
</glyph>
<glyph name="B" format="2">
	<unicode hex="0042"/>
	<advance width="564"/>
	<outline>
		<contour>
			<point x="128" y="0" type="line"/>
			<point x="236" y="0" type="line" smooth="yes"/>
			<point x="498" y="0"/>
			<point x="540" y="123"/>
			<point x="540" y="204" type="curve" smooth="yes"/>
			<point x="540" y="288"/>
			<point x="460" y="344"/>
			<point x="315" y="345" type="curve"/>
			<point x="313" y="336" type="line"/>
			<point x="488" y="350"/>
			<point x="560" y="428"/>
			<point x="560" y="521" type="curve" smooth="yes"/>
			<point x="560" y="590"/>
			<point x="510" y="652"/>
			<point x="352" y="652" type="curve" smooth="yes"/>
			<point x="243" y="652" type="line"/>
			<point x="236" y="624" type="line"/>
			<point x="339" y="624" type="line" smooth="yes"/>
			<point x="392" y="624"/>
			<point x="415" y="582"/>
			<point x="415" y="526" type="curve" smooth="yes"/>
			<point x="415" y="415"/>
			<point x="359" y="353"/>
			<point x="289" y="353" type="curve" smooth="yes"/>
			<point x="191" y="353" type="line"/>
			<point x="185" y="323" type="line"/>
			<point x="282" y="323" type="line" smooth="yes"/>
			<point x="347" y="323"/>
			<point x="384" y="280"/>
			<point x="384" y="215" type="curve" smooth="yes"/>
			<point x="384" y="88"/>
			<point x="317" y="28"/>
			<point x="234" y="28" type="curve" smooth="yes"/>
			<point x="135" y="28" type="line"/>
		</contour>
		<contour>
			<point x="279" y="652" type="line"/>
			<point x="112" y="652" type="line"/>
			<point x="107" y="628" type="line"/>
			<point x="203" y="612" type="line"/>
			<point x="279" y="612" type="line"/>
		</contour>
		<contour>
			<point x="176" y="40" type="line"/>
			<point x="100" y="40" type="line"/>
			<point x="-3" y="24" type="line"/>
			<point x="-8" y="0" type="line"/>
			<point x="175" y="0" type="line"/>
		</contour>
		<contour>
			<point x="213" y="0" type="line"/>
			<point x="228" y="102"/>
			<point x="244" y="208"/>
			<point x="264" y="312" type="curve" smooth="yes"/>
			<point x="330" y="652" type="line"/>
			<point x="165" y="652" type="line"/>
			<point x="150" y="550"/>
			<point x="134" y="444"/>
			<point x="114" y="340" type="curve" smooth="yes"/>
			<point x="48" y="0" type="line"/>
		</contour>
	</outline>
</glyph>
<glyph name="C" format="2">
	<unicode hex="0043"/>
	<advance width="558"/>
	<outline>
		<contour>
			<point x="38" y="232" type="curve" smooth="yes"/>
			<point x="38" y="55"/>
			<point x="159" y="-16"/>
			<point x="296" y="-16" type="curve" smooth="yes"/>
			<point x="354" y="-16"/>
			<point x="411" y="-2"/>
			<point x="456" y="20" type="curve"/>
			<point x="499" y="196" type="line"/>
			<point x="475" y="196" type="line"/>
			<point x="353" y="8" type="line"/>
			<point x="421" y="32" type="line"/>
			<point x="429" y="52" type="line"/>
			<point x="388" y="25"/>
			<point x="348" y="12"/>
			<point x="305" y="12" type="curve" smooth="yes"/>
			<point x="243" y="12"/>
			<point x="196" y="61"/>
			<point x="196" y="185" type="curve" smooth="yes"/>
			<point x="196" y="398"/>
			<point x="297" y="640"/>
			<point x="428" y="640" type="curve" smooth="yes"/>
			<point x="464" y="640"/>
			<point x="499" y="629"/>
			<point x="530" y="600" type="curve"/>
			<point x="530" y="620" type="line"/>
			<point x="473" y="644" type="line"/>
			<point x="526" y="468" type="line"/>
			<point x="550" y="468" type="line"/>
			<point x="569" y="630" type="line"/>
			<point x="529" y="655"/>
			<point x="476" y="668"/>
			<point x="415" y="668" type="curve" smooth="yes"/>
			<point x="175" y="668"/>
			<point x="38" y="440"/>
		</contour>
	</outline>
</glyph>
<glyph name="D" format="2">
	<unicode hex="0044"/>
	<advance width="616"/>
	<outline>
		<contour>
			<point x="138" y="0" type="line"/>
			<point x="222" y="0" type="line" smooth="yes"/>
			<point x="458" y="0"/>
			<point x="616" y="158"/>
			<point x="616" y="392" type="curve" smooth="yes"/>
			<point x="616" y="561"/>
			<point x="516" y="652"/>
			<point x="336" y="652" type="curve" smooth="yes"/>
			<point x="253" y="652" type="line"/>
			<point x="246" y="624" type="line"/>
			<point x="330" y="624" type="line" smooth="yes"/>
			<point x="409" y="624"/>
			<point x="456" y="547"/>
			<point x="456" y="404" type="curve" smooth="yes"/>
			<point x="456" y="179"/>
			<point x="337" y="28"/>
			<point x="230" y="28" type="curve" smooth="yes"/>
			<point x="145" y="28" type="line"/>
		</contour>
		<contour>
			<point x="279" y="652" type="line"/>
			<point x="112" y="652" type="line"/>
			<point x="107" y="628" type="line"/>
			<point x="203" y="612" type="line"/>
			<point x="279" y="612" type="line"/>
		</contour>
		<contour>
			<point x="176" y="40" type="line"/>
			<point x="100" y="40" type="line"/>
			<point x="-3" y="24" type="line"/>
			<point x="-8" y="0" type="line"/>
			<point x="175" y="0" type="line"/>
		</contour>
		<contour>
			<point x="213" y="0" type="line"/>
			<point x="228" y="102"/>
			<point x="244" y="208"/>
			<point x="264" y="312" type="curve" smooth="yes"/>
			<point x="330" y="652" type="line"/>
			<point x="165" y="652" type="line"/>
			<point x="150" y="550"/>
			<point x="134" y="444"/>
			<point x="114" y="340" type="curve" smooth="yes"/>
			<point x="48" y="0" type="line"/>
		</contour>
	</outline>
</glyph>
<glyph name="E" format="2">
	<unicode hex="0045"/>
	<advance width="524"/>
	<outline>
		<contour>
			<point x="127" y="0" type="line"/>
			<point x="443" y="0" type="line"/>
			<point x="490" y="188" type="line"/>
			<point x="466" y="188" type="line"/>
			<point x="351" y="12" type="line"/>
			<point x="388" y="28" type="line"/>
			<point x="132" y="28" type="line"/>
		</contour>
		<contour>
			<point x="186" y="317" type="line"/>
			<point x="370" y="317" type="line"/>
			<point x="376" y="349" type="line"/>
			<point x="192" y="349" type="line"/>
		</contour>
		<contour>
			<point x="437" y="444" type="line"/>
			<point x="415" y="444" type="line"/>
			<point x="358" y="340" type="line"/>
			<point x="355" y="324" type="line"/>
			<point x="374" y="220" type="line"/>
			<point x="396" y="220" type="line"/>
		</contour>
		<contour>
			<point x="219" y="624" type="line"/>
			<point x="483" y="624" type="line"/>
			<point x="451" y="640" type="line"/>
			<point x="503" y="476" type="line"/>
			<point x="527" y="476" type="line"/>
			<point x="548" y="652" type="line"/>
			<point x="224" y="652" type="line"/>
		</contour>
		<contour>
			<point x="279" y="652" type="line"/>
			<point x="112" y="652" type="line"/>
			<point x="107" y="628" type="line"/>
			<point x="203" y="612" type="line"/>
			<point x="279" y="612" type="line"/>
		</contour>
		<contour>
			<point x="176" y="40" type="line"/>
			<point x="100" y="40" type="line"/>
			<point x="-3" y="24" type="line"/>
			<point x="-8" y="0" type="line"/>
			<point x="175" y="0" type="line"/>
		</contour>
		<contour>
			<point x="213" y="0" type="line"/>
			<point x="228" y="102"/>
			<point x="244" y="208"/>
			<point x="264" y="312" type="curve" smooth="yes"/>
			<point x="330" y="652" type="line"/>
			<point x="165" y="652" type="line"/>
			<point x="150" y="550"/>
			<point x="134" y="444"/>
			<point x="114" y="340" type="curve" smooth="yes"/>
			<point x="48" y="0" type="line"/>
		</contour>
	</outline>
	<anchor name="aboveUC" x="382" y="682"/>
	<anchor name="belowLC" x="273" y="-22"/>
	<anchor name="ogonek" x="425" y="0"/>
</glyph>
<glyph name="F" format="2">
	<unicode hex="0046"/>
	<advance width="496"/>
	<outline>
		<contour>
			<point x="8" y="0" type="line"/>
			<point x="295" y="0" type="line"/>
			<point x="300" y="24" type="line"/>
			<point x="190" y="40" type="line"/>
			<point x="114" y="40" type="line"/>
			<point x="13" y="24" type="line"/>
		</contour>
		<contour>
			<point x="64" y="0" type="line"/>
			<point x="229" y="0" type="line"/>
			<point x="245" y="103"/>
			<point x="260" y="208"/>
			<point x="280" y="312" type="curve" smooth="yes"/>
			<point x="346" y="652" type="line"/>
			<point x="181" y="652" type="line"/>
			<point x="165" y="549"/>
			<point x="150" y="444"/>
			<point x="130" y="340" type="curve" smooth="yes"/>
		</contour>
		<contour>
			<point x="123" y="628" type="line"/>
			<point x="221" y="612" type="line"/>
			<point x="297" y="612" type="line"/>
			<point x="304" y="652" type="line"/>
			<point x="128" y="652" type="line"/>
		</contour>
		<contour>
			<point x="202" y="317" type="line"/>
			<point x="382" y="317" type="line"/>
			<point x="388" y="349" type="line"/>
			<point x="208" y="349" type="line"/>
		</contour>
		<contour>
			<point x="235" y="624" type="line"/>
			<point x="495" y="624" type="line"/>
			<point x="463" y="640" type="line"/>
			<point x="515" y="476" type="line"/>
			<point x="539" y="476" type="line"/>
			<point x="560" y="652" type="line"/>
			<point x="240" y="652" type="line"/>
		</contour>
		<contour>
			<point x="386" y="220" type="line"/>
			<point x="408" y="220" type="line"/>
			<point x="449" y="444" type="line"/>
			<point x="427" y="444" type="line"/>
			<point x="370" y="340" type="line"/>
			<point x="367" y="324" type="line"/>
		</contour>
	</outline>
	<anchor name="aboveUC" x="357" y="692"/>
	<anchor name="belowLC" x="152" y="-24"/>
</glyph>
<glyph name="G" format="2">
	<unicode hex="0047"/>
	<advance width="603"/>
	<outline>
		<contour>
			<point x="392" y="328" type="line"/>
			<point x="382" y="245"/>
			<point x="368" y="159"/>
			<point x="353" y="76" type="curve" smooth="yes"/>
			<point x="338" y="-4" type="line"/>
			<point x="428" y="24" type="line"/>
			<point x="434" y="60" type="line"/>
			<point x="393" y="28"/>
			<point x="351" y="12"/>
			<point x="301" y="12" type="curve" smooth="yes"/>
			<point x="242" y="12"/>
			<point x="193" y="62"/>
			<point x="193" y="190" type="curve" smooth="yes"/>
			<point x="193" y="410"/>
			<point x="297" y="640"/>
			<point x="430" y="640" type="curve" smooth="yes"/>
			<point x="468" y="640"/>
			<point x="506" y="627"/>
			<point x="538" y="596" type="curve"/>
			<point x="539" y="628" type="line"/>
			<point x="478" y="644" type="line"/>
			<point x="538" y="468" type="line"/>
			<point x="562" y="468" type="line"/>
			<point x="579" y="628" type="line"/>
			<point x="540" y="653"/>
			<point x="481" y="668"/>
			<point x="419" y="668" type="curve" smooth="yes"/>
			<point x="174" y="668"/>
			<point x="34" y="446"/>
			<point x="34" y="232" type="curve" smooth="yes"/>
			<point x="34" y="55"/>
			<point x="155" y="-16"/>
			<point x="288" y="-16" type="curve" smooth="yes"/>
			<point x="358" y="-16"/>
			<point x="429" y="-3"/>
			<point x="489" y="32" type="curve"/>
			<point x="497" y="76" type="line" smooth="yes"/>
			<point x="512" y="159"/>
			<point x="531" y="245"/>
			<point x="552" y="328" type="curve"/>
		</contour>
		<contour>
			<point x="579" y="304" type="line"/>
			<point x="584" y="328" type="line"/>
			<point x="348" y="328" type="line"/>
			<point x="343" y="304" type="line"/>
			<point x="440" y="288" type="line"/>
			<point x="476" y="288" type="line"/>
		</contour>
	</outline>
	<anchor name="aboveUC" x="439" y="682"/>
	<anchor name="belowLC" x="357" y="-22"/>
</glyph>
<glyph name="H" format="2">
	<unicode hex="0048"/>
	<advance width="660"/>
	<outline>
		<contour>
			<point x="186" y="318" type="line"/>
			<point x="506" y="318" type="line"/>
			<point x="513" y="348" type="line"/>
			<point x="193" y="348" type="line"/>
		</contour>
		<contour>
			<point x="383" y="628" type="line"/>
			<point x="388" y="652" type="line"/>
			<point x="112" y="652" type="line"/>
			<point x="107" y="628" type="line"/>
			<point x="203" y="612" type="line"/>
			<point x="279" y="612" type="line"/>
		</contour>
		<contour>
			<point x="176" y="40" type="line"/>
			<point x="100" y="40" type="line"/>
			<point x="-3" y="24" type="line"/>
			<point x="-8" y="0" type="line"/>
			<point x="267" y="0" type="line"/>
			<point x="272" y="24" type="line"/>
		</contour>
		<contour>
			<point x="213" y="0" type="line"/>
			<point x="228" y="102"/>
			<point x="244" y="208"/>
			<point x="264" y="312" type="curve" smooth="yes"/>
			<point x="330" y="652" type="line"/>
			<point x="165" y="652" type="line"/>
			<point x="150" y="550"/>
			<point x="134" y="444"/>
			<point x="114" y="340" type="curve" smooth="yes"/>
			<point x="48" y="0" type="line"/>
		</contour>
		<contour>
			<point x="715" y="628" type="line"/>
			<point x="720" y="652" type="line"/>
			<point x="444" y="652" type="line"/>
			<point x="439" y="628" type="line"/>
			<point x="535" y="612" type="line"/>
			<point x="611" y="612" type="line"/>
		</contour>
		<contour>
			<point x="508" y="40" type="line"/>
			<point x="432" y="40" type="line"/>
			<point x="329" y="24" type="line"/>
			<point x="324" y="0" type="line"/>
			<point x="599" y="0" type="line"/>
			<point x="604" y="24" type="line"/>
		</contour>
		<contour>
			<point x="545" y="0" type="line"/>
			<point x="560" y="102"/>
			<point x="576" y="208"/>
			<point x="596" y="312" type="curve" smooth="yes"/>
			<point x="662" y="652" type="line"/>
			<point x="497" y="652" type="line"/>
			<point x="482" y="550"/>
			<point x="466" y="444"/>
			<point x="446" y="340" type="curve" smooth="yes"/>
			<point x="380" y="0" type="line"/>
		</contour>
	</outline>
	<anchor name="aboveUC" x="455" y="682"/>
	<anchor name="belowLC" x="337" y="-22"/>
	<note>
		skew 10 scale 120
	</note>
</glyph>
<glyph name="I" format="2">
	<unicode hex="0049"/>
	<advance width="328"/>
	<outline>
		<contour>
			<point x="8" y="0" type="line"/>
			<point x="283" y="0" type="line"/>
			<point x="288" y="24" type="line"/>
			<point x="192" y="40" type="line"/>
			<point x="116" y="40" type="line"/>
			<point x="13" y="24" type="line"/>
		</contour>
		<contour>
			<point x="64" y="0" type="line"/>
			<point x="229" y="0" type="line"/>
			<point x="244" y="102"/>
			<point x="260" y="208"/>
			<point x="280" y="312" type="curve" smooth="yes"/>
			<point x="346" y="652" type="line"/>
			<point x="181" y="652" type="line"/>
			<point x="166" y="550"/>
			<point x="150" y="444"/>
			<point x="130" y="340" type="curve" smooth="yes"/>
		</contour>
		<contour>
			<point x="123" y="628" type="line"/>
			<point x="219" y="612" type="line"/>
			<point x="295" y="612" type="line"/>
			<point x="399" y="628" type="line"/>
			<point x="404" y="652" type="line"/>
			<point x="128" y="652" type="line"/>
		</contour>
	</outline>
	<anchor name="aboveUC" x="272" y="692"/>
	<anchor name="belowLC" x="152" y="-24"/>
	<anchor name="ogonek" x="210" y="0"/>
</glyph>
<glyph name="J" format="2">
	<unicode hex="004A"/>
	<advance width="303"/>
	<outline>
		<contour>
			<point x="373" y="628" type="line"/>
			<point x="378" y="652" type="line"/>
			<point x="85" y="652" type="line"/>
			<point x="80" y="628" type="line"/>
			<point x="193" y="612" type="line"/>
			<point x="269" y="612" type="line"/>
		</contour>
		<contour>
			<point x="-40" y="-152" type="curve"/>
			<point x="-41" y="-156" type="line"/>
			<point x="-11" y="-144" type="line"/>
			<point x="-30" y="-108" type="line" smooth="yes"/>
			<point x="-59" y="-53"/>
			<point x="-92" y="-45"/>
			<point x="-119" y="-45" type="curve" smooth="yes"/>
			<point x="-156" y="-45"/>
			<point x="-186" y="-69"/>
			<point x="-195" y="-102" type="curve"/>
			<point x="-194" y="-153"/>
			<point x="-130" y="-176"/>
			<point x="-80" y="-176" type="curve" smooth="yes"/>
			<point x="-5" y="-176"/>
			<point x="37" y="-149"/>
			<point x="84" y="-107" type="curve" smooth="yes"/>
			<point x="187" y="-14"/>
			<point x="226" y="153"/>
			<point x="248" y="272" type="curve" smooth="yes"/>
			<point x="263" y="355" type="line" smooth="yes"/>
			<point x="282" y="455"/>
			<point x="300" y="555"/>
			<point x="320" y="652" type="curve"/>
			<point x="156" y="652" type="line"/>
			<point x="108" y="373"/>
			<point x="73" y="163"/>
			<point x="51" y="49" type="curve" smooth="yes"/>
			<point x="25" y="-96"/>
			<point x="-1" y="-124"/>
		</contour>
	</outline>
	<anchor name="aboveUC" x="327" y="682"/>
	<anchor name="belowLC" x="94" y="-59"/>
</glyph>
<glyph name="K" format="2">
	<unicode hex="004B"/>
	<advance width="636"/>
	<outline>
		<contour>
			<point x="141" y="140" type="line"/>
			<point x="636" y="652" type="line"/>
			<point x="593" y="652" type="line"/>
			<point x="178" y="212" type="line"/>
		</contour>
		<contour>
			<point x="379" y="0" type="line"/>
			<point x="555" y="0" type="line"/>
			<point x="424" y="448" type="line"/>
			<point x="298" y="316" type="line"/>
		</contour>
		<contour>
			<point x="502" y="40" type="line"/>
			<point x="422" y="40" type="line"/>
			<point x="324" y="24" type="line"/>
			<point x="319" y="0" type="line"/>
			<point x="595" y="0" type="line"/>
			<point x="600" y="24" type="line"/>
		</contour>
		<contour>
			<point x="679" y="628" type="line"/>
			<point x="684" y="652" type="line"/>
			<point x="484" y="652" type="line"/>
			<point x="479" y="628" type="line"/>
			<point x="577" y="612" type="line"/>
			<point x="581" y="612" type="line"/>
		</contour>
		<contour>
			<point x="383" y="628" type="line"/>
			<point x="388" y="652" type="line"/>
			<point x="112" y="652" type="line"/>
			<point x="107" y="628" type="line"/>
			<point x="203" y="612" type="line"/>
			<point x="279" y="612" type="line"/>
		</contour>
		<contour>
			<point x="176" y="40" type="line"/>
			<point x="100" y="40" type="line"/>
			<point x="-3" y="24" type="line"/>
			<point x="-8" y="0" type="line"/>
			<point x="267" y="0" type="line"/>
			<point x="272" y="24" type="line"/>
		</contour>
		<contour>
			<point x="213" y="0" type="line"/>
			<point x="228" y="102"/>
			<point x="244" y="208"/>
			<point x="264" y="312" type="curve" smooth="yes"/>
			<point x="330" y="652" type="line"/>
			<point x="165" y="652" type="line"/>
			<point x="150" y="550"/>
			<point x="134" y="444"/>
			<point x="114" y="340" type="curve" smooth="yes"/>
			<point x="48" y="0" type="line"/>
		</contour>
	</outline>
	<anchor name="aboveUC" x="465" y="682"/>
	<anchor name="belowLC" x="335" y="-22"/>
</glyph>
<glyph name="L" format="2">
	<unicode hex="004C"/>
	<advance width="504"/>
	<outline>
		<contour>
			<point x="127" y="0" type="line"/>
			<point x="431" y="0" type="line"/>
			<point x="478" y="188" type="line"/>
			<point x="454" y="188" type="line"/>
			<point x="339" y="12" type="line"/>
			<point x="376" y="28" type="line"/>
			<point x="132" y="28" type="line"/>
		</contour>
		<contour>
			<point x="383" y="628" type="line"/>
			<point x="388" y="652" type="line"/>
			<point x="112" y="652" type="line"/>
			<point x="107" y="628" type="line"/>
			<point x="203" y="612" type="line"/>
			<point x="279" y="612" type="line"/>
		</contour>
		<contour>
			<point x="176" y="40" type="line"/>
			<point x="100" y="40" type="line"/>
			<point x="-3" y="24" type="line"/>
			<point x="-8" y="0" type="line"/>
			<point x="176" y="0" type="line"/>
		</contour>
		<contour>
			<point x="213" y="0" type="line"/>
			<point x="228" y="102"/>
			<point x="244" y="208"/>
			<point x="264" y="312" type="curve" smooth="yes"/>
			<point x="330" y="652" type="line"/>
			<point x="165" y="652" type="line"/>
			<point x="150" y="550"/>
			<point x="134" y="444"/>
			<point x="114" y="340" type="curve" smooth="yes"/>
			<point x="48" y="0" type="line"/>
		</contour>
	</outline>
	<anchor name="aboveUC" x="284" y="682"/>
	<anchor name="belowLC" x="254" y="-22"/>
</glyph>
<glyph name="M" format="2">
	<unicode hex="004D"/>
	<advance width="794"/>
	<outline>
		<contour>
			<point x="79" y="34" type="line"/>
			<point x="53" y="34" type="line"/>
			<point x="-19" y="24" type="line"/>
			<point x="-24" y="0" type="line"/>
			<point x="149" y="0" type="line"/>
			<point x="154" y="24" type="line"/>
		</contour>
		<contour>
			<point x="43" y="0" type="line"/>
			<point x="75" y="0" type="line"/>
			<point x="214" y="652" type="line"/>
			<point x="182" y="652" type="line"/>
		</contour>
		<contour>
			<point x="271" y="0" type="line"/>
			<point x="336" y="0" type="line"/>
			<point x="658" y="652" type="line"/>
			<point x="620" y="652" type="line"/>
			<point x="365" y="140" type="line"/>
			<point x="407" y="164" type="line"/>
			<point x="336" y="652" type="line"/>
			<point x="176" y="652" type="line"/>
		</contour>
		<contour>
			<point x="839" y="628" type="line"/>
			<point x="844" y="652" type="line"/>
			<point x="668" y="652" type="line"/>
			<point x="659" y="612" type="line"/>
			<point x="735" y="612" type="line"/>
		</contour>
		<contour>
			<point x="648" y="40" type="line"/>
			<point x="572" y="40" type="line"/>
			<point x="469" y="24" type="line"/>
			<point x="464" y="0" type="line"/>
			<point x="743" y="0" type="line"/>
			<point x="748" y="24" type="line"/>
		</contour>
		<contour>
			<point x="524" y="0" type="line"/>
			<point x="684" y="0" type="line"/>
			<point x="696" y="103"/>
			<point x="710" y="207"/>
			<point x="725" y="311" type="curve" smooth="yes"/>
			<point x="775" y="652" type="line"/>
			<point x="652" y="652" type="line"/>
			<point x="603" y="554" type="line"/>
		</contour>
		<contour>
			<point x="291" y="652" type="line"/>
			<point x="112" y="652" type="line"/>
			<point x="107" y="628" type="line"/>
			<point x="209" y="612" type="line"/>
			<point x="285" y="612" type="line"/>
		</contour>
	</outline>
	<anchor name="aboveUC" x="530" y="682"/>
	<anchor name="belowLC" x="354" y="-22"/>
</glyph>
<glyph name="N" format="2">
	<unicode hex="004E"/>
	<advance width="584"/>
	<outline>
		<contour>
			<point x="79" y="34" type="line"/>
			<point x="53" y="34" type="line"/>
			<point x="-19" y="24" type="line"/>
			<point x="-24" y="0" type="line"/>
			<point x="149" y="0" type="line"/>
			<point x="154" y="24" type="line"/>
		</contour>
		<contour>
			<point x="43" y="0" type="line"/>
			<point x="75" y="0" type="line"/>
			<point x="196" y="652" type="line"/>
			<point x="164" y="652" type="line"/>
		</contour>
		<contour>
			<point x="415" y="0" type="line"/>
			<point x="477" y="0" type="line"/>
			<point x="598" y="652" type="line"/>
			<point x="566" y="652" type="line"/>
			<point x="488" y="232" type="line"/>
			<point x="496" y="232" type="line"/>
			<point x="307" y="652" type="line"/>
			<point x="96" y="652" type="line"/>
			<point x="91" y="628" type="line"/>
			<point x="193" y="612" type="line"/>
			<point x="135" y="624" type="line"/>
		</contour>
		<contour>
			<point x="562" y="618" type="line"/>
			<point x="588" y="618" type="line"/>
			<point x="653" y="628" type="line"/>
			<point x="658" y="652" type="line"/>
			<point x="484" y="652" type="line"/>
			<point x="479" y="628" type="line"/>
		</contour>
	</outline>
</glyph>
<glyph name="O" format="2">
	<unicode hex="004F"/>
	<advance width="624"/>
	<outline>
		<contour>
			<point x="292" y="-16" type="curve"/>
			<point x="523" y="-16"/>
			<point x="640" y="227"/>
			<point x="640" y="420" type="curve" smooth="yes"/>
			<point x="640" y="591"/>
			<point x="536" y="668"/>
			<point x="408" y="668" type="curve"/>
			<point x="177" y="668"/>
			<point x="60" y="425"/>
			<point x="60" y="232" type="curve" smooth="yes"/>
			<point x="60" y="61"/>
			<point x="164" y="-16"/>
		</contour>
		<contour>
			<point x="292" y="12" type="curve"/>
			<point x="240" y="12"/>
			<point x="220" y="59"/>
			<point x="220" y="144" type="curve" smooth="yes"/>
			<point x="220" y="306"/>
			<point x="288" y="640"/>
			<point x="408" y="640" type="curve"/>
			<point x="460" y="640"/>
			<point x="480" y="593"/>
			<point x="480" y="508" type="curve" smooth="yes"/>
			<point x="480" y="346"/>
			<point x="412" y="12"/>
		</contour>
	</outline>
	<anchor name="aboveUC" x="409" y="692"/>
	<anchor name="belowLC" x="294" y="-24"/>
	<anchor name="ogonek" x="388" y="0"/>
	<anchor name="hornLC" x="543" y="689"/>
</glyph>
<glyph name="P" format="2">
	<unicode hex="0050"/>
	<advance width="540"/>
	<outline>
		<contour>
			<point x="162" y="272" type="line"/>
			<point x="275" y="272" type="line" smooth="yes"/>
			<point x="492" y="272"/>
			<point x="572" y="365"/>
			<point x="572" y="494" type="curve" smooth="yes"/>
			<point x="572" y="589"/>
			<point x="502" y="652"/>
			<point x="334" y="652" type="curve" smooth="yes"/>
			<point x="230" y="652" type="line"/>
			<point x="223" y="624" type="line"/>
			<point x="326" y="624" type="line" smooth="yes"/>
			<point x="382" y="624"/>
			<point x="416" y="569"/>
			<point x="416" y="499" type="curve" smooth="yes"/>
			<point x="416" y="377"/>
			<point x="348" y="300"/>
			<point x="275" y="300" type="curve" smooth="yes"/>
			<point x="169" y="300" type="line"/>
		</contour>
		<contour>
			<point x="279" y="652" type="line"/>
			<point x="112" y="652" type="line"/>
			<point x="107" y="628" type="line"/>
			<point x="203" y="612" type="line"/>
			<point x="279" y="612" type="line"/>
		</contour>
		<contour>
			<point x="176" y="40" type="line"/>
			<point x="100" y="40" type="line"/>
			<point x="-3" y="24" type="line"/>
			<point x="-8" y="0" type="line"/>
			<point x="279" y="0" type="line"/>
			<point x="284" y="24" type="line"/>
		</contour>
		<contour>
			<point x="213" y="0" type="line"/>
			<point x="228" y="102"/>
			<point x="244" y="208"/>
			<point x="264" y="312" type="curve" smooth="yes"/>
			<point x="330" y="652" type="line"/>
			<point x="165" y="652" type="line"/>
			<point x="150" y="550"/>
			<point x="134" y="444"/>
			<point x="114" y="340" type="curve" smooth="yes"/>
			<point x="48" y="0" type="line"/>
		</contour>
	</outline>
</glyph>
<glyph name="Q" format="2">
	<unicode hex="0051"/>
	<advance width="624"/>
	<outline>
		<contour>
			<point x="418" y="-222" type="curve" smooth="yes"/>
			<point x="506" y="-222"/>
			<point x="553" y="-190"/>
			<point x="587" y="-159" type="curve"/>
			<point x="577" y="-138" type="line"/>
			<point x="546" y="-151"/>
			<point x="519" y="-158"/>
			<point x="477" y="-158" type="curve" smooth="yes"/>
			<point x="389" y="-158"/>
			<point x="339" y="-94"/>
			<point x="341" y="12" type="curve"/>
			<point x="198" y="12" type="line"/>
			<point x="198" y="-134"/>
			<point x="282" y="-222"/>
		</contour>
		<component base="O"/>
	</outline>
	<anchor name="aboveUC" x="387" y="672"/>
</glyph>
<glyph name="R" format="2">
	<unicode hex="0052"/>
	<advance width="632"/>
	<outline>
		<contour>
			<point x="-10" y="0" type="line"/>
			<point x="273" y="0" type="line"/>
			<point x="278" y="24" type="line"/>
			<point x="174" y="40" type="line"/>
			<point x="98" y="40" type="line"/>
			<point x="-5" y="24" type="line"/>
		</contour>
		<contour>
			<point x="46" y="0" type="line"/>
			<point x="211" y="0" type="line"/>
			<point x="226" y="102"/>
			<point x="242" y="208"/>
			<point x="262" y="312" type="curve" smooth="yes"/>
			<point x="328" y="652" type="line"/>
			<point x="163" y="652" type="line"/>
			<point x="148" y="550"/>
			<point x="132" y="444"/>
			<point x="112" y="340" type="curve" smooth="yes"/>
		</contour>
		<contour>
			<point x="105" y="628" type="line"/>
			<point x="201" y="612" type="line"/>
			<point x="277" y="612" type="line"/>
			<point x="277" y="652" type="line"/>
			<point x="110" y="652" type="line"/>
		</contour>
		<contour>
			<point x="499" y="-12" type="curve" smooth="yes"/>
			<point x="536" y="-12"/>
			<point x="554" y="-8"/>
			<point x="593" y="0" type="curve"/>
			<point x="598" y="24" type="line"/>
			<point x="494" y="44" type="line"/>
			<point x="549" y="13" type="line"/>
			<point x="511" y="163" type="line" smooth="yes"/>
			<point x="484" y="271"/>
			<point x="426" y="312"/>
			<point x="285" y="324" type="curve"/>
			<point x="283" y="311" type="line"/>
			<point x="412" y="324"/>
			<point x="580" y="376"/>
			<point x="580" y="506" type="curve" smooth="yes"/>
			<point x="580" y="588"/>
			<point x="516" y="652"/>
			<point x="366" y="652" type="curve" smooth="yes"/>
			<point x="234" y="652" type="line"/>
			<point x="227" y="624" type="line"/>
			<point x="340" y="624" type="line" smooth="yes"/>
			<point x="397" y="624"/>
			<point x="427" y="577"/>
			<point x="427" y="511" type="curve" smooth="yes"/>
			<point x="427" y="407"/>
			<point x="383" y="336"/>
			<point x="294" y="336" type="curve" smooth="yes"/>
			<point x="180" y="336" type="line"/>
			<point x="174" y="306" type="line"/>
			<point x="266" y="306" type="line" smooth="yes"/>
			<point x="326" y="306"/>
			<point x="333" y="279"/>
			<point x="346" y="200" type="curve" smooth="yes"/>
			<point x="365" y="88" type="line" smooth="yes"/>
			<point x="378" y="14"/>
			<point x="418" y="-12"/>
		</contour>
	</outline>
	<anchor name="aboveUC" x="345" y="672"/>
	<anchor name="belowLC" x="299" y="-20"/>
</glyph>
<glyph name="S" format="2">
	<unicode hex="0053"/>
	<advance width="468"/>
	<outline>
		<contour>
			<point x="36" y="36" type="line"/>
			<point x="84" y="2"/>
			<point x="147" y="-16"/>
			<point x="206" y="-16" type="curve" smooth="yes"/>
			<point x="366" y="-16"/>
			<point x="456" y="70"/>
			<point x="456" y="196" type="curve" smooth="yes"/>
			<point x="456" y="294"/>
			<point x="390" y="344"/>
			<point x="331" y="392" type="curve" smooth="yes"/>
			<point x="283" y="431"/>
			<point x="232" y="468"/>
			<point x="232" y="528" type="curve" smooth="yes"/>
			<point x="232" y="596"/>
			<point x="287" y="636"/>
			<point x="342" y="636" type="curve" smooth="yes"/>
			<point x="382" y="636"/>
			<point x="407" y="629"/>
			<point x="440" y="600" type="curve"/>
			<point x="408" y="632" type="line"/>
			<point x="444" y="472" type="line"/>
			<point x="467" y="472" type="line"/>
			<point x="500" y="616" type="line"/>
			<point x="461" y="648"/>
			<point x="399" y="668"/>
			<point x="330" y="668" type="curve" smooth="yes"/>
			<point x="185" y="668"/>
			<point x="104" y="580"/>
			<point x="104" y="460" type="curve" smooth="yes"/>
			<point x="104" y="378"/>
			<point x="156" y="328"/>
			<point x="209" y="282" type="curve" smooth="yes"/>
			<point x="262" y="235"/>
			<point x="324" y="192"/>
			<point x="324" y="124" type="curve" smooth="yes"/>
			<point x="324" y="58"/>
			<point x="266" y="16"/>
			<point x="206" y="16" type="curve" smooth="yes"/>
			<point x="159" y="16"/>
			<point x="124" y="29"/>
			<point x="88" y="48" type="curve"/>
			<point x="126" y="16" type="line"/>
			<point x="96" y="192" type="line"/>
			<point x="71" y="192" type="line"/>
		</contour>
	</outline>
	<anchor name="aboveUC" x="327" y="672"/>
	<anchor name="belowLC" x="209" y="-20"/>
	<anchor name="baseLC" x="208" y="0"/>
</glyph>
<glyph name="T" format="2">
	<unicode hex="0054"/>
	<advance width="580"/>
	<outline>
		<contour>
			<point x="96" y="464" type="line"/>
			<point x="120" y="464" type="line"/>
			<point x="228" y="640" type="line"/>
			<point x="187" y="624" type="line"/>
			<point x="587" y="624" type="line"/>
			<point x="556" y="640" type="line"/>
			<point x="605" y="464" type="line"/>
			<point x="629" y="464" type="line"/>
			<point x="652" y="652" type="line"/>
			<point x="132" y="652" type="line"/>
		</contour>
		<contour>
			<point x="123" y="0" type="line"/>
			<point x="423" y="0" type="line"/>
			<point x="428" y="24" type="line"/>
			<point x="322" y="40" type="line"/>
			<point x="238" y="40" type="line"/>
			<point x="128" y="24" type="line"/>
		</contour>
		<contour>
			<point x="192" y="0" type="line"/>
			<point x="353" y="0" type="line"/>
			<point x="370" y="103"/>
			<point x="388" y="208"/>
			<point x="408" y="312" type="curve" smooth="yes"/>
			<point x="474" y="652" type="line"/>
			<point x="313" y="652" type="line"/>
			<point x="296" y="549"/>
			<point x="278" y="444"/>
			<point x="258" y="340" type="curve" smooth="yes"/>
		</contour>
	</outline>
	<anchor name="aboveUC" x="392" y="692"/>
	<anchor name="belowLC" x="272" y="-24"/>
	<anchor name="baseLC" x="272" y="0"/>
</glyph>
<glyph name="U" format="2">
	<unicode hex="0055"/>
	<advance width="596"/>
	<outline>
		<contour>
			<point x="501" y="253" type="line" smooth="yes"/>
			<point x="478" y="122"/>
			<point x="417" y="68"/>
			<point x="342" y="68" type="curve" smooth="yes"/>
			<point x="275" y="68"/>
			<point x="238" y="95"/>
			<point x="238" y="172" type="curve" smooth="yes"/>
			<point x="238" y="194"/>
			<point x="242" y="225"/>
			<point x="247" y="256" type="curve" smooth="yes"/>
			<point x="317" y="652" type="line"/>
			<point x="157" y="652" type="line"/>
			<point x="142" y="550"/>
			<point x="123" y="436"/>
			<point x="104" y="332" type="curve" smooth="yes"/>
			<point x="91" y="257" type="line" smooth="yes"/>
			<point x="85" y="224"/>
			<point x="82" y="190"/>
			<point x="82" y="164" type="curve" smooth="yes"/>
			<point x="82" y="20"/>
			<point x="170" y="-20"/>
			<point x="275" y="-20" type="curve" smooth="yes"/>
			<point x="427" y="-20"/>
			<point x="498" y="62"/>
			<point x="536" y="268" type="curve" smooth="yes"/>
			<point x="607" y="652" type="line"/>
			<point x="575" y="652" type="line"/>
		</contour>
		<contour>
			<point x="575" y="617" type="line"/>
			<point x="593" y="617" type="line"/>
			<point x="663" y="628" type="line"/>
			<point x="667" y="652" type="line"/>
			<point x="509" y="652" type="line"/>
			<point x="505" y="628" type="line"/>
		</contour>
		<contour>
			<point x="373" y="628" type="line"/>
			<point x="377" y="652" type="line"/>
			<point x="101" y="652" type="line"/>
			<point x="97" y="628" type="line"/>
			<point x="194" y="612" type="line"/>
			<point x="270" y="612" type="line"/>
		</contour>
	</outline>
</glyph>
<glyph name="V" format="2">
	<unicode hex="0056"/>
	<advance width="600"/>
	<outline>
		<contour>
			<point x="628" y="652" type="line"/>
			<point x="594" y="652" type="line"/>
			<point x="350" y="148" type="line"/>
			<point x="360" y="148" type="line"/>
			<point x="305" y="652" type="line"/>
			<point x="141" y="652" type="line"/>
			<point x="224" y="0" type="line"/>
			<point x="304" y="0" type="line"/>
		</contour>
		<contour>
			<point x="170" y="612" type="line"/>
			<point x="262" y="612" type="line"/>
			<point x="376" y="628" type="line"/>
			<point x="381" y="652" type="line"/>
			<point x="93" y="652" type="line"/>
			<point x="88" y="628" type="line"/>
		</contour>
		<contour>
			<point x="671" y="628" type="line"/>
			<point x="676" y="652" type="line"/>
			<point x="516" y="652" type="line"/>
			<point x="511" y="628" type="line"/>
			<point x="586" y="618" type="line"/>
			<point x="603" y="618" type="line"/>
		</contour>
	</outline>
</glyph>
<glyph name="W" format="2">
	<unicode hex="0057"/>
	<advance width="857"/>
	<outline>
		<contour>
			<point x="104" y="628" type="line"/>
			<point x="194" y="612" type="line"/>
			<point x="274" y="612" type="line"/>
			<point x="384" y="628" type="line"/>
			<point x="389" y="652" type="line"/>
			<point x="109" y="652" type="line"/>
		</contour>
		<contour>
			<point x="196" y="0" type="line"/>
			<point x="279" y="0" type="line"/>
			<point x="506" y="513" type="line"/>
			<point x="492" y="513" type="line"/>
			<point x="528" y="0" type="line"/>
			<point x="608" y="0" type="line"/>
			<point x="897" y="652" type="line"/>
			<point x="863" y="652" type="line"/>
			<point x="652" y="163" type="line"/>
			<point x="667" y="163" type="line"/>
			<point x="641" y="652" type="line"/>
			<point x="535" y="652" type="line"/>
			<point x="320" y="163" type="line"/>
			<point x="334" y="163" type="line"/>
			<point x="313" y="652" type="line"/>
			<point x="153" y="652" type="line"/>
		</contour>
		<contour>
			<point x="448" y="628" type="line"/>
			<point x="526" y="612" type="line"/>
			<point x="602" y="612" type="line"/>
			<point x="712" y="628" type="line"/>
			<point x="717" y="652" type="line"/>
			<point x="453" y="652" type="line"/>
		</contour>
		<contour>
			<point x="780" y="628" type="line"/>
			<point x="851" y="618" type="line"/>
			<point x="875" y="618" type="line"/>
			<point x="944" y="628" type="line"/>
			<point x="949" y="652" type="line"/>
			<point x="785" y="652" type="line"/>
		</contour>
	</outline>
	<anchor name="aboveUC" x="578" y="692"/>
	<anchor name="belowLC" x="414" y="-24"/>
</glyph>
<glyph name="X" format="2">
	<unicode hex="0058"/>
	<advance width="589"/>
	<outline>
		<contour>
			<point x="-30" y="0" type="line"/>
			<point x="145" y="0" type="line"/>
			<point x="150" y="24" type="line"/>
			<point x="79" y="34" type="line"/>
			<point x="47" y="34" type="line"/>
			<point x="-25" y="24" type="line"/>
		</contour>
		<contour>
			<point x="17" y="0" type="line"/>
			<point x="53" y="0" type="line"/>
			<point x="343" y="368" type="line"/>
			<point x="324" y="380" type="line"/>
		</contour>
		<contour>
			<point x="89" y="628" type="line"/>
			<point x="179" y="612" type="line"/>
			<point x="263" y="612" type="line"/>
			<point x="377" y="628" type="line"/>
			<point x="382" y="652" type="line"/>
			<point x="94" y="652" type="line"/>
		</contour>
		<contour>
			<point x="345" y="0" type="line"/>
			<point x="509" y="0" type="line"/>
			<point x="380" y="396" type="line"/>
			<point x="378" y="403" type="line"/>
			<point x="298" y="652" type="line"/>
			<point x="134" y="652" type="line"/>
			<point x="254" y="281" type="line"/>
			<point x="257" y="273" type="line"/>
		</contour>
		<contour>
			<point x="261" y="0" type="line"/>
			<point x="549" y="0" type="line"/>
			<point x="554" y="24" type="line"/>
			<point x="464" y="40" type="line"/>
			<point x="380" y="40" type="line"/>
			<point x="266" y="24" type="line"/>
		</contour>
		<contour>
			<point x="276" y="284" type="line"/>
			<point x="295" y="272" type="line"/>
			<point x="595" y="652" type="line"/>
			<point x="558" y="652" type="line"/>
		</contour>
		<contour>
			<point x="461" y="628" type="line"/>
			<point x="532" y="618" type="line"/>
			<point x="564" y="618" type="line"/>
			<point x="637" y="628" type="line"/>
			<point x="642" y="652" type="line"/>
			<point x="466" y="652" type="line"/>
		</contour>
	</outline>
	<anchor name="aboveUC" x="411" y="672"/>
	<anchor name="belowLC" x="217" y="-20"/>
</glyph>
<glyph name="Y" format="2">
	<unicode hex="0059"/>
	<advance width="573"/>
	<outline>
		<contour>
			<point x="109" y="24" type="line"/>
			<point x="104" y="0" type="line"/>
			<point x="396" y="0" type="line"/>
			<point x="401" y="24" type="line"/>
			<point x="299" y="40" type="line"/>
			<point x="215" y="40" type="line"/>
		</contour>
		<contour>
			<point x="605" y="652" type="line"/>
			<point x="569" y="652" type="line"/>
			<point x="369" y="308" type="line"/>
			<point x="376" y="308" type="line"/>
			<point x="301" y="652" type="line"/>
			<point x="129" y="652" type="line"/>
			<point x="243" y="188" type="line"/>
			<point x="323" y="188" type="line"/>
		</contour>
		<contour>
			<point x="178" y="612" type="line"/>
			<point x="262" y="612" type="line"/>
			<point x="372" y="628" type="line"/>
			<point x="377" y="652" type="line"/>
			<point x="93" y="652" type="line"/>
			<point x="88" y="628" type="line"/>
		</contour>
		<contour>
			<point x="644" y="628" type="line"/>
			<point x="649" y="652" type="line"/>
			<point x="489" y="652" type="line"/>
			<point x="484" y="628" type="line"/>
			<point x="551" y="618" type="line"/>
			<point x="571" y="618" type="line"/>
		</contour>
		<contour>
			<point x="168" y="0" type="line"/>
			<point x="333" y="0" type="line"/>
			<point x="348" y="104"/>
			<point x="366" y="209"/>
			<point x="386" y="313" type="curve"/>
			<point x="229" y="313" type="line"/>
		</contour>
	</outline>
</glyph>
<glyph name="Z" format="2">
  <advance width="522"/>
  <unicode hex="005A"/>
  <anchor x="371" y="692" name="aboveUC"/>
  <anchor x="248" y="-24" name="belowLC"/>
  <outline>
    <contour>
      <point x="8" y="0" type="line"/>
      <point x="186" y="0" type="line"/>
      <point x="186" y="26" type="line"/>
      <point x="584" y="632" type="line"/>
      <point x="586" y="652" type="line"/>
      <point x="410" y="652" type="line"/>
      <point x="410" y="626" type="line"/>
      <point x="12" y="20" type="line"/>
    </contour>
    <contour>
      <point x="106" y="468" type="line"/>
      <point x="130" y="468" type="line"/>
      <point x="241" y="640" type="line"/>
      <point x="203" y="624" type="line"/>
      <point x="561" y="624" type="line"/>
      <point x="561" y="652" type="line"/>
      <point x="148" y="652" type="line"/>
    </contour>
    <contour>
      <point x="39" y="0" type="line"/>
      <point x="463" y="0" type="line"/>
      <point x="510" y="188" type="line"/>
      <point x="486" y="188" type="line"/>
      <point x="371" y="12" type="line"/>
      <point x="408" y="28" type="line"/>
      <point x="39" y="28" type="line"/>
    </contour>
  </outline>
</glyph>
<glyph name="bracketleft" format="2">
	<unicode hex="005B"/>
	<advance width="360"/>
	<outline>
		<contour>
			<point x="57" y="-164" type="curve"/>
			<point x="200" y="-164" type="line"/>
			<point x="211" y="-86"/>
			<point x="233" y="41"/>
			<point x="252" y="144" type="curve" smooth="yes"/>
			<point x="302" y="411" type="line" smooth="yes"/>
			<point x="320" y="512"/>
			<point x="345" y="634"/>
			<point x="363" y="712" type="curve"/>
			<point x="219" y="712" type="line"/>
			<point x="209" y="634"/>
			<point x="188" y="512"/>
			<point x="170" y="411" type="curve" smooth="yes"/>
			<point x="120" y="144" type="line" smooth="yes"/>
			<point x="101" y="41"/>
			<point x="76" y="-86"/>
		</contour>
		<contour>
			<point x="111" y="-164" type="line"/>
			<point x="275" y="-164" type="line"/>
			<point x="280" y="-140" type="line"/>
			<point x="171" y="-124" type="line"/>
			<point x="119" y="-124" type="line"/>
		</contour>
		<contour>
			<point x="267" y="672" type="line"/>
			<point x="318" y="672" type="line"/>
			<point x="433" y="688" type="line"/>
			<point x="437" y="712" type="line"/>
			<point x="274" y="712" type="line"/>
		</contour>
	</outline>
</glyph>
<glyph name="backslash" format="2">
	<unicode hex="005C"/>
	<advance width="352"/>
	<outline>
		<contour>
			<point x="270" y="-160" type="line"/>
			<point x="161" y="708" type="line"/>
			<point x="95" y="708" type="line"/>
			<point x="204" y="-160" type="line"/>
		</contour>
	</outline>
</glyph>
<glyph name="asciicircum" format="2">
	<unicode hex="005E"/>
	<advance width="512"/>
	<outline>
		<contour>
			<point x="104" y="230" type="line"/>
			<point x="142" y="206" type="line"/>
			<point x="310" y="476" type="line"/>
			<point x="274" y="476" type="line"/>
			<point x="442" y="206" type="line"/>
			<point x="480" y="230" type="line"/>
			<point x="306" y="508" type="line"/>
			<point x="278" y="508" type="line"/>
		</contour>
	</outline>
</glyph>
<glyph name="underscore" format="2">
	<unicode hex="005F"/>
	<advance width="512"/>
	<outline>
		<contour>
			<point x="-62" y="-53" type="line"/>
			<point x="470" y="-53" type="line"/>
			<point x="470" y="-3" type="line"/>
			<point x="-62" y="-3" type="line"/>
		</contour>
	</outline>
</glyph>
<glyph name="a" format="2">
	<unicode hex="0061"/>
	<advance width="541"/>
	<outline>
		<contour>
			<point x="152" y="-16" type="curve" smooth="yes"/>
			<point x="234" y="-16"/>
			<point x="294" y="66"/>
			<point x="324" y="118" type="curve"/>
			<point x="329" y="118" type="line"/>
			<point x="332" y="152" type="line"/>
			<point x="290" y="90"/>
			<point x="254" y="72"/>
			<point x="230" y="72" type="curve" smooth="yes"/>
			<point x="200" y="72"/>
			<point x="194" y="98"/>
			<point x="194" y="136" type="curve" smooth="yes"/>
			<point x="194" y="201"/>
			<point x="217" y="301"/>
			<point x="259" y="361" type="curve" smooth="yes"/>
			<point x="280" y="392"/>
			<point x="306" y="412"/>
			<point x="336" y="412" type="curve" smooth="yes"/>
			<point x="359" y="412"/>
			<point x="380" y="392"/>
			<point x="399" y="367" type="curve"/>
			<point x="494" y="408" type="line"/>
			<point x="468" y="451"/>
			<point x="413" y="476"/>
			<point x="358" y="476" type="curve" smooth="yes"/>
			<point x="215" y="476"/>
			<point x="42" y="264"/>
			<point x="42" y="112" type="curve" smooth="yes"/>
			<point x="42" y="21"/>
			<point x="97" y="-16"/>
		</contour>
		<contour>
			<point x="383" y="-16" type="curve" smooth="yes"/>
			<point x="455" y="-16"/>
			<point x="513" y="47"/>
			<point x="546" y="108" type="curve"/>
			<point x="527" y="120" type="line"/>
			<point x="501" y="85"/>
			<point x="481" y="72"/>
			<point x="469" y="72" type="curve" smooth="yes"/>
			<point x="461" y="72"/>
			<point x="455" y="75"/>
			<point x="455" y="86" type="curve" smooth="yes"/>
			<point x="455" y="95"/>
			<point x="459" y="108"/>
			<point x="461" y="120" type="curve" smooth="yes"/>
			<point x="533" y="464" type="line"/>
			<point x="517" y="476" type="line"/>
			<point x="378" y="407" type="line"/>
			<point x="369" y="402" type="line"/>
			<point x="308" y="110" type="line"/>
			<point x="307" y="107" type="line"/>
			<point x="304" y="91"/>
			<point x="302" y="76"/>
			<point x="302" y="64" type="curve" smooth="yes"/>
			<point x="302" y="16"/>
			<point x="336" y="-16"/>
		</contour>
	</outline>
	<anchor name="aboveLC" x="348" y="484"/>
	<anchor name="belowLC" x="256" y="-24"/>
	<anchor name="ogonek" x="434" y="0"/>
</glyph>
<glyph name="b" format="2">
	<unicode hex="0062"/>
	<advance width="510"/>
	<outline>
		<contour>
			<point x="192" y="-16" type="curve" smooth="yes"/>
			<point x="368" y="-16"/>
			<point x="518" y="196"/>
			<point x="518" y="348" type="curve" smooth="yes"/>
			<point x="518" y="442"/>
			<point x="466" y="476"/>
			<point x="412" y="476" type="curve"/>
			<point x="336" y="476"/>
			<point x="279" y="420"/>
			<point x="232" y="342" type="curve"/>
			<point x="227" y="342" type="line"/>
			<point x="224" y="308" type="line"/>
			<point x="266" y="370"/>
			<point x="304" y="388"/>
			<point x="328" y="388" type="curve"/>
			<point x="358" y="388"/>
			<point x="366" y="362"/>
			<point x="366" y="324" type="curve" smooth="yes"/>
			<point x="366" y="260"/>
			<point x="347" y="163"/>
			<point x="310" y="102" type="curve" smooth="yes"/>
			<point x="290" y="70"/>
			<point x="266" y="48"/>
			<point x="237" y="48" type="curve" smooth="yes"/>
			<point x="212" y="48"/>
			<point x="196" y="60"/>
			<point x="196" y="88" type="curve" smooth="yes"/>
			<point x="196" y="107"/>
			<point x="208" y="161"/>
			<point x="218" y="209" type="curve" smooth="yes"/>
			<point x="249" y="351" type="line"/>
			<point x="250" y="360" type="line"/>
			<point x="321" y="708" type="line"/>
			<point x="305" y="720" type="line"/>
			<point x="101" y="664" type="line"/>
			<point x="97" y="646" type="line"/>
			<point x="179" y="622" type="line"/>
			<point x="161" y="643" type="line"/>
			<point x="81" y="271" type="line" smooth="yes"/>
			<point x="70" y="222"/>
			<point x="55" y="155"/>
			<point x="55" y="104" type="curve" smooth="yes"/>
			<point x="55" y="-10"/>
			<point x="157" y="-16"/>
		</contour>
	</outline>
	<anchor name="aboveLC" x="251" y="716"/>
	<anchor name="belowLC" x="244" y="-24"/>
</glyph>
<glyph name="c" format="2">
	<unicode hex="0063"/>
	<advance width="439"/>
	<outline>
		<contour>
			<point x="272" y="457" type="line"/>
			<point x="313" y="368" type="line" smooth="yes"/>
			<point x="335" y="328"/>
			<point x="356" y="312"/>
			<point x="392" y="312" type="curve" smooth="yes"/>
			<point x="424" y="312"/>
			<point x="446" y="328"/>
			<point x="453" y="369" type="curve"/>
			<point x="444" y="434"/>
			<point x="386" y="476"/>
			<point x="322" y="476" type="curve" smooth="yes"/>
			<point x="153" y="476"/>
			<point x="42" y="316"/>
			<point x="42" y="164" type="curve" smooth="yes"/>
			<point x="42" y="44"/>
			<point x="118" y="-16"/>
			<point x="212" y="-16" type="curve" smooth="yes"/>
			<point x="319" y="-16"/>
			<point x="381" y="41"/>
			<point x="425" y="137" type="curve"/>
			<point x="408" y="148" type="line"/>
			<point x="369" y="108"/>
			<point x="324" y="88"/>
			<point x="286" y="88" type="curve" smooth="yes"/>
			<point x="233" y="88"/>
			<point x="192" y="127"/>
			<point x="192" y="212" type="curve" smooth="yes"/>
			<point x="192" y="313"/>
			<point x="244" y="460"/>
			<point x="332" y="456" type="curve"/>
		</contour>
	</outline>
</glyph>
<glyph name="d" format="2">
	<unicode hex="0064"/>
	<advance width="541"/>
	<outline>
		<contour>
			<point x="134" y="-16" type="curve" smooth="yes"/>
			<point x="216" y="-16"/>
			<point x="276" y="66"/>
			<point x="306" y="118" type="curve"/>
			<point x="311" y="118" type="line"/>
			<point x="314" y="152" type="line"/>
			<point x="272" y="90"/>
			<point x="236" y="72"/>
			<point x="212" y="72" type="curve" smooth="yes"/>
			<point x="182" y="72"/>
			<point x="176" y="98"/>
			<point x="176" y="136" type="curve" smooth="yes"/>
			<point x="176" y="209"/>
			<point x="205" y="325"/>
			<point x="256" y="381" type="curve" smooth="yes"/>
			<point x="274" y="400"/>
			<point x="295" y="412"/>
			<point x="318" y="412" type="curve" smooth="yes"/>
			<point x="341" y="412"/>
			<point x="362" y="392"/>
			<point x="381" y="367" type="curve"/>
			<point x="476" y="408" type="line"/>
			<point x="450" y="451"/>
			<point x="395" y="476"/>
			<point x="340" y="476" type="curve" smooth="yes"/>
			<point x="197" y="476"/>
			<point x="24" y="264"/>
			<point x="24" y="112" type="curve" smooth="yes"/>
			<point x="24" y="21"/>
			<point x="79" y="-16"/>
		</contour>
		<contour>
			<point x="356" y="-16" type="curve" smooth="yes"/>
			<point x="436" y="-16"/>
			<point x="495" y="47"/>
			<point x="528" y="108" type="curve"/>
			<point x="509" y="120" type="line"/>
			<point x="483" y="85"/>
			<point x="463" y="72"/>
			<point x="451" y="72" type="curve" smooth="yes"/>
			<point x="443" y="72"/>
			<point x="437" y="75"/>
			<point x="437" y="86" type="curve" smooth="yes"/>
			<point x="437" y="95"/>
			<point x="440" y="111"/>
			<point x="444" y="132" type="curve" smooth="yes"/>
			<point x="565" y="713" type="line"/>
			<point x="549" y="725" type="line"/>
			<point x="345" y="669" type="line"/>
			<point x="341" y="651" type="line"/>
			<point x="423" y="627" type="line"/>
			<point x="402" y="641" type="line"/>
			<point x="361" y="430" type="line"/>
			<point x="354" y="417" type="line"/>
			<point x="296" y="144" type="line"/>
			<point x="287" y="102" type="line"/>
			<point x="283" y="84"/>
			<point x="280" y="65"/>
			<point x="280" y="50" type="curve" smooth="yes"/>
			<point x="280" y="10"/>
			<point x="309" y="-16"/>
		</contour>
	</outline>
	<anchor name="aboveLC" x="481" y="725"/>
	<anchor name="belowLC" x="239" y="-20"/>
</glyph>
<glyph name="e" format="2">
	<unicode hex="0065"/>
	<advance width="434"/>
	<outline>
		<contour>
			<point x="205" y="-16" type="curve" smooth="yes"/>
			<point x="322" y="-16"/>
			<point x="378" y="41"/>
			<point x="421" y="137" type="curve"/>
			<point x="404" y="148" type="line"/>
			<point x="373" y="108"/>
			<point x="328" y="88"/>
			<point x="288" y="88" type="curve" smooth="yes"/>
			<point x="233" y="88"/>
			<point x="185" y="126"/>
			<point x="185" y="204" type="curve" smooth="yes"/>
			<point x="185" y="348"/>
			<point x="256" y="444"/>
			<point x="297" y="444" type="curve" smooth="yes"/>
			<point x="314" y="444"/>
			<point x="330" y="434"/>
			<point x="330" y="400" type="curve" smooth="yes"/>
			<point x="330" y="318"/>
			<point x="291" y="254"/>
			<point x="115" y="208" type="curve"/>
			<point x="115" y="188" type="line"/>
			<point x="332" y="232"/>
			<point x="452" y="287"/>
			<point x="452" y="384" type="curve" smooth="yes"/>
			<point x="452" y="439"/>
			<point x="403" y="476"/>
			<point x="325" y="476" type="curve" smooth="yes"/>
			<point x="152" y="476"/>
			<point x="38" y="316"/>
			<point x="38" y="168" type="curve" smooth="yes"/>
			<point x="38" y="48"/>
			<point x="111" y="-16"/>
		</contour>
	</outline>
	<anchor name="aboveLC" x="373" y="520"/>
	<anchor name="belowLC" x="242" y="-22"/>
	<anchor name="ogonek" x="307" y="0"/>
</glyph>
<glyph name="f" format="2">
	<unicode hex="0066"/>
	<advance width="338"/>
	<outline>
		<contour>
			<point x="-42" y="-240" type="curve" smooth="yes"/>
			<point x="34" y="-240"/>
			<point x="95" y="-200"/>
			<point x="140" y="-142" type="curve" smooth="yes"/>
			<point x="185" y="-84"/>
			<point x="214" y="-8"/>
			<point x="225" y="65" type="curve" smooth="yes"/>
			<point x="248" y="214"/>
			<point x="272" y="368"/>
			<point x="295" y="517" type="curve" smooth="yes"/>
			<point x="310" y="612"/>
			<point x="318" y="670"/>
			<point x="346" y="704" type="curve"/>
			<point x="346" y="709" type="line"/>
			<point x="323" y="709" type="line"/>
			<point x="364" y="652" type="line" smooth="yes"/>
			<point x="388" y="618"/>
			<point x="412" y="591"/>
			<point x="449" y="591" type="curve" smooth="yes"/>
			<point x="485" y="591"/>
			<point x="512" y="615"/>
			<point x="513" y="655" type="curve"/>
			<point x="500" y="709"/>
			<point x="437" y="735"/>
			<point x="379" y="735" type="curve" smooth="yes"/>
			<point x="235" y="735"/>
			<point x="155" y="617"/>
			<point x="130" y="440" type="curve" smooth="yes"/>
			<point x="111" y="308"/>
			<point x="93" y="176"/>
			<point x="74" y="44" type="curve" smooth="yes"/>
			<point x="67" y="-6"/>
			<point x="58" y="-67"/>
			<point x="43" y="-119" type="curve" smooth="yes"/>
			<point x="32" y="-154"/>
			<point x="19" y="-186"/>
			<point x="1" y="-205" type="curve"/>
			<point x="1" y="-210" type="line"/>
			<point x="26" y="-210" type="line"/>
			<point x="-5" y="-173" type="line" smooth="yes"/>
			<point x="-35" y="-137"/>
			<point x="-64" y="-108"/>
			<point x="-106" y="-108" type="curve" smooth="yes"/>
			<point x="-138" y="-108"/>
			<point x="-168" y="-126"/>
			<point x="-174" y="-162" type="curve"/>
			<point x="-165" y="-213"/>
			<point x="-114" y="-240"/>
		</contour>
		<contour>
			<point x="62" y="428" type="line"/>
			<point x="170" y="428" type="line"/>
			<point x="370" y="428" type="line"/>
			<point x="378" y="460" type="line"/>
			<point x="174" y="460" type="line"/>
			<point x="174" y="468" type="line"/>
			<point x="66" y="452" type="line"/>
		</contour>
	</outline>
	<anchor name="aboveLC" x="344" y="716"/>
	<anchor name="belowLC" x="28" y="-240"/>
</glyph>
<glyph name="g" format="2">
	<unicode hex="0067"/>
	<advance width="530"/>
	<outline>
		<contour>
			<point x="20" y="44" type="curve" smooth="yes"/>
			<point x="20" y="1"/>
			<point x="60" y="-42"/>
			<point x="139" y="-51" type="curve" smooth="yes"/>
			<point x="148" y="-52" type="line"/>
			<point x="232" y="-60" type="line" smooth="yes"/>
			<point x="296" y="-66"/>
			<point x="320" y="-81"/>
			<point x="320" y="-112" type="curve" smooth="yes"/>
			<point x="320" y="-164"/>
			<point x="268" y="-204"/>
			<point x="172" y="-204" type="curve" smooth="yes"/>
			<point x="106" y="-204"/>
			<point x="56" y="-172"/>
			<point x="56" y="-116" type="curve" smooth="yes"/>
			<point x="56" y="-75"/>
			<point x="87" y="-37"/>
			<point x="108" y="-20" type="curve"/>
			<point x="96" y="-16" type="line"/>
			<point x="8" y="-44"/>
			<point x="-48" y="-86"/>
			<point x="-48" y="-144" type="curve" smooth="yes"/>
			<point x="-48" y="-199"/>
			<point x="2" y="-240"/>
			<point x="116" y="-240" type="curve" smooth="yes"/>
			<point x="299" y="-240"/>
			<point x="440" y="-150"/>
			<point x="440" y="-46" type="curve" smooth="yes"/>
			<point x="440" y="26"/>
			<point x="395" y="61"/>
			<point x="288" y="71" type="curve" smooth="yes"/>
			<point x="164" y="83" type="line" smooth="yes"/>
			<point x="134" y="86"/>
			<point x="120" y="100"/>
			<point x="120" y="116" type="curve" smooth="yes"/>
			<point x="120" y="129"/>
			<point x="127" y="147"/>
			<point x="156" y="176" type="curve"/>
			<point x="152" y="192" type="line"/>
			<point x="152" y="184" type="line"/>
			<point x="76" y="145"/>
			<point x="20" y="111"/>
		</contour>
		<contour>
			<point x="206" y="176" type="curve" smooth="yes"/>
			<point x="187" y="176"/>
			<point x="172" y="190"/>
			<point x="172" y="239" type="curve" smooth="yes"/>
			<point x="172" y="338"/>
			<point x="208" y="448"/>
			<point x="257" y="448" type="curve" smooth="yes"/>
			<point x="276" y="448"/>
			<point x="291" y="434"/>
			<point x="291" y="385" type="curve" smooth="yes"/>
			<point x="291" y="286"/>
			<point x="255" y="176"/>
		</contour>
		<contour>
			<point x="42" y="272" type="curve" smooth="yes"/>
			<point x="42" y="184"/>
			<point x="125" y="148"/>
			<point x="206" y="148" type="curve" smooth="yes"/>
			<point x="307" y="148"/>
			<point x="384" y="198"/>
			<point x="409" y="276" type="curve" smooth="yes"/>
			<point x="423" y="320"/>
			<point x="438" y="374"/>
			<point x="444" y="394" type="curve"/>
			<point x="428" y="371" type="line"/>
			<point x="504" y="386"/>
			<point x="548" y="404"/>
			<point x="548" y="458" type="curve" smooth="yes"/>
			<point x="548" y="470"/>
			<point x="545" y="478"/>
			<point x="541" y="484" type="curve"/>
			<point x="530" y="490"/>
			<point x="520" y="492"/>
			<point x="504" y="492" type="curve" smooth="yes"/>
			<point x="461" y="492"/>
			<point x="431" y="460"/>
			<point x="412" y="359" type="curve"/>
			<point x="416" y="360" type="line"/>
			<point x="415" y="442"/>
			<point x="336" y="476"/>
			<point x="258" y="476" type="curve" smooth="yes"/>
			<point x="125" y="476"/>
			<point x="42" y="384"/>
		</contour>
	</outline>
	<anchor name="aboveLC" x="261" y="480"/>
	<anchor name="belowLC" x="166" y="-260"/>
</glyph>
<glyph name="h" format="2">
	<unicode hex="0068"/>
	<advance width="550"/>
	<outline>
		<contour>
			<point x="508" y="304" type="line" smooth="yes"/>
			<point x="515" y="334"/>
			<point x="520" y="364"/>
			<point x="520" y="388" type="curve" smooth="yes"/>
			<point x="520" y="450"/>
			<point x="484" y="476"/>
			<point x="438" y="476" type="curve" smooth="yes"/>
			<point x="362" y="476"/>
			<point x="310" y="427"/>
			<point x="236" y="344" type="curve"/>
			<point x="246" y="328" type="line"/>
			<point x="284" y="366"/>
			<point x="319" y="384"/>
			<point x="342" y="384" type="curve" smooth="yes"/>
			<point x="358" y="384"/>
			<point x="366" y="375"/>
			<point x="366" y="360" type="curve" smooth="yes"/>
			<point x="366" y="348"/>
			<point x="361" y="320"/>
			<point x="354" y="292" type="curve" smooth="yes"/>
			<point x="320" y="144" type="line" smooth="yes"/>
			<point x="315" y="122"/>
			<point x="304" y="78"/>
			<point x="304" y="50" type="curve" smooth="yes"/>
			<point x="304" y="10"/>
			<point x="333" y="-16"/>
			<point x="380" y="-16" type="curve" smooth="yes"/>
			<point x="460" y="-16"/>
			<point x="517" y="47"/>
			<point x="550" y="108" type="curve"/>
			<point x="531" y="120" type="line"/>
			<point x="505" y="85"/>
			<point x="486" y="72"/>
			<point x="474" y="72" type="curve" smooth="yes"/>
			<point x="466" y="72"/>
			<point x="460" y="75"/>
			<point x="460" y="86" type="curve" smooth="yes"/>
			<point x="460" y="95"/>
			<point x="463" y="111"/>
			<point x="468" y="132" type="curve" smooth="yes"/>
		</contour>
		<contour>
			<point x="330" y="708" type="line"/>
			<point x="314" y="720" type="line"/>
			<point x="106" y="664" type="line"/>
			<point x="102" y="646" type="line"/>
			<point x="184" y="622" type="line"/>
			<point x="159" y="636" type="line"/>
			<point x="150" y="567"/>
			<point x="137" y="499"/>
			<point x="123" y="430" type="curve" smooth="yes"/>
			<point x="34" y="4" type="line"/>
			<point x="50" y="-8" type="line"/>
			<point x="193" y="0" type="line"/>
			<point x="197" y="68"/>
			<point x="211" y="140"/>
			<point x="225" y="206" type="curve" smooth="yes"/>
		</contour>
	</outline>
	<anchor name="aboveLC" x="262" y="711"/>
	<anchor name="belowLC" x="266" y="-22"/>
</glyph>
<glyph name="i" format="2">
	<unicode hex="0069"/>
	<advance width="292"/>
	<outline>
		<contour>
			<point x="43" y="122"/>
			<point x="32" y="78"/>
			<point x="32" y="50" type="curve" smooth="yes"/>
			<point x="32" y="10"/>
			<point x="61" y="-16"/>
			<point x="108" y="-16" type="curve" smooth="yes"/>
			<point x="188" y="-16"/>
			<point x="245" y="47"/>
			<point x="278" y="108" type="curve"/>
			<point x="259" y="120" type="line"/>
			<point x="233" y="85"/>
			<point x="215" y="72"/>
			<point x="203" y="72" type="curve" smooth="yes"/>
			<point x="195" y="72"/>
			<point x="189" y="75"/>
			<point x="189" y="86" type="curve" smooth="yes"/>
			<point x="189" y="95"/>
			<point x="192" y="111"/>
			<point x="196" y="132" type="curve" smooth="yes"/>
			<point x="264" y="464" type="line"/>
			<point x="248" y="476" type="line"/>
			<point x="42" y="420" type="line"/>
			<point x="38" y="402" type="line"/>
			<point x="118" y="378" type="line"/>
			<point x="102" y="392" type="line"/>
			<point x="48" y="144" type="line" smooth="yes"/>
		</contour>
		<contour>
			<point x="220" y="544" type="curve" smooth="yes"/>
			<point x="268" y="544"/>
			<point x="307" y="581"/>
			<point x="307" y="632" type="curve" smooth="yes"/>
			<point x="307" y="672"/>
			<point x="279" y="702"/>
			<point x="237" y="702" type="curve" smooth="yes"/>
			<point x="189" y="702"/>
			<point x="149" y="666"/>
			<point x="149" y="615" type="curve" smooth="yes"/>
			<point x="149" y="571"/>
			<point x="183" y="544"/>
		</contour>
	</outline>
	<anchor name="aboveLC" x="225" y="702"/>
	<anchor name="belowLC" x="121" y="-20"/>
	<anchor name="ogonek" x="166" y="0"/>
</glyph>
<glyph name="j" format="2">
	<unicode hex="006A"/>
	<advance width="288"/>
	<outline>
		<contour>
			<point x="236" y="544" type="curve" smooth="yes"/>
			<point x="284" y="544"/>
			<point x="323" y="581"/>
			<point x="323" y="632" type="curve" smooth="yes"/>
			<point x="323" y="672"/>
			<point x="295" y="702"/>
			<point x="253" y="702" type="curve" smooth="yes"/>
			<point x="205" y="702"/>
			<point x="165" y="666"/>
			<point x="165" y="615" type="curve" smooth="yes"/>
			<point x="165" y="571"/>
			<point x="199" y="544"/>
		</contour>
		<contour>
			<point x="-73" y="-240" type="line"/>
			<point x="26" y="-228"/>
			<point x="85" y="-200"/>
			<point x="124" y="-150" type="curve" smooth="yes"/>
			<point x="161" y="-103"/>
			<point x="180" y="-36"/>
			<point x="199" y="55" type="curve" smooth="yes"/>
			<point x="284" y="464" type="line"/>
			<point x="268" y="476" type="line"/>
			<point x="62" y="420" type="line"/>
			<point x="58" y="402" type="line"/>
			<point x="136" y="378" type="line"/>
			<point x="118" y="392" type="line"/>
			<point x="46" y="29" type="line" smooth="yes"/>
			<point x="26" y="-67"/>
			<point x="14" y="-126"/>
			<point x="-6" y="-162" type="curve" smooth="yes"/>
			<point x="-21" y="-190"/>
			<point x="-45" y="-205"/>
			<point x="-78" y="-219" type="curve"/>
		</contour>
	</outline>
	<anchor name="aboveLC" x="254" y="702"/>
	<anchor name="belowLC" x="60" y="-260"/>
</glyph>
<glyph name="k" format="2">
	<unicode hex="006B"/>
	<advance width="507"/>
	<outline>
		<contour>
			<point x="34" y="4" type="line"/>
			<point x="50" y="-8" type="line"/>
			<point x="193" y="0" type="line"/>
			<point x="197" y="68"/>
			<point x="211" y="140"/>
			<point x="225" y="206" type="curve" smooth="yes"/>
			<point x="330" y="713" type="line"/>
			<point x="315" y="725" type="line"/>
			<point x="107" y="669" type="line"/>
			<point x="103" y="651" type="line"/>
			<point x="185" y="627" type="line"/>
			<point x="160" y="641" type="line"/>
			<point x="151" y="572"/>
			<point x="137" y="499"/>
			<point x="123" y="430" type="curve" smooth="yes"/>
		</contour>
		<contour>
			<point x="507" y="0" type="curve"/>
			<point x="511" y="20" type="line"/>
			<point x="492" y="24" type="line" smooth="yes"/>
			<point x="471" y="28"/>
			<point x="460" y="56"/>
			<point x="448" y="86" type="curve" smooth="yes"/>
			<point x="419" y="158" type="line" smooth="yes"/>
			<point x="394" y="219"/>
			<point x="349" y="251"/>
			<point x="273" y="256" type="curve" smooth="yes"/>
			<point x="231" y="259" type="line"/>
			<point x="228" y="251" type="line"/>
			<point x="413" y="306" type="line" smooth="yes"/>
			<point x="485" y="327"/>
			<point x="522" y="345"/>
			<point x="522" y="403" type="curve" smooth="yes"/>
			<point x="522" y="440"/>
			<point x="488" y="468"/>
			<point x="456" y="471" type="curve"/>
			<point x="217" y="253" type="line"/>
			<point x="216" y="249" type="line"/>
			<point x="222" y="246" type="line" smooth="yes"/>
			<point x="245" y="236"/>
			<point x="249" y="221"/>
			<point x="263" y="172" type="curve" smooth="yes"/>
			<point x="289" y="78" type="line" smooth="yes"/>
			<point x="310" y="1"/>
			<point x="351" y="-15"/>
			<point x="417" y="-15" type="curve" smooth="yes"/>
			<point x="455" y="-15"/>
			<point x="481" y="-9"/>
		</contour>
	</outline>
	<anchor name="aboveLC" x="247" y="716"/>
	<anchor name="belowLC" x="256" y="-24"/>
</glyph>
<glyph name="l" format="2">
	<unicode hex="006C"/>
	<advance width="288"/>
	<outline>
		<contour>
			<point x="122" y="-16" type="curve" smooth="yes"/>
			<point x="202" y="-16"/>
			<point x="259" y="47"/>
			<point x="292" y="108" type="curve"/>
			<point x="273" y="120" type="line"/>
			<point x="247" y="85"/>
			<point x="229" y="72"/>
			<point x="217" y="72" type="curve" smooth="yes"/>
			<point x="209" y="72"/>
			<point x="203" y="75"/>
			<point x="203" y="86" type="curve" smooth="yes"/>
			<point x="203" y="95"/>
			<point x="206" y="111"/>
			<point x="210" y="132" type="curve" smooth="yes"/>
			<point x="331" y="713" type="line"/>
			<point x="315" y="725" type="line"/>
			<point x="107" y="669" type="line"/>
			<point x="103" y="651" type="line"/>
			<point x="185" y="627" type="line"/>
			<point x="160" y="641" type="line"/>
			<point x="151" y="572"/>
			<point x="138" y="499"/>
			<point x="123" y="430" type="curve" smooth="yes"/>
			<point x="62" y="144" type="line" smooth="yes"/>
			<point x="57" y="122"/>
			<point x="46" y="78"/>
			<point x="46" y="50" type="curve" smooth="yes"/>
			<point x="46" y="10"/>
			<point x="75" y="-16"/>
		</contour>
	</outline>
	<anchor name="aboveLC" x="247" y="716"/>
	<anchor name="belowLC" x="138" y="-24"/>
</glyph>
<glyph name="m" format="2">
	<unicode hex="006D"/>
	<advance width="802"/>
	<outline>
		<contour>
			<point x="282" y="464" type="line"/>
			<point x="266" y="476" type="line"/>
			<point x="60" y="420" type="line"/>
			<point x="56" y="402" type="line"/>
			<point x="136" y="378" type="line"/>
			<point x="119" y="392" type="line"/>
			<point x="38" y="4" type="line"/>
			<point x="54" y="-8" type="line"/>
			<point x="197" y="0" type="line"/>
			<point x="201" y="68"/>
			<point x="215" y="140"/>
			<point x="229" y="206" type="curve" smooth="yes"/>
		</contour>
		<contour>
			<point x="520" y="388" type="curve" smooth="yes"/>
			<point x="520" y="450"/>
			<point x="484" y="476"/>
			<point x="438" y="476" type="curve" smooth="yes"/>
			<point x="362" y="476"/>
			<point x="310" y="427"/>
			<point x="236" y="344" type="curve"/>
			<point x="246" y="328" type="line"/>
			<point x="284" y="366"/>
			<point x="319" y="384"/>
			<point x="342" y="384" type="curve" smooth="yes"/>
			<point x="358" y="384"/>
			<point x="366" y="375"/>
			<point x="366" y="360" type="curve" smooth="yes"/>
			<point x="366" y="348"/>
			<point x="359" y="317"/>
			<point x="353" y="289" type="curve" smooth="yes"/>
			<point x="322" y="144" type="line"/>
			<point x="292" y="4" type="line"/>
			<point x="308" y="-8" type="line"/>
			<point x="451" y="0" type="line"/>
			<point x="457" y="68"/>
			<point x="471" y="140"/>
			<point x="485" y="206" type="curve" smooth="yes"/>
			<point x="506" y="304" type="line" smooth="yes"/>
			<point x="512" y="334"/>
			<point x="520" y="364"/>
		</contour>
		<contour>
			<point x="764" y="304" type="line" smooth="yes"/>
			<point x="771" y="334"/>
			<point x="776" y="364"/>
			<point x="776" y="388" type="curve" smooth="yes"/>
			<point x="776" y="450"/>
			<point x="740" y="476"/>
			<point x="694" y="476" type="curve" smooth="yes"/>
			<point x="618" y="476"/>
			<point x="566" y="427"/>
			<point x="492" y="344" type="curve"/>
			<point x="502" y="328" type="line"/>
			<point x="540" y="366"/>
			<point x="575" y="384"/>
			<point x="598" y="384" type="curve" smooth="yes"/>
			<point x="614" y="384"/>
			<point x="622" y="375"/>
			<point x="622" y="360" type="curve" smooth="yes"/>
			<point x="622" y="348"/>
			<point x="617" y="320"/>
			<point x="610" y="292" type="curve" smooth="yes"/>
			<point x="576" y="144" type="line" smooth="yes"/>
			<point x="571" y="122"/>
			<point x="560" y="78"/>
			<point x="560" y="50" type="curve" smooth="yes"/>
			<point x="560" y="10"/>
			<point x="589" y="-16"/>
			<point x="636" y="-16" type="curve" smooth="yes"/>
			<point x="716" y="-16"/>
			<point x="773" y="47"/>
			<point x="806" y="108" type="curve"/>
			<point x="787" y="120" type="line"/>
			<point x="761" y="85"/>
			<point x="742" y="72"/>
			<point x="730" y="72" type="curve" smooth="yes"/>
			<point x="722" y="72"/>
			<point x="716" y="75"/>
			<point x="716" y="86" type="curve" smooth="yes"/>
			<point x="716" y="95"/>
			<point x="719" y="111"/>
			<point x="724" y="132" type="curve" smooth="yes"/>
		</contour>
	</outline>
</glyph>
<glyph name="n" format="2">
	<unicode hex="006E"/>
	<advance width="548"/>
	<outline>
		<contour>
			<point x="512" y="304" type="line" smooth="yes"/>
			<point x="519" y="334"/>
			<point x="524" y="364"/>
			<point x="524" y="388" type="curve" smooth="yes"/>
			<point x="524" y="450"/>
			<point x="488" y="476"/>
			<point x="442" y="476" type="curve" smooth="yes"/>
			<point x="366" y="476"/>
			<point x="314" y="427"/>
			<point x="240" y="344" type="curve"/>
			<point x="250" y="328" type="line"/>
			<point x="288" y="366"/>
			<point x="323" y="384"/>
			<point x="346" y="384" type="curve" smooth="yes"/>
			<point x="362" y="384"/>
			<point x="370" y="375"/>
			<point x="370" y="360" type="curve" smooth="yes"/>
			<point x="370" y="348"/>
			<point x="365" y="320"/>
			<point x="358" y="292" type="curve" smooth="yes"/>
			<point x="324" y="144" type="line" smooth="yes"/>
			<point x="319" y="122"/>
			<point x="308" y="78"/>
			<point x="308" y="50" type="curve" smooth="yes"/>
			<point x="308" y="10"/>
			<point x="337" y="-16"/>
			<point x="384" y="-16" type="curve" smooth="yes"/>
			<point x="464" y="-16"/>
			<point x="521" y="47"/>
			<point x="554" y="108" type="curve"/>
			<point x="535" y="120" type="line"/>
			<point x="509" y="85"/>
			<point x="490" y="72"/>
			<point x="478" y="72" type="curve" smooth="yes"/>
			<point x="470" y="72"/>
			<point x="464" y="75"/>
			<point x="464" y="86" type="curve" smooth="yes"/>
			<point x="464" y="95"/>
			<point x="467" y="111"/>
			<point x="472" y="132" type="curve" smooth="yes"/>
		</contour>
		<contour>
			<point x="282" y="464" type="line"/>
			<point x="266" y="476" type="line"/>
			<point x="60" y="420" type="line"/>
			<point x="56" y="402" type="line"/>
			<point x="136" y="378" type="line"/>
			<point x="119" y="392" type="line"/>
			<point x="38" y="4" type="line"/>
			<point x="54" y="-8" type="line"/>
			<point x="197" y="0" type="line"/>
			<point x="201" y="68"/>
			<point x="215" y="140"/>
			<point x="229" y="206" type="curve" smooth="yes"/>
		</contour>
	</outline>
	<anchor name="aboveLC" x="364" y="520"/>
	<anchor name="belowLC" x="269" y="-22"/>
</glyph>
<glyph name="o" format="2">
	<unicode hex="006F"/>
	<advance width="504"/>
	<outline>
		<contour>
			<point x="210" y="-16" type="curve" smooth="yes"/>
			<point x="391" y="-16"/>
			<point x="486" y="139"/>
			<point x="486" y="292" type="curve" smooth="yes"/>
			<point x="486" y="419"/>
			<point x="394" y="476"/>
			<point x="294" y="476" type="curve" smooth="yes"/>
			<point x="113" y="476"/>
			<point x="18" y="321"/>
			<point x="18" y="168" type="curve" smooth="yes"/>
			<point x="18" y="41"/>
			<point x="110" y="-16"/>
		</contour>
		<contour>
			<point x="210" y="12" type="curve" smooth="yes"/>
			<point x="185" y="12"/>
			<point x="168" y="27"/>
			<point x="168" y="88" type="curve" smooth="yes"/>
			<point x="168" y="238"/>
			<point x="224" y="448"/>
			<point x="294" y="448" type="curve" smooth="yes"/>
			<point x="319" y="448"/>
			<point x="336" y="433"/>
			<point x="336" y="372" type="curve" smooth="yes"/>
			<point x="336" y="222"/>
			<point x="280" y="12"/>
		</contour>
	</outline>
	<anchor name="aboveLC" x="300" y="480"/>
	<anchor name="belowLC" x="205" y="-20"/>
	<anchor name="hornLC" x="393" y="394"/>
	<anchor name="ogonek" x="302" y="0"/>
</glyph>
<glyph name="p" format="2">
	<unicode hex="0070"/>
	<advance width="518"/>
	<outline>
		<contour>
			<point x="-12" y="-240" type="line"/>
			<point x="137" y="-240" type="line"/>
			<point x="149" y="-171"/>
			<point x="168" y="-74"/>
			<point x="184" y="9" type="curve"/>
			<point x="189" y="27" type="line"/>
			<point x="282" y="464" type="line"/>
			<point x="266" y="476" type="line"/>
			<point x="60" y="420" type="line"/>
			<point x="56" y="402" type="line"/>
			<point x="136" y="378" type="line"/>
			<point x="117" y="393" type="line"/>
		</contour>
		<contour>
			<point x="217" y="-218" type="line"/>
			<point x="126" y="-202" type="line"/>
			<point x="18" y="-202" type="line"/>
			<point x="-68" y="-218" type="line"/>
			<point x="-74" y="-240" type="line"/>
			<point x="214" y="-240" type="line"/>
		</contour>
		<contour>
			<point x="412" y="476" type="curve"/>
			<point x="330" y="476"/>
			<point x="270" y="394"/>
			<point x="240" y="342" type="curve"/>
			<point x="232" y="308" type="line"/>
			<point x="274" y="370"/>
			<point x="310" y="388"/>
			<point x="334" y="388" type="curve" smooth="yes"/>
			<point x="364" y="388"/>
			<point x="370" y="362"/>
			<point x="370" y="324" type="curve" smooth="yes"/>
			<point x="370" y="226"/>
			<point x="326" y="48"/>
			<point x="240" y="48" type="curve" smooth="yes"/>
			<point x="213" y="48"/>
			<point x="192" y="68"/>
			<point x="173" y="93" type="curve"/>
			<point x="78" y="52" type="line"/>
			<point x="104" y="9"/>
			<point x="159" y="-16"/>
			<point x="214" y="-16" type="curve" smooth="yes"/>
			<point x="357" y="-16"/>
			<point x="522" y="196"/>
			<point x="522" y="348" type="curve" smooth="yes"/>
			<point x="522" y="439"/>
			<point x="467" y="476"/>
		</contour>
	</outline>
</glyph>
<glyph name="q" format="2">
	<unicode hex="0071"/>
	<advance width="537"/>
	<outline>
		<contour>
			<point x="134" y="-16" type="curve" smooth="yes"/>
			<point x="216" y="-16"/>
			<point x="276" y="66"/>
			<point x="306" y="118" type="curve"/>
			<point x="316" y="118" type="line"/>
			<point x="314" y="152" type="line"/>
			<point x="272" y="90"/>
			<point x="236" y="72"/>
			<point x="212" y="72" type="curve" smooth="yes"/>
			<point x="182" y="72"/>
			<point x="176" y="98"/>
			<point x="176" y="136" type="curve" smooth="yes"/>
			<point x="176" y="205"/>
			<point x="202" y="313"/>
			<point x="248" y="372" type="curve" smooth="yes"/>
			<point x="268" y="396"/>
			<point x="291" y="412"/>
			<point x="318" y="412" type="curve" smooth="yes"/>
			<point x="341" y="412"/>
			<point x="362" y="392"/>
			<point x="381" y="367" type="curve"/>
			<point x="476" y="408" type="line"/>
			<point x="450" y="451"/>
			<point x="395" y="476"/>
			<point x="340" y="476" type="curve" smooth="yes"/>
			<point x="197" y="476"/>
			<point x="24" y="264"/>
			<point x="24" y="112" type="curve" smooth="yes"/>
			<point x="24" y="21"/>
			<point x="79" y="-16"/>
		</contour>
		<contour>
			<point x="149" y="-240" type="line"/>
			<point x="437" y="-240" type="line"/>
			<point x="441" y="-218" type="line"/>
			<point x="365" y="-202" type="line"/>
			<point x="245" y="-202" type="line"/>
			<point x="153" y="-218" type="line"/>
		</contour>
		<contour>
			<point x="220" y="-240" type="line"/>
			<point x="372" y="-240" type="line"/>
			<point x="384" y="-176"/>
			<point x="395" y="-109"/>
			<point x="410" y="-36" type="curve" smooth="yes"/>
			<point x="515" y="464" type="line"/>
			<point x="499" y="476" type="line"/>
			<point x="366" y="410" type="line"/>
			<point x="351" y="403" type="line"/>
			<point x="292" y="120" type="line"/>
			<point x="293" y="108" type="line"/>
		</contour>
	</outline>
	<anchor name="aboveLC" x="352" y="480"/>
	<anchor name="belowLC" x="301" y="-260"/>
</glyph>
<glyph name="r" format="2">
	<unicode hex="0072"/>
	<advance width="452"/>
	<outline>
		<contour>
			<point x="215" y="200" type="line"/>
			<point x="240" y="265"/>
			<point x="266" y="333"/>
			<point x="330" y="404" type="curve"/>
			<point x="310" y="400" type="line"/>
			<point x="326" y="380" type="line" smooth="yes"/>
			<point x="351" y="349"/>
			<point x="369" y="334"/>
			<point x="404" y="334" type="curve" smooth="yes"/>
			<point x="449" y="334"/>
			<point x="478" y="374"/>
			<point x="478" y="416" type="curve"/>
			<point x="468" y="460"/>
			<point x="434" y="476"/>
			<point x="402" y="476" type="curve" smooth="yes"/>
			<point x="322" y="476"/>
			<point x="262" y="381"/>
			<point x="217" y="252" type="curve"/>
		</contour>
		<contour>
			<point x="245" y="285" type="line"/>
			<point x="242" y="286" type="line"/>
			<point x="274" y="464" type="line"/>
			<point x="258" y="476" type="line"/>
			<point x="60" y="420" type="line"/>
			<point x="56" y="402" type="line"/>
			<point x="136" y="378" type="line"/>
			<point x="119" y="392" type="line"/>
			<point x="38" y="4" type="line"/>
			<point x="54" y="-8" type="line"/>
			<point x="197" y="0" type="line"/>
			<point x="203" y="68"/>
			<point x="215" y="140"/>
			<point x="229" y="206" type="curve" smooth="yes"/>
		</contour>
	</outline>
	<anchor name="aboveLC" x="337" y="520"/>
	<anchor name="belowLC" x="126" y="-22"/>
</glyph>
<glyph name="s" format="2">
	<unicode hex="0073"/>
	<advance width="397"/>
	<outline>
		<contour>
			<point x="148" y="-16" type="curve"/>
			<point x="294" y="-16"/>
			<point x="352" y="56"/>
			<point x="352" y="132" type="curve" smooth="yes"/>
			<point x="352" y="192"/>
			<point x="306" y="234"/>
			<point x="262" y="274" type="curve" smooth="yes"/>
			<point x="224" y="308"/>
			<point x="188" y="341"/>
			<point x="188" y="380" type="curve" smooth="yes"/>
			<point x="188" y="410"/>
			<point x="209" y="448"/>
			<point x="252" y="448" type="curve" smooth="yes"/>
			<point x="267" y="448"/>
			<point x="289" y="444"/>
			<point x="304" y="444" type="curve"/>
			<point x="236" y="453" type="line"/>
			<point x="261" y="393" type="line" smooth="yes"/>
			<point x="279" y="350"/>
			<point x="299" y="332"/>
			<point x="329" y="332" type="curve" smooth="yes"/>
			<point x="363" y="332"/>
			<point x="382" y="349"/>
			<point x="384" y="377" type="curve"/>
			<point x="374" y="430"/>
			<point x="333" y="476"/>
			<point x="240" y="476" type="curve" smooth="yes"/>
			<point x="117" y="476"/>
			<point x="60" y="400"/>
			<point x="60" y="316" type="curve" smooth="yes"/>
			<point x="60" y="256"/>
			<point x="99" y="216"/>
			<point x="138" y="182" type="curve" smooth="yes"/>
			<point x="177" y="147"/>
			<point x="216" y="117"/>
			<point x="216" y="76" type="curve" smooth="yes"/>
			<point x="216" y="43"/>
			<point x="192" y="12"/>
			<point x="152" y="12" type="curve" smooth="yes"/>
			<point x="130" y="12"/>
			<point x="101" y="16"/>
			<point x="80" y="20" type="curve"/>
			<point x="148" y="7" type="line"/>
			<point x="125" y="75" type="line" smooth="yes"/>
			<point x="109" y="121"/>
			<point x="90" y="136"/>
			<point x="57" y="136" type="curve" smooth="yes"/>
			<point x="28" y="136"/>
			<point x="7" y="117"/>
			<point x="4" y="87" type="curve"/>
			<point x="14" y="22"/>
			<point x="68" y="-16"/>
		</contour>
	</outline>
	<anchor name="aboveLC" x="245" y="480"/>
	<anchor name="belowLC" x="159" y="-20"/>
	<anchor name="baseLC" x="168" y="0"/>
</glyph>
<glyph name="t" format="2">
	<unicode hex="0074"/>
	<advance width="340"/>
	<outline>
		<contour>
			<point x="58" y="428" type="line"/>
			<point x="166" y="428" type="line"/>
			<point x="366" y="428" type="line"/>
			<point x="374" y="460" type="line"/>
			<point x="170" y="460" type="line"/>
			<point x="170" y="468" type="line"/>
			<point x="62" y="452" type="line"/>
		</contour>
		<contour>
			<point x="66" y="144" type="line" smooth="yes"/>
			<point x="61" y="122"/>
			<point x="50" y="78"/>
			<point x="50" y="50" type="curve" smooth="yes"/>
			<point x="50" y="10"/>
			<point x="79" y="-16"/>
			<point x="126" y="-16" type="curve" smooth="yes"/>
			<point x="206" y="-16"/>
			<point x="263" y="47"/>
			<point x="296" y="108" type="curve"/>
			<point x="277" y="120" type="line"/>
			<point x="251" y="85"/>
			<point x="232" y="72"/>
			<point x="220" y="72" type="curve" smooth="yes"/>
			<point x="212" y="72"/>
			<point x="206" y="75"/>
			<point x="206" y="86" type="curve" smooth="yes"/>
			<point x="206" y="95"/>
			<point x="210" y="111"/>
			<point x="214" y="132" type="curve" smooth="yes"/>
			<point x="314" y="612" type="line"/>
			<point x="258" y="612" type="line"/>
			<point x="129" y="444" type="line"/>
		</contour>
	</outline>
</glyph>
<glyph name="u" format="2">
	<unicode hex="0075"/>
	<advance width="551"/>
	<outline>
		<contour>
			<point x="232" y="76" type="curve"/>
			<point x="216" y="76"/>
			<point x="208" y="85"/>
			<point x="208" y="100" type="curve" smooth="yes"/>
			<point x="208" y="112"/>
			<point x="214" y="140"/>
			<point x="220" y="168" type="curve" smooth="yes"/>
			<point x="285" y="464" type="line"/>
			<point x="269" y="476" type="line"/>
			<point x="60" y="420" type="line"/>
			<point x="56" y="402" type="line"/>
			<point x="137" y="378" type="line"/>
			<point x="119" y="392" type="line"/>
			<point x="66" y="156" type="line" smooth="yes"/>
			<point x="59" y="126"/>
			<point x="54" y="96"/>
			<point x="54" y="72" type="curve"/>
			<point x="54" y="10"/>
			<point x="90" y="-16"/>
			<point x="136" y="-16" type="curve" smooth="yes"/>
			<point x="212" y="-16"/>
			<point x="264" y="33"/>
			<point x="338" y="116" type="curve"/>
			<point x="328" y="132" type="line"/>
			<point x="290" y="94"/>
			<point x="255" y="76"/>
		</contour>
		<contour>
			<point x="325" y="144" type="line" smooth="yes"/>
			<point x="320" y="122"/>
			<point x="309" y="78"/>
			<point x="309" y="50" type="curve" smooth="yes"/>
			<point x="309" y="10"/>
			<point x="338" y="-16"/>
			<point x="385" y="-16" type="curve" smooth="yes"/>
			<point x="465" y="-16"/>
			<point x="521" y="47"/>
			<point x="554" y="108" type="curve"/>
			<point x="535" y="120" type="line"/>
			<point x="509" y="85"/>
			<point x="491" y="72"/>
			<point x="479" y="72" type="curve" smooth="yes"/>
			<point x="471" y="72"/>
			<point x="465" y="75"/>
			<point x="465" y="86" type="curve" smooth="yes"/>
			<point x="465" y="95"/>
			<point x="469" y="111"/>
			<point x="473" y="132" type="curve" smooth="yes"/>
			<point x="543" y="464" type="line"/>
			<point x="528" y="476" type="line"/>
			<point x="378" y="433" type="line"/>
			<point x="374" y="371"/>
			<point x="363" y="320"/>
			<point x="349" y="254" type="curve" smooth="yes"/>
		</contour>
	</outline>
	<anchor name="aboveLC" x="368" y="520"/>
	<anchor name="belowLC" x="299" y="-22"/>
	<anchor name="hornLC" x="536" y="466"/>
	<anchor name="ogonek" x="476" y="0"/>
</glyph>
<glyph name="v" format="2">
	<unicode hex="0076"/>
	<advance width="472"/>
	<outline>
		<contour>
			<point x="112" y="4" type="curve"/>
			<point x="128" y="-8" type="line"/>
			<point x="228" y="0" type="line"/>
			<point x="324" y="97"/>
			<point x="381" y="199"/>
			<point x="428" y="281" type="curve" smooth="yes"/>
			<point x="450" y="319"/>
			<point x="468" y="361"/>
			<point x="468" y="403" type="curve" smooth="yes"/>
			<point x="468" y="423"/>
			<point x="463" y="443"/>
			<point x="453" y="463" type="curve"/>
			<point x="442" y="471"/>
			<point x="420" y="476"/>
			<point x="403" y="476" type="curve" smooth="yes"/>
			<point x="359" y="476"/>
			<point x="332" y="451"/>
			<point x="332" y="401" type="curve" smooth="yes"/>
			<point x="332" y="377"/>
			<point x="336" y="352"/>
			<point x="361" y="279" type="curve" smooth="yes"/>
			<point x="377" y="233" type="line"/>
			<point x="419" y="333" type="line"/>
			<point x="411" y="316"/>
			<point x="402" y="300"/>
			<point x="394" y="284" type="curve" smooth="yes"/>
			<point x="353" y="205"/>
			<point x="313" y="133"/>
			<point x="252" y="61" type="curve" smooth="yes"/>
			<point x="246" y="54" type="line"/>
			<point x="256" y="54" type="line"/>
			<point x="256" y="154"/>
			<point x="250" y="282"/>
			<point x="241" y="366" type="curve" smooth="yes"/>
			<point x="234" y="432"/>
			<point x="218" y="476"/>
			<point x="148" y="476" type="curve" smooth="yes"/>
			<point x="88" y="476"/>
			<point x="40" y="440"/>
			<point x="0" y="336" type="curve"/>
			<point x="19" y="324" type="line"/>
			<point x="38" y="361"/>
			<point x="58" y="384"/>
			<point x="72" y="384" type="curve" smooth="yes"/>
			<point x="80" y="384"/>
			<point x="87" y="379"/>
			<point x="90" y="356" type="curve" smooth="yes"/>
			<point x="104" y="232"/>
			<point x="108" y="156"/>
		</contour>
	</outline>
	<anchor name="aboveLC" x="281" y="480"/>
	<anchor name="belowLC" x="183" y="-20"/>
</glyph>
<glyph name="w" format="2">
	<unicode hex="0077"/>
	<advance width="736"/>
	<outline>
		<contour>
			<point x="659" y="236" type="curve"/>
			<point x="699" y="336" type="line"/>
			<point x="647" y="232"/>
			<point x="595" y="144"/>
			<point x="519" y="56" type="curve"/>
			<point x="550" y="68" type="line"/>
			<point x="522" y="452" type="line"/>
			<point x="414" y="452" type="line"/>
			<point x="380" y="320" type="line"/>
			<point x="404" y="4" type="line"/>
			<point x="420" y="-8" type="line"/>
			<point x="502" y="0" type="line"/>
			<point x="598" y="98"/>
			<point x="663" y="201"/>
			<point x="710" y="284" type="curve" smooth="yes"/>
			<point x="742" y="340"/>
			<point x="767" y="406"/>
			<point x="735" y="466" type="curve"/>
			<point x="724" y="474"/>
			<point x="702" y="479"/>
			<point x="685" y="479" type="curve" smooth="yes"/>
			<point x="641" y="479"/>
			<point x="614" y="454"/>
			<point x="614" y="404" type="curve" smooth="yes"/>
			<point x="614" y="376"/>
			<point x="621" y="346"/>
		</contour>
		<contour>
			<point x="399" y="452" type="line"/>
			<point x="365" y="325"/>
			<point x="330" y="199"/>
			<point x="259" y="72" type="curve"/>
			<point x="270" y="52" type="line"/>
			<point x="278" y="154"/>
			<point x="266" y="282"/>
			<point x="259" y="366" type="curve" smooth="yes"/>
			<point x="253" y="432"/>
			<point x="236" y="476"/>
			<point x="166" y="476" type="curve" smooth="yes"/>
			<point x="106" y="476"/>
			<point x="58" y="440"/>
			<point x="18" y="336" type="curve"/>
			<point x="37" y="324" type="line"/>
			<point x="56" y="361"/>
			<point x="76" y="384"/>
			<point x="90" y="384" type="curve" smooth="yes"/>
			<point x="98" y="384"/>
			<point x="105" y="379"/>
			<point x="108" y="356" type="curve" smooth="yes"/>
			<point x="122" y="232"/>
			<point x="126" y="156"/>
			<point x="130" y="4" type="curve"/>
			<point x="146" y="-8" type="line"/>
			<point x="246" y="0" type="line"/>
			<point x="352" y="156"/>
			<point x="388" y="304"/>
			<point x="430" y="452" type="curve"/>
		</contour>
	</outline>
	<anchor name="aboveLC" x="513" y="520"/>
	<anchor name="belowLC" x="380" y="-22"/>
</glyph>
<glyph name="x" format="2">
	<unicode hex="0078"/>
	<advance width="540"/>
	<outline>
		<contour>
			<point x="326" y="389" type="line" smooth="yes"/>
			<point x="307" y="445"/>
			<point x="288" y="476"/>
			<point x="231" y="476" type="curve" smooth="yes"/>
			<point x="156" y="476"/>
			<point x="117" y="399"/>
			<point x="94" y="334" type="curve"/>
			<point x="113" y="325" type="line"/>
			<point x="133" y="368"/>
			<point x="147" y="380"/>
			<point x="158" y="380" type="curve" smooth="yes"/>
			<point x="167" y="380"/>
			<point x="171" y="374"/>
			<point x="178" y="352" type="curve" smooth="yes"/>
			<point x="271" y="68" type="line" smooth="yes"/>
			<point x="290" y="8"/>
			<point x="316" y="-16"/>
			<point x="369" y="-16" type="curve" smooth="yes"/>
			<point x="441" y="-16"/>
			<point x="490" y="42"/>
			<point x="523" y="120" type="curve"/>
			<point x="504" y="132" type="line"/>
			<point x="481" y="93"/>
			<point x="461" y="72"/>
			<point x="446" y="72" type="curve" smooth="yes"/>
			<point x="434" y="72"/>
			<point x="428" y="79"/>
			<point x="420" y="104" type="curve" smooth="yes"/>
		</contour>
		<contour>
			<point x="314" y="196" type="line"/>
			<point x="353" y="261"/>
			<point x="388" y="324"/>
			<point x="427" y="388" type="curve" smooth="yes"/>
			<point x="435" y="401"/>
			<point x="441" y="407"/>
			<point x="457" y="416" type="curve"/>
			<point x="426" y="416" type="line"/>
			<point x="435" y="397" type="line" smooth="yes"/>
			<point x="453" y="359"/>
			<point x="476" y="341"/>
			<point x="509" y="341" type="curve" smooth="yes"/>
			<point x="546" y="341"/>
			<point x="573" y="371"/>
			<point x="578" y="408" type="curve"/>
			<point x="570" y="458"/>
			<point x="538" y="476"/>
			<point x="502" y="476" type="curve" smooth="yes"/>
			<point x="452" y="476"/>
			<point x="429" y="447"/>
			<point x="400" y="399" type="curve" smooth="yes"/>
			<point x="376" y="359"/>
			<point x="346" y="298"/>
			<point x="307" y="220" type="curve"/>
		</contour>
		<contour>
			<point x="280" y="264" type="line"/>
			<point x="241" y="199"/>
			<point x="206" y="136"/>
			<point x="167" y="72" type="curve" smooth="yes"/>
			<point x="159" y="59"/>
			<point x="153" y="53"/>
			<point x="137" y="44" type="curve"/>
			<point x="168" y="44" type="line"/>
			<point x="159" y="63" type="line" smooth="yes"/>
			<point x="141" y="101"/>
			<point x="122" y="119"/>
			<point x="89" y="119" type="curve" smooth="yes"/>
			<point x="52" y="119"/>
			<point x="21" y="93"/>
			<point x="16" y="52" type="curve"/>
			<point x="24" y="2"/>
			<point x="56" y="-16"/>
			<point x="92" y="-16" type="curve" smooth="yes"/>
			<point x="142" y="-16"/>
			<point x="165" y="13"/>
			<point x="194" y="61" type="curve" smooth="yes"/>
			<point x="218" y="101"/>
			<point x="248" y="162"/>
			<point x="287" y="240" type="curve"/>
		</contour>
	</outline>
</glyph>
<glyph name="y" format="2">
	<unicode hex="0079"/>
	<advance width="508"/>
	<outline>
		<contour>
			<point x="-114" y="-162" type="curve"/>
			<point x="-105" y="-213"/>
			<point x="-58" y="-240"/>
			<point x="-6" y="-240" type="curve" smooth="yes"/>
			<point x="58" y="-240"/>
			<point x="100" y="-207"/>
			<point x="142" y="-164" type="curve" smooth="yes"/>
			<point x="195" y="-108"/>
			<point x="257" y="-38"/>
			<point x="290" y="4" type="curve" smooth="yes"/>
			<point x="344" y="73"/>
			<point x="375" y="123"/>
			<point x="406" y="176" type="curve" smooth="yes"/>
			<point x="425" y="208"/>
			<point x="455" y="256"/>
			<point x="482" y="304" type="curve" smooth="yes"/>
			<point x="505" y="345"/>
			<point x="522" y="386"/>
			<point x="522" y="416" type="curve" smooth="yes"/>
			<point x="522" y="453"/>
			<point x="497" y="476"/>
			<point x="462" y="476" type="curve" smooth="yes"/>
			<point x="402" y="476"/>
			<point x="386" y="431"/>
			<point x="370" y="336" type="curve" smooth="yes"/>
			<point x="354" y="242"/>
			<point x="325" y="80"/>
			<point x="277" y="28" type="curve" smooth="yes"/>
			<point x="244" y="-7"/>
			<point x="223" y="-37"/>
			<point x="190" y="-72" type="curve" smooth="yes"/>
			<point x="157" y="-109"/>
			<point x="112" y="-166"/>
			<point x="54" y="-197" type="curve"/>
			<point x="54" y="-207" type="line"/>
			<point x="74" y="-196" type="line"/>
			<point x="55" y="-173" type="line" smooth="yes"/>
			<point x="25" y="-137"/>
			<point x="-4" y="-108"/>
			<point x="-46" y="-108" type="curve" smooth="yes"/>
			<point x="-78" y="-108"/>
			<point x="-108" y="-126"/>
		</contour>
		<contour>
			<point x="300" y="24" type="line"/>
			<point x="294" y="24" type="line"/>
			<point x="294" y="126"/>
			<point x="276" y="282"/>
			<point x="263" y="366" type="curve" smooth="yes"/>
			<point x="253" y="432"/>
			<point x="236" y="476"/>
			<point x="166" y="476" type="curve" smooth="yes"/>
			<point x="106" y="476"/>
			<point x="58" y="440"/>
			<point x="18" y="336" type="curve"/>
			<point x="37" y="324" type="line"/>
			<point x="56" y="361"/>
			<point x="76" y="384"/>
			<point x="90" y="384" type="curve" smooth="yes"/>
			<point x="98" y="384"/>
			<point x="104" y="379"/>
			<point x="110" y="344" type="curve"/>
			<point x="132" y="232"/>
			<point x="154" y="80"/>
			<point x="166" y="-104" type="curve"/>
		</contour>
	</outline>
	<anchor name="aboveLC" x="309" y="480"/>
	<anchor name="belowLC" x="90" y="-260"/>
</glyph>
<glyph name="z" format="2">
	<unicode hex="007A"/>
	<advance width="471"/>
	<outline>
		<contour>
			<point x="256" y="-24" type="curve"/>
			<point x="356" y="-24"/>
			<point x="436" y="80"/>
			<point x="436" y="188" type="curve" smooth="yes"/>
			<point x="436" y="223"/>
			<point x="418" y="249"/>
			<point x="384" y="260" type="curve"/>
			<point x="350" y="256"/>
			<point x="320" y="230"/>
			<point x="320" y="192" type="curve" smooth="yes"/>
			<point x="320" y="170"/>
			<point x="336" y="132"/>
			<point x="392" y="108" type="curve"/>
			<point x="411" y="132" type="line"/>
			<point x="404" y="132" type="line"/>
			<point x="387" y="124"/>
			<point x="334" y="104"/>
			<point x="290" y="104" type="curve" smooth="yes"/>
			<point x="216" y="104"/>
			<point x="188" y="112"/>
			<point x="118" y="144" type="curve"/>
			<point x="88" y="104" type="line"/>
			<point x="132" y="8"/>
			<point x="174" y="-24"/>
		</contour>
		<contour>
			<point x="68" y="0" type="line"/>
			<point x="94" y="104" type="line"/>
			<point x="176" y="172"/>
			<point x="287" y="260"/>
			<point x="380" y="339" type="curve" smooth="yes"/>
			<point x="428" y="380"/>
			<point x="450" y="415"/>
			<point x="472" y="460" type="curve"/>
			<point x="464" y="468" type="line"/>
			<point x="392" y="460" type="line"/>
			<point x="366" y="356" type="line"/>
			<point x="284" y="288"/>
			<point x="173" y="200"/>
			<point x="80" y="121" type="curve" smooth="yes"/>
			<point x="32" y="80"/>
			<point x="10" y="45"/>
			<point x="-12" y="0" type="curve"/>
			<point x="-4" y="-8" type="line"/>
		</contour>
		<contour>
			<point x="52" y="228" type="line"/>
			<point x="68" y="224" type="line"/>
			<point x="184" y="396" type="line"/>
			<point x="85" y="339" type="line"/>
			<point x="166" y="326"/>
			<point x="248" y="314"/>
			<point x="329" y="301" type="curve"/>
			<point x="376" y="372" type="line"/>
			<point x="289" y="431"/>
			<point x="248" y="453"/>
			<point x="160" y="486" type="curve"/>
			<point x="68" y="404" type="line"/>
		</contour>
	</outline>
	<anchor name="aboveLC" x="283" y="480"/>
	<anchor name="belowLC" x="183" y="-20"/>
</glyph>
<glyph name="braceleft" format="2">
	<unicode hex="007B"/>
	<advance width="340"/>
	<outline>
		<contour>
			<point x="60" y="262" type="line"/>
			<point x="128" y="247"/>
			<point x="144" y="230"/>
			<point x="144" y="201" type="curve" smooth="yes"/>
			<point x="144" y="117"/>
			<point x="41" y="23"/>
			<point x="41" y="-66" type="curve" smooth="yes"/>
			<point x="41" y="-138"/>
			<point x="109" y="-164"/>
			<point x="209" y="-164" type="curve" smooth="yes"/>
			<point x="237" y="-164" type="line"/>
			<point x="242" y="-140" type="line"/>
			<point x="214" y="-136" type="line" smooth="yes"/>
			<point x="181" y="-131"/>
			<point x="169" y="-115"/>
			<point x="169" y="-89" type="curve" smooth="yes"/>
			<point x="169" y="-43"/>
			<point x="240" y="94"/>
			<point x="240" y="164" type="curve" smooth="yes"/>
			<point x="240" y="229"/>
			<point x="192" y="269"/>
			<point x="91" y="276" type="curve"/>
			<point x="90" y="272" type="line"/>
			<point x="253" y="283"/>
			<point x="293" y="346"/>
			<point x="293" y="481" type="curve" smooth="yes"/>
			<point x="293" y="497"/>
			<point x="293" y="530"/>
			<point x="293" y="545" type="curve" smooth="yes"/>
			<point x="293" y="627"/>
			<point x="303" y="675"/>
			<point x="366" y="684" type="curve" smooth="yes"/>
			<point x="395" y="688" type="line"/>
			<point x="399" y="712" type="line"/>
			<point x="371" y="712" type="line" smooth="yes"/>
			<point x="251" y="712"/>
			<point x="157" y="673"/>
			<point x="157" y="557" type="curve" smooth="yes"/>
			<point x="157" y="501"/>
			<point x="181" y="445"/>
			<point x="181" y="391" type="curve" smooth="yes"/>
			<point x="181" y="333"/>
			<point x="167" y="307"/>
			<point x="65" y="286" type="curve"/>
		</contour>
	</outline>
</glyph>
<glyph name="bar" format="2">
	<unicode hex="007C"/>
	<advance width="244"/>
	<outline>
		<contour>
			<point x="94" y="-252" type="line"/>
			<point x="162" y="-252" type="line"/>
			<point x="162" y="748" type="line"/>
			<point x="94" y="748" type="line"/>
		</contour>
	</outline>
</glyph>
<glyph name="asciitilde" format="2">
	<unicode hex="007E"/>
	<advance width="512"/>
	<outline>
		<contour>
			<point x="305" y="356" type="curve" smooth="yes"/>
			<point x="276" y="380"/>
			<point x="245" y="404"/>
			<point x="202" y="404" type="curve" smooth="yes"/>
			<point x="138" y="404"/>
			<point x="100" y="357"/>
			<point x="90" y="272" type="curve"/>
			<point x="131" y="264" type="line"/>
			<point x="139" y="336"/>
			<point x="165" y="356"/>
			<point x="198" y="356" type="curve" smooth="yes"/>
			<point x="228" y="356"/>
			<point x="252" y="334"/>
			<point x="279" y="312" type="curve" smooth="yes"/>
			<point x="308" y="288"/>
			<point x="339" y="264"/>
			<point x="382" y="264" type="curve" smooth="yes"/>
			<point x="446" y="264"/>
			<point x="484" y="311"/>
			<point x="494" y="396" type="curve"/>
			<point x="453" y="404" type="line"/>
			<point x="445" y="332"/>
			<point x="419" y="312"/>
			<point x="386" y="312" type="curve" smooth="yes"/>
			<point x="356" y="312"/>
			<point x="332" y="334"/>
		</contour>
	</outline>
</glyph>
<glyph name="cent" format="2">
	<unicode hex="00A2"/>
	<advance width="524"/>
	<outline>
		<contour>
			<point x="79" y="247" type="curve" smooth="yes"/>
			<point x="79" y="120"/>
			<point x="163" y="48"/>
			<point x="287" y="48" type="curve" smooth="yes"/>
			<point x="383" y="48"/>
			<point x="453" y="94"/>
			<point x="501" y="162" type="curve"/>
			<point x="489" y="178" type="line"/>
			<point x="450" y="153"/>
			<point x="411" y="132"/>
			<point x="364" y="132" type="curve" smooth="yes"/>
			<point x="277" y="132"/>
			<point x="231" y="179"/>
			<point x="231" y="266" type="curve" smooth="yes"/>
			<point x="231" y="368"/>
			<point x="281" y="536"/>
			<point x="393" y="536" type="curve" smooth="yes"/>
			<point x="421" y="536"/>
			<point x="444" y="532"/>
			<point x="463" y="520" type="curve"/>
			<point x="428" y="548" type="line"/>
			<point x="428" y="456" type="line" smooth="yes"/>
			<point x="428" y="395"/>
			<point x="453" y="380"/>
			<point x="488" y="380" type="curve" smooth="yes"/>
			<point x="518" y="380"/>
			<point x="539" y="396"/>
			<point x="548" y="424" type="curve"/>
			<point x="547" y="517"/>
			<point x="486" y="564"/>
			<point x="384" y="564" type="curve" smooth="yes"/>
			<point x="236" y="564"/>
			<point x="79" y="459"/>
		</contour>
		<contour>
			<point x="283" y="-44" type="line"/>
			<point x="423" y="648" type="line"/>
			<point x="393" y="648" type="line"/>
			<point x="253" y="-44" type="line"/>
		</contour>
	</outline>
</glyph>
<glyph name="sterling" format="2">
	<unicode hex="00A3"/>
	<advance width="524"/>
	<outline>
		<contour>
			<point x="28" y="0" type="line"/>
			<point x="456" y="0" type="line"/>
			<point x="480" y="124" type="line"/>
			<point x="108" y="124" type="line"/>
			<point x="97" y="108" type="line"/>
			<point x="201" y="137"/>
			<point x="302" y="194"/>
			<point x="302" y="304" type="curve" smooth="yes"/>
			<point x="302" y="341"/>
			<point x="292" y="379"/>
			<point x="292" y="472" type="curve" smooth="yes"/>
			<point x="292" y="537"/>
			<point x="319" y="612"/>
			<point x="400" y="612" type="curve" smooth="yes"/>
			<point x="421" y="612"/>
			<point x="442" y="608"/>
			<point x="467" y="600" type="curve"/>
			<point x="432" y="624" type="line"/>
			<point x="432" y="593"/>
			<point x="432" y="563"/>
			<point x="432" y="532" type="curve" smooth="yes"/>
			<point x="432" y="471"/>
			<point x="457" y="456"/>
			<point x="492" y="456" type="curve" smooth="yes"/>
			<point x="522" y="456"/>
			<point x="543" y="472"/>
			<point x="552" y="500" type="curve"/>
			<point x="551" y="593"/>
			<point x="490" y="640"/>
			<point x="384" y="640" type="curve" smooth="yes"/>
			<point x="273" y="640"/>
			<point x="138" y="586"/>
			<point x="138" y="431" type="curve" smooth="yes"/>
			<point x="138" y="376"/>
			<point x="165" y="326"/>
			<point x="165" y="269" type="curve" smooth="yes"/>
			<point x="165" y="202"/>
			<point x="133" y="142"/>
			<point x="46" y="92" type="curve"/>
		</contour>
		<contour>
			<point x="94" y="308" type="line"/>
			<point x="442" y="308" type="line"/>
			<point x="448" y="336" type="line"/>
			<point x="100" y="336" type="line"/>
		</contour>
	</outline>
</glyph>
<glyph name="currency" format="2">
	<unicode hex="00A4"/>
	<advance width="524"/>
	<outline>
		<contour>
			<point x="403" y="420" type="line"/>
			<point x="451" y="445" type="line" smooth="yes"/>
			<point x="484" y="463"/>
			<point x="524" y="481"/>
			<point x="524" y="515" type="curve" smooth="yes"/>
			<point x="524" y="538"/>
			<point x="503" y="559"/>
			<point x="480" y="559" type="curve" smooth="yes"/>
			<point x="448" y="559"/>
			<point x="434" y="521"/>
			<point x="418" y="486" type="curve" smooth="yes"/>
			<point x="392" y="431" type="line"/>
		</contour>
		<contour>
			<point x="189" y="322" type="curve"/>
			<point x="189" y="385"/>
			<point x="237" y="439"/>
			<point x="300" y="439" type="curve" smooth="yes"/>
			<point x="363" y="439"/>
			<point x="411" y="385"/>
			<point x="411" y="322" type="curve" smooth="yes"/>
			<point x="411" y="259"/>
			<point x="363" y="205"/>
			<point x="300" y="205" type="curve"/>
			<point x="237" y="205"/>
			<point x="189" y="259"/>
		</contour>
		<contour>
			<point x="134" y="322" type="curve" smooth="yes"/>
			<point x="134" y="230"/>
			<point x="208" y="155"/>
			<point x="300" y="155" type="curve"/>
			<point x="392" y="155"/>
			<point x="466" y="230"/>
			<point x="466" y="322" type="curve" smooth="yes"/>
			<point x="466" y="414"/>
			<point x="392" y="489"/>
			<point x="300" y="489" type="curve"/>
			<point x="208" y="489"/>
			<point x="134" y="414"/>
		</contour>
		<contour>
			<point x="208" y="431" type="line"/>
			<point x="182" y="486" type="line" smooth="yes"/>
			<point x="166" y="521"/>
			<point x="152" y="559"/>
			<point x="120" y="559" type="curve" smooth="yes"/>
			<point x="97" y="559"/>
			<point x="76" y="538"/>
			<point x="76" y="515" type="curve" smooth="yes"/>
			<point x="76" y="481"/>
			<point x="116" y="463"/>
			<point x="149" y="445" type="curve" smooth="yes"/>
			<point x="197" y="420" type="line"/>
		</contour>
		<contour>
			<point x="197" y="224" type="line"/>
			<point x="149" y="199" type="line" smooth="yes"/>
			<point x="116" y="181"/>
			<point x="76" y="163"/>
			<point x="76" y="129" type="curve" smooth="yes"/>
			<point x="76" y="106"/>
			<point x="97" y="85"/>
			<point x="120" y="85" type="curve" smooth="yes"/>
			<point x="152" y="85"/>
			<point x="166" y="123"/>
			<point x="182" y="158" type="curve" smooth="yes"/>
			<point x="208" y="213" type="line"/>
		</contour>
		<contour>
			<point x="392" y="213" type="line"/>
			<point x="418" y="158" type="line" smooth="yes"/>
			<point x="434" y="123"/>
			<point x="448" y="85"/>
			<point x="480" y="85" type="curve" smooth="yes"/>
			<point x="503" y="85"/>
			<point x="524" y="106"/>
			<point x="524" y="129" type="curve" smooth="yes"/>
			<point x="524" y="163"/>
			<point x="484" y="181"/>
			<point x="451" y="199" type="curve" smooth="yes"/>
			<point x="403" y="224" type="line"/>
		</contour>
	</outline>
</glyph>
<glyph name="yen" format="2">
	<unicode hex="00A5"/>
	<advance width="524"/>
	<outline>
		<contour>
			<point x="212" y="188" type="line"/>
			<point x="292" y="188" type="line"/>
			<point x="560" y="624" type="line"/>
			<point x="524" y="624" type="line"/>
			<point x="340" y="308" type="line"/>
			<point x="347" y="308" type="line"/>
			<point x="284" y="624" type="line"/>
			<point x="112" y="624" type="line"/>
		</contour>
		<contour>
			<point x="70" y="0" type="line"/>
			<point x="366" y="0" type="line"/>
			<point x="370" y="24" type="line"/>
			<point x="270" y="40" type="line"/>
			<point x="182" y="40" type="line"/>
			<point x="74" y="24" type="line"/>
		</contour>
		<contour>
			<point x="72" y="600" type="line"/>
			<point x="160" y="584" type="line"/>
			<point x="244" y="584" type="line"/>
			<point x="356" y="600" type="line"/>
			<point x="360" y="624" type="line"/>
			<point x="76" y="624" type="line"/>
		</contour>
		<contour>
			<point x="444" y="600" type="line"/>
			<point x="510" y="590" type="line"/>
			<point x="530" y="590" type="line"/>
			<point x="604" y="600" type="line"/>
			<point x="608" y="624" type="line"/>
			<point x="448" y="624" type="line"/>
		</contour>
		<contour>
			<point x="56" y="168" type="line"/>
			<point x="448" y="168" type="line"/>
			<point x="453" y="196" type="line"/>
			<point x="61" y="196" type="line"/>
		</contour>
		<contour>
			<point x="75" y="264" type="line"/>
			<point x="467" y="264" type="line"/>
			<point x="473" y="292" type="line"/>
			<point x="81" y="292" type="line"/>
		</contour>
		<contour>
			<point x="138" y="0" type="line"/>
			<point x="298" y="0" type="line"/>
			<point x="315" y="102"/>
			<point x="331" y="184"/>
			<point x="354" y="296" type="curve"/>
			<point x="198" y="296" type="line"/>
		</contour>
	</outline>
</glyph>
<glyph name="brokenbar" format="2">
	<unicode hex="00A6"/>
	<advance width="244"/>
	<outline>
		<contour>
			<point x="112" y="-252" type="line"/>
			<point x="180" y="-252" type="line"/>
			<point x="180" y="200" type="line"/>
			<point x="112" y="200" type="line"/>
		</contour>
		<contour>
			<point x="180" y="320" type="line"/>
			<point x="180" y="748" type="line"/>
			<point x="112" y="748" type="line"/>
			<point x="112" y="320" type="line"/>
		</contour>
	</outline>
</glyph>
<glyph name="section" format="2">
  <advance width="520"/>
  <unicode hex="00A7"/>
  <outline>
    <contour>
      <point x="207" y="-140" type="curve" smooth="yes"/>
      <point x="338" y="-140"/>
      <point x="399" y="-60"/>
      <point x="399" y="28" type="curve" smooth="yes"/>
      <point x="399" y="80"/>
      <point x="368" y="122"/>
      <point x="330" y="158" type="curve" smooth="yes"/>
      <point x="289" y="196" type="line" smooth="yes"/>
      <point x="248" y="234"/>
      <point x="210" y="269"/>
      <point x="210" y="302" type="curve" smooth="yes"/>
      <point x="210" y="345"/>
      <point x="244" y="370"/>
      <point x="294" y="379" type="curve"/>
      <point x="241" y="397" type="line"/>
      <point x="241" y="386" type="line"/>
      <point x="126" y="371"/>
      <point x="80" y="308"/>
      <point x="80" y="234" type="curve"/>
      <point x="80" y="182"/>
      <point x="111" y="140"/>
      <point x="149" y="104" type="curve" smooth="yes"/>
      <point x="190" y="66" type="line" smooth="yes"/>
      <point x="231" y="28"/>
      <point x="269" y="-7"/>
      <point x="269" y="-40" type="curve" smooth="yes"/>
      <point x="269" y="-80"/>
      <point x="246" y="-112"/>
      <point x="188" y="-112" type="curve" smooth="yes"/>
      <point x="175" y="-112"/>
      <point x="156" y="-109"/>
      <point x="140" y="-107" type="curve"/>
      <point x="206" y="-128" type="line"/>
      <point x="177" y="-49" type="line" smooth="yes"/>
      <point x="159" y="-1"/>
      <point x="135" y="18"/>
      <point x="107" y="18" type="curve" smooth="yes"/>
      <point x="68" y="18"/>
      <point x="51" y="-2"/>
      <point x="46" y="-34" type="curve"/>
      <point x="61" y="-93"/>
      <point x="111" y="-140"/>
    </contour>
    <contour>
      <point x="364" y="672" type="curve" smooth="yes"/>
      <point x="233" y="672"/>
      <point x="172" y="592"/>
      <point x="172" y="504" type="curve" smooth="yes"/>
      <point x="172" y="452"/>
      <point x="203" y="410"/>
      <point x="241" y="374" type="curve" smooth="yes"/>
      <point x="282" y="336" type="line" smooth="yes"/>
      <point x="323" y="298"/>
      <point x="361" y="263"/>
      <point x="361" y="230" type="curve" smooth="yes"/>
      <point x="361" y="187"/>
      <point x="327" y="162"/>
      <point x="277" y="153" type="curve"/>
      <point x="329" y="131" type="line"/>
      <point x="329" y="146" type="line"/>
      <point x="445" y="161"/>
      <point x="491" y="224"/>
      <point x="491" y="298" type="curve" smooth="yes"/>
      <point x="491" y="350"/>
      <point x="460" y="392"/>
      <point x="422" y="428" type="curve" smooth="yes"/>
      <point x="381" y="466" type="line" smooth="yes"/>
      <point x="340" y="504"/>
      <point x="302" y="539"/>
      <point x="302" y="572" type="curve" smooth="yes"/>
      <point x="302" y="612"/>
      <point x="325" y="644"/>
      <point x="383" y="644" type="curve" smooth="yes"/>
      <point x="396" y="644"/>
      <point x="415" y="641"/>
      <point x="431" y="639" type="curve"/>
      <point x="365" y="660" type="line"/>
      <point x="394" y="581" type="line" smooth="yes"/>
      <point x="412" y="533"/>
      <point x="436" y="514"/>
      <point x="464" y="514" type="curve" smooth="yes"/>
      <point x="503" y="514"/>
      <point x="520" y="534"/>
      <point x="525" y="566" type="curve"/>
      <point x="510" y="625"/>
      <point x="460" y="672"/>
    </contour>
  </outline>
</glyph>
<glyph name="copyright" format="2">
	<unicode hex="00A9"/>
	<advance width="740"/>
	<outline>
		<contour>
			<point x="361" y="-16" type="curve"/>
			<point x="555" y="-16"/>
			<point x="750" y="142"/>
			<point x="750" y="384" type="curve" smooth="yes"/>
			<point x="750" y="560"/>
			<point x="619" y="676"/>
			<point x="456" y="676" type="curve"/>
			<point x="262" y="676"/>
			<point x="67" y="518"/>
			<point x="67" y="276" type="curve" smooth="yes"/>
			<point x="67" y="100"/>
			<point x="198" y="-16"/>
		</contour>
		<contour>
			<point x="366" y="21" type="curve"/>
			<point x="225" y="21"/>
			<point x="113" y="121"/>
			<point x="113" y="276" type="curve" smooth="yes"/>
			<point x="113" y="492"/>
			<point x="282" y="639"/>
			<point x="451" y="639" type="curve"/>
			<point x="592" y="639"/>
			<point x="704" y="539"/>
			<point x="704" y="384" type="curve" smooth="yes"/>
			<point x="704" y="168"/>
			<point x="535" y="21"/>
		</contour>
		<contour>
			<point x="396" y="128" type="curve" smooth="yes"/>
			<point x="428" y="128"/>
			<point x="470" y="138"/>
			<point x="497" y="150" type="curve"/>
			<point x="521" y="259" type="line"/>
			<point x="505" y="259" type="line"/>
			<point x="430" y="143" type="line"/>
			<point x="455" y="158" type="line"/>
			<point x="439" y="152"/>
			<point x="422" y="148"/>
			<point x="403" y="148" type="curve" smooth="yes"/>
			<point x="357" y="148"/>
			<point x="337" y="204"/>
			<point x="337" y="269" type="curve" smooth="yes"/>
			<point x="337" y="389"/>
			<point x="388" y="516"/>
			<point x="464" y="516" type="curve" smooth="yes"/>
			<point x="481" y="516"/>
			<point x="496" y="513"/>
			<point x="509" y="506" type="curve"/>
			<point x="493" y="522" type="line"/>
			<point x="530" y="408" type="line"/>
			<point x="547" y="408" type="line"/>
			<point x="559" y="513" type="line"/>
			<point x="533" y="525"/>
			<point x="499" y="536"/>
			<point x="458" y="536" type="curve" smooth="yes"/>
			<point x="308" y="536"/>
			<point x="217" y="413"/>
			<point x="217" y="287" type="curve" smooth="yes"/>
			<point x="217" y="194"/>
			<point x="270" y="128"/>
		</contour>
	</outline>
</glyph>
<glyph name="logicalnot" format="2">
	<unicode hex="00AC"/>
	<advance width="512"/>
	<outline>
		<contour>
			<point x="71" y="336" type="line"/>
			<point x="494" y="336" type="line"/>
			<point x="462" y="372" type="line"/>
			<point x="462" y="164" type="line"/>
			<point x="512" y="164" type="line"/>
			<point x="512" y="384" type="line"/>
			<point x="71" y="384" type="line"/>
		</contour>
	</outline>
</glyph>
<glyph name="registered" format="2">
	<unicode hex="00AE"/>
	<advance width="474"/>
	<outline>
		<contour>
			<point x="284" y="305" type="curve"/>
			<point x="404" y="305"/>
			<point x="522" y="397"/>
			<point x="522" y="545" type="curve" smooth="yes"/>
			<point x="522" y="650"/>
			<point x="442" y="715"/>
			<point x="341" y="715" type="curve"/>
			<point x="221" y="715"/>
			<point x="103" y="623"/>
			<point x="103" y="475" type="curve" smooth="yes"/>
			<point x="103" y="370"/>
			<point x="183" y="305"/>
		</contour>
		<contour>
			<point x="286" y="334" type="curve"/>
			<point x="201" y="334"/>
			<point x="138" y="386"/>
			<point x="138" y="475" type="curve" smooth="yes"/>
			<point x="138" y="605"/>
			<point x="235" y="686"/>
			<point x="339" y="686" type="curve"/>
			<point x="424" y="686"/>
			<point x="487" y="634"/>
			<point x="487" y="545" type="curve" smooth="yes"/>
			<point x="487" y="415"/>
			<point x="390" y="334"/>
		</contour>
		<contour>
			<point x="413" y="416" type="curve"/>
			<point x="414" y="424" type="line"/>
			<point x="382" y="429" type="line"/>
			<point x="396" y="420" type="line"/>
			<point x="388" y="464" type="line" smooth="yes"/>
			<point x="382" y="498"/>
			<point x="368" y="517"/>
			<point x="311" y="517" type="curve"/>
			<point x="311" y="514" type="line"/>
			<point x="352" y="515"/>
			<point x="404" y="523"/>
			<point x="404" y="569" type="curve" smooth="yes"/>
			<point x="404" y="598"/>
			<point x="382" y="616"/>
			<point x="321" y="616" type="curve" smooth="yes"/>
			<point x="285" y="616" type="line"/>
			<point x="283" y="606" type="line"/>
			<point x="319" y="606" type="line" smooth="yes"/>
			<point x="336" y="606"/>
			<point x="345" y="593"/>
			<point x="345" y="573" type="curve" smooth="yes"/>
			<point x="345" y="543"/>
			<point x="330" y="521"/>
			<point x="303" y="521" type="curve" smooth="yes"/>
			<point x="267" y="521" type="line"/>
			<point x="265" y="510" type="line"/>
			<point x="301" y="510" type="line" smooth="yes"/>
			<point x="318" y="510"/>
			<point x="322" y="494"/>
			<point x="323" y="477" type="curve" smooth="yes"/>
			<point x="325" y="446" type="line" smooth="yes"/>
			<point x="327" y="421"/>
			<point x="341" y="412"/>
			<point x="371" y="412" type="curve" smooth="yes"/>
			<point x="384" y="412"/>
			<point x="399" y="413"/>
		</contour>
		<contour>
			<point x="217" y="416" type="line"/>
			<point x="281" y="416" type="line"/>
			<point x="318" y="616" type="line"/>
			<point x="254" y="616" type="line"/>
		</contour>
		<contour>
			<point x="233" y="608" type="line"/>
			<point x="266" y="603" type="line"/>
			<point x="301" y="603" type="line"/>
			<point x="304" y="616" type="line"/>
			<point x="235" y="616" type="line"/>
		</contour>
		<contour>
			<point x="198" y="416" type="line"/>
			<point x="303" y="416" type="line"/>
			<point x="304" y="424" type="line"/>
			<point x="270" y="429" type="line"/>
			<point x="234" y="429" type="line"/>
			<point x="199" y="424" type="line"/>
		</contour>
	</outline>
</glyph>
<glyph name="degree" format="2">
	<unicode hex="00B0"/>
	<advance width="328"/>
	<outline>
		<contour>
			<point x="245" y="448" type="curve"/>
			<point x="199" y="448"/>
			<point x="163" y="481"/>
			<point x="163" y="536" type="curve"/>
			<point x="163" y="591"/>
			<point x="199" y="624"/>
			<point x="245" y="624" type="curve" smooth="yes"/>
			<point x="291" y="624"/>
			<point x="327" y="591"/>
			<point x="327" y="536" type="curve" smooth="yes"/>
			<point x="327" y="481"/>
			<point x="291" y="448"/>
		</contour>
		<contour>
			<point x="245" y="400" type="curve"/>
			<point x="317" y="400"/>
			<point x="383" y="451"/>
			<point x="383" y="536" type="curve" smooth="yes"/>
			<point x="383" y="621"/>
			<point x="317" y="672"/>
			<point x="245" y="672" type="curve"/>
			<point x="173" y="672"/>
			<point x="107" y="621"/>
			<point x="107" y="536" type="curve"/>
			<point x="107" y="451"/>
			<point x="173" y="400"/>
		</contour>
	</outline>
</glyph>
<glyph name="plusminus" format="2">
	<unicode hex="00B1"/>
	<advance width="512"/>
	<outline>
		<contour>
			<point x="249" y="132" type="line"/>
			<point x="299" y="132" type="line"/>
			<point x="299" y="556" type="line"/>
			<point x="249" y="556" type="line"/>
		</contour>
		<contour>
			<point x="494" y="324" type="line"/>
			<point x="494" y="372" type="line"/>
			<point x="54" y="372" type="line"/>
			<point x="54" y="324" type="line"/>
		</contour>
		<contour>
			<point x="494" y="0" type="line"/>
			<point x="494" y="48" type="line"/>
			<point x="54" y="48" type="line"/>
			<point x="54" y="0" type="line"/>
		</contour>
	</outline>
</glyph>
<glyph name="two.sups" format="2">
	<unicode hex="00B2"/>
	<advance width="373"/>
	<outline>
		<contour>
			<point x="64" y="408" type="line"/>
			<point x="363" y="408" type="line"/>
			<point x="379" y="496" type="line"/>
			<point x="137" y="496" type="line"/>
			<point x="119" y="474" type="line"/>
			<point x="335" y="590"/>
			<point x="410" y="651"/>
			<point x="409" y="724" type="curve" smooth="yes"/>
			<point x="408" y="782"/>
			<point x="349" y="820"/>
			<point x="270" y="820" type="curve" smooth="yes"/>
			<point x="192" y="820"/>
			<point x="128" y="791"/>
			<point x="122" y="721" type="curve"/>
			<point x="130" y="698"/>
			<point x="149" y="690"/>
			<point x="165" y="690" type="curve" smooth="yes"/>
			<point x="191" y="690"/>
			<point x="209" y="699"/>
			<point x="215" y="745" type="curve" smooth="yes"/>
			<point x="224" y="810" type="line"/>
			<point x="182" y="787" type="line"/>
			<point x="207" y="798"/>
			<point x="222" y="801"/>
			<point x="241" y="801" type="curve" smooth="yes"/>
			<point x="266" y="801"/>
			<point x="293" y="786"/>
			<point x="294" y="739" type="curve" smooth="yes"/>
			<point x="295" y="658"/>
			<point x="245" y="585"/>
			<point x="72" y="452" type="curve"/>
		</contour>
	</outline>
</glyph>
<glyph name="three.sups" format="2">
	<unicode hex="00B3"/>
	<advance width="373"/>
	<outline>
		<contour>
			<point x="203" y="397" type="curve" smooth="yes"/>
			<point x="339" y="397"/>
			<point x="406" y="451"/>
			<point x="404" y="522" type="curve" smooth="yes"/>
			<point x="403" y="585"/>
			<point x="341" y="616"/>
			<point x="259" y="616" type="curve"/>
			<point x="254" y="613" type="line"/>
			<point x="365" y="613"/>
			<point x="434" y="657"/>
			<point x="433" y="723" type="curve" smooth="yes"/>
			<point x="432" y="776"/>
			<point x="384" y="820"/>
			<point x="279" y="820" type="curve" smooth="yes"/>
			<point x="209" y="820"/>
			<point x="140" y="793"/>
			<point x="135" y="729" type="curve"/>
			<point x="139" y="706"/>
			<point x="158" y="698"/>
			<point x="174" y="698" type="curve" smooth="yes"/>
			<point x="200" y="698"/>
			<point x="217" y="708"/>
			<point x="224" y="752" type="curve" smooth="yes"/>
			<point x="233" y="810" type="line"/>
			<point x="194" y="789" type="line"/>
			<point x="219" y="800"/>
			<point x="234" y="801"/>
			<point x="254" y="801" type="curve" smooth="yes"/>
			<point x="298" y="801"/>
			<point x="317" y="769"/>
			<point x="318" y="729" type="curve" smooth="yes"/>
			<point x="319" y="679"/>
			<point x="291" y="627"/>
			<point x="196" y="627" type="curve"/>
			<point x="191" y="602" type="line"/>
			<point x="252" y="602"/>
			<point x="276" y="568"/>
			<point x="277" y="521" type="curve" smooth="yes"/>
			<point x="278" y="472"/>
			<point x="246" y="416"/>
			<point x="186" y="416" type="curve" smooth="yes"/>
			<point x="180" y="416"/>
			<point x="165" y="417"/>
			<point x="154" y="421" type="curve"/>
			<point x="172" y="406" type="line"/>
			<point x="171" y="470" type="line" smooth="yes"/>
			<point x="170" y="513"/>
			<point x="149" y="526"/>
			<point x="123" y="526" type="curve" smooth="yes"/>
			<point x="104" y="526"/>
			<point x="87" y="515"/>
			<point x="80" y="496" type="curve"/>
			<point x="82" y="432"/>
			<point x="131" y="397"/>
		</contour>
	</outline>
</glyph>
<glyph name="paragraph" format="2">
	<unicode hex="00B6"/>
	<advance width="604"/>
	<outline>
		<contour>
			<point x="539" y="652" type="line"/>
			<point x="532" y="612" type="line"/>
			<point x="575" y="612" type="line"/>
			<point x="682" y="628" type="line"/>
			<point x="686" y="652" type="line"/>
		</contour>
		<contour>
			<point x="350" y="-112" type="line"/>
			<point x="486" y="-112" type="line"/>
			<point x="496" y="-34"/>
			<point x="519" y="93"/>
			<point x="538" y="196" type="curve"/>
			<point x="624" y="652" type="line"/>
			<point x="490" y="652" type="line"/>
		</contour>
		<contour>
			<point x="413" y="624" type="line"/>
			<point x="569" y="624" type="line"/>
			<point x="574" y="652" type="line"/>
			<point x="434" y="652" type="line" smooth="yes"/>
			<point x="224" y="652"/>
			<point x="70" y="525"/>
			<point x="70" y="316" type="curve" smooth="yes"/>
			<point x="70" y="167"/>
			<point x="184" y="106"/>
			<point x="317" y="104" type="curve"/>
		</contour>
	</outline>
</glyph>
<glyph name="one.sups" format="2">
	<unicode hex="00B9"/>
	<advance width="373"/>
	<outline>
		<contour>
			<point x="101" y="415" type="line"/>
			<point x="368" y="415" type="line"/>
			<point x="372" y="431" type="line"/>
			<point x="278" y="448" type="line"/>
			<point x="207" y="448" type="line"/>
			<point x="105" y="431" type="line"/>
		</contour>
		<contour>
			<point x="177" y="415" type="line"/>
			<point x="293" y="415" type="line"/>
			<point x="348" y="683" type="line"/>
			<point x="377" y="816" type="line"/>
			<point x="366" y="825" type="line"/>
			<point x="189" y="773" type="line"/>
			<point x="186" y="757" type="line"/>
			<point x="266" y="763" type="line"/>
			<point x="249" y="780" type="line"/>
		</contour>
	</outline>
</glyph>
<glyph name="AE" format="2">
	<unicode hex="00C6"/>
	<advance width="816"/>
	<outline>
		<contour>
			<point x="435" y="0" type="line"/>
			<point x="755" y="0" type="line"/>
			<point x="794" y="188" type="line"/>
			<point x="770" y="188" type="line"/>
			<point x="663" y="12" type="line"/>
			<point x="700" y="28" type="line"/>
			<point x="440" y="28" type="line"/>
		</contour>
		<contour>
			<point x="811" y="476" type="line"/>
			<point x="835" y="476" type="line"/>
			<point x="856" y="652" type="line"/>
			<point x="532" y="652" type="line"/>
			<point x="527" y="624" type="line"/>
			<point x="791" y="624" type="line"/>
			<point x="759" y="640" type="line"/>
		</contour>
		<contour>
			<point x="-8" y="0" type="line"/>
			<point x="153" y="0" type="line"/>
			<point x="159" y="24" type="line"/>
			<point x="85" y="34" type="line"/>
			<point x="68" y="34" type="line"/>
			<point x="-2" y="24" type="line"/>
		</contour>
		<contour>
			<point x="356" y="0" type="line"/>
			<point x="517" y="0" type="line"/>
			<point x="534" y="103"/>
			<point x="552" y="208"/>
			<point x="572" y="312" type="curve" smooth="yes"/>
			<point x="638" y="652" type="line"/>
			<point x="477" y="652" type="line"/>
			<point x="460" y="549"/>
			<point x="442" y="444"/>
			<point x="422" y="340" type="curve" smooth="yes"/>
		</contour>
		<contour>
			<point x="682" y="220" type="line"/>
			<point x="704" y="220" type="line"/>
			<point x="745" y="444" type="line"/>
			<point x="723" y="444" type="line"/>
			<point x="666" y="340" type="line"/>
			<point x="663" y="324" type="line"/>
		</contour>
		<contour>
			<point x="296" y="0" type="line"/>
			<point x="475" y="0" type="line"/>
			<point x="482" y="40" type="line"/>
			<point x="406" y="40" type="line"/>
			<point x="301" y="24" type="line"/>
		</contour>
		<contour>
			<point x="358" y="628" type="line"/>
			<point x="459" y="612" type="line"/>
			<point x="547" y="612" type="line"/>
			<point x="554" y="652" type="line"/>
			<point x="362" y="652" type="line"/>
		</contour>
		<contour>
			<point x="34" y="0" type="line"/>
			<point x="70" y="0" type="line"/>
			<point x="486" y="652" type="line"/>
			<point x="454" y="652" type="line"/>
		</contour>
		<contour>
			<point x="169" y="192" type="line"/>
			<point x="465" y="192" type="line"/>
			<point x="447" y="224" type="line"/>
			<point x="191" y="224" type="line"/>
		</contour>
		<contour>
			<point x="494" y="317" type="line"/>
			<point x="678" y="317" type="line"/>
			<point x="684" y="349" type="line"/>
			<point x="500" y="349" type="line"/>
		</contour>
	</outline>
	<anchor name="aboveUC" x="646" y="672"/>
</glyph>
<glyph name="Idieresis" format="2">
	<unicode hex="00CF"/>
	<advance width="328"/>
	<outline>
		<contour>
			<point x="192" y="700" type="curve"/>
			<point x="233" y="700"/>
			<point x="270" y="733"/>
			<point x="270" y="777" type="curve" smooth="yes"/>
			<point x="270" y="807"/>
			<point x="248" y="828"/>
			<point x="215" y="828" type="curve"/>
			<point x="174" y="828"/>
			<point x="137" y="795"/>
			<point x="137" y="751" type="curve" smooth="yes"/>
			<point x="137" y="721"/>
			<point x="159" y="700"/>
		</contour>
		<contour>
			<point x="356" y="700" type="curve" smooth="yes"/>
			<point x="397" y="700"/>
			<point x="434" y="733"/>
			<point x="434" y="777" type="curve" smooth="yes"/>
			<point x="434" y="807"/>
			<point x="412" y="828"/>
			<point x="379" y="828" type="curve" smooth="yes"/>
			<point x="338" y="828"/>
			<point x="301" y="795"/>
			<point x="301" y="751" type="curve" smooth="yes"/>
			<point x="301" y="721"/>
			<point x="323" y="700"/>
		</contour>
		<component base="I"/>
	</outline>
</glyph>
<glyph name="Eth" format="2">
	<unicode hex="00D0"/>
	<advance width="616"/>
	<outline>
		<contour>
			<point x="407" y="321" type="line"/>
			<point x="412" y="347" type="line"/>
			<point x="72" y="347" type="line"/>
			<point x="67" y="321" type="line"/>
		</contour>
		<component base="D"/>
	</outline>
</glyph>
<glyph name="multiply" format="2">
	<unicode hex="00D7"/>
	<advance width="512"/>
	<outline>
		<contour>
			<point x="448" y="104" type="line"/>
			<point x="482" y="138" type="line"/>
			<point x="99" y="534" type="line"/>
			<point x="65" y="500" type="line"/>
		</contour>
		<contour>
			<point x="482" y="500" type="line"/>
			<point x="448" y="534" type="line"/>
			<point x="65" y="138" type="line"/>
			<point x="99" y="104" type="line"/>
		</contour>
	</outline>
</glyph>
<glyph name="Oslash" format="2">
	<unicode hex="00D8"/>
	<advance width="624"/>
	<outline>
		<contour>
			<point x="672" y="660" type="line"/>
			<point x="653" y="678" type="line"/>
			<point x="28" y="-6" type="line"/>
			<point x="47" y="-24" type="line"/>
		</contour>
		<contour>
			<point x="292" y="-16" type="curve"/>
			<point x="523" y="-16"/>
			<point x="640" y="227"/>
			<point x="640" y="420" type="curve" smooth="yes"/>
			<point x="640" y="591"/>
			<point x="536" y="668"/>
			<point x="408" y="668" type="curve"/>
			<point x="177" y="668"/>
			<point x="60" y="425"/>
			<point x="60" y="232" type="curve" smooth="yes"/>
			<point x="60" y="61"/>
			<point x="164" y="-16"/>
		</contour>
		<contour>
			<point x="292" y="12" type="curve"/>
			<point x="240" y="12"/>
			<point x="220" y="59"/>
			<point x="220" y="144" type="curve" smooth="yes"/>
			<point x="220" y="306"/>
			<point x="288" y="640"/>
			<point x="408" y="640" type="curve"/>
			<point x="460" y="640"/>
			<point x="480" y="593"/>
			<point x="480" y="508" type="curve" smooth="yes"/>
			<point x="480" y="346"/>
			<point x="412" y="12"/>
		</contour>
	</outline>
	<anchor name="aboveUC" x="409" y="692"/>
</glyph>
<glyph name="Thorn" format="2">
	<unicode hex="00DE"/>
	<advance width="540"/>
	<outline>
		<contour>
			<point x="154" y="158" type="line"/>
			<point x="267" y="158" type="line" smooth="yes"/>
			<point x="484" y="158"/>
			<point x="564" y="249"/>
			<point x="564" y="378" type="curve" smooth="yes"/>
			<point x="564" y="473"/>
			<point x="494" y="528"/>
			<point x="326" y="528" type="curve" smooth="yes"/>
			<point x="222" y="528" type="line"/>
			<point x="215" y="500" type="line"/>
			<point x="318" y="500" type="line" smooth="yes"/>
			<point x="374" y="500"/>
			<point x="408" y="453"/>
			<point x="408" y="383" type="curve" smooth="yes"/>
			<point x="408" y="261"/>
			<point x="340" y="186"/>
			<point x="267" y="186" type="curve" smooth="yes"/>
			<point x="161" y="186" type="line"/>
		</contour>
		<contour>
			<point x="8" y="0" type="line"/>
			<point x="283" y="0" type="line"/>
			<point x="288" y="24" type="line"/>
			<point x="192" y="40" type="line"/>
			<point x="116" y="40" type="line"/>
			<point x="13" y="24" type="line"/>
		</contour>
		<contour>
			<point x="64" y="0" type="line"/>
			<point x="229" y="0" type="line"/>
			<point x="244" y="102"/>
			<point x="260" y="208"/>
			<point x="280" y="312" type="curve" smooth="yes"/>
			<point x="346" y="652" type="line"/>
			<point x="181" y="652" type="line"/>
			<point x="166" y="550"/>
			<point x="150" y="444"/>
			<point x="130" y="340" type="curve" smooth="yes"/>
		</contour>
		<contour>
			<point x="123" y="628" type="line"/>
			<point x="219" y="612" type="line"/>
			<point x="295" y="612" type="line"/>
			<point x="399" y="628" type="line"/>
			<point x="404" y="652" type="line"/>
			<point x="128" y="652" type="line"/>
		</contour>
	</outline>
</glyph>
<glyph name="germandbls" format="2">
	<unicode hex="00DF"/>
	<advance width="583"/>
	<outline>
		<contour>
			<point x="60" y="44" type="curve" smooth="yes"/>
			<point x="52" y="-9"/>
			<point x="45" y="-76"/>
			<point x="30" y="-129" type="curve" smooth="yes"/>
			<point x="20" y="-165"/>
			<point x="7" y="-195"/>
			<point x="-12" y="-212" type="curve"/>
			<point x="-12" y="-219" type="line"/>
			<point x="32" y="-210" type="line"/>
			<point x="1" y="-173" type="line" smooth="yes"/>
			<point x="-29" y="-137"/>
			<point x="-58" y="-108"/>
			<point x="-100" y="-108" type="curve" smooth="yes"/>
			<point x="-132" y="-108"/>
			<point x="-162" y="-126"/>
			<point x="-168" y="-162" type="curve"/>
			<point x="-159" y="-213"/>
			<point x="-112" y="-240"/>
			<point x="-40" y="-240" type="curve" smooth="yes"/>
			<point x="29" y="-240"/>
			<point x="82" y="-207"/>
			<point x="122" y="-159" type="curve" smooth="yes"/>
			<point x="168" y="-101"/>
			<point x="196" y="-23"/>
			<point x="208" y="44" type="curve" smooth="yes"/>
			<point x="233" y="184"/>
			<point x="254" y="349"/>
			<point x="276" y="512" type="curve" smooth="yes"/>
			<point x="293" y="633"/>
			<point x="337" y="700"/>
			<point x="395" y="700" type="curve" smooth="yes"/>
			<point x="431" y="700"/>
			<point x="451" y="669"/>
			<point x="451" y="624" type="curve" smooth="yes"/>
			<point x="451" y="553"/>
			<point x="418" y="518"/>
			<point x="382" y="488" type="curve" smooth="yes"/>
			<point x="340" y="454"/>
			<point x="295" y="427"/>
			<point x="295" y="360" type="curve" smooth="yes"/>
			<point x="295" y="310"/>
			<point x="329" y="263"/>
			<point x="363" y="217" type="curve" smooth="yes"/>
			<point x="399" y="171"/>
			<point x="435" y="126"/>
			<point x="435" y="84" type="curve" smooth="yes"/>
			<point x="435" y="50"/>
			<point x="416" y="16"/>
			<point x="379" y="16" type="curve" smooth="yes"/>
			<point x="359" y="16"/>
			<point x="339" y="24"/>
			<point x="319" y="24" type="curve"/>
			<point x="395" y="7" type="line"/>
			<point x="372" y="75" type="line" smooth="yes"/>
			<point x="356" y="121"/>
			<point x="337" y="136"/>
			<point x="304" y="136" type="curve" smooth="yes"/>
			<point x="275" y="136"/>
			<point x="254" y="117"/>
			<point x="251" y="87" type="curve"/>
			<point x="261" y="22"/>
			<point x="312" y="-16"/>
			<point x="395" y="-16" type="curve" smooth="yes"/>
			<point x="503" y="-16"/>
			<point x="571" y="54"/>
			<point x="571" y="136" type="curve" smooth="yes"/>
			<point x="571" y="206"/>
			<point x="531" y="259"/>
			<point x="493" y="307" type="curve" smooth="yes"/>
			<point x="457" y="351"/>
			<point x="423" y="391"/>
			<point x="423" y="436" type="curve" smooth="yes"/>
			<point x="423" y="479"/>
			<point x="453" y="501"/>
			<point x="486" y="521" type="curve" smooth="yes"/>
			<point x="527" y="545"/>
			<point x="575" y="566"/>
			<point x="575" y="620" type="curve" smooth="yes"/>
			<point x="575" y="689"/>
			<point x="527" y="728"/>
			<point x="399" y="728" type="curve" smooth="yes"/>
			<point x="259" y="728"/>
			<point x="140" y="654"/>
			<point x="112" y="440" type="curve" smooth="yes"/>
			<point x="95" y="311"/>
			<point x="79" y="168"/>
		</contour>
	</outline>
</glyph>
<glyph name="ae" format="2">
	<unicode hex="00E6"/>
	<advance width="714"/>
	<outline>
		<contour>
			<point x="134" y="-16" type="curve" smooth="yes"/>
			<point x="216" y="-16"/>
			<point x="284" y="66"/>
			<point x="314" y="118" type="curve"/>
			<point x="322" y="118" type="line"/>
			<point x="314" y="152" type="line"/>
			<point x="272" y="90"/>
			<point x="236" y="72"/>
			<point x="212" y="72" type="curve" smooth="yes"/>
			<point x="182" y="72"/>
			<point x="176" y="98"/>
			<point x="176" y="136" type="curve" smooth="yes"/>
			<point x="176" y="206"/>
			<point x="202" y="315"/>
			<point x="250" y="373" type="curve" smooth="yes"/>
			<point x="269" y="397"/>
			<point x="292" y="412"/>
			<point x="318" y="412" type="curve" smooth="yes"/>
			<point x="353" y="412"/>
			<point x="378" y="392"/>
			<point x="397" y="367" type="curve"/>
			<point x="464" y="408" type="line"/>
			<point x="438" y="451"/>
			<point x="403" y="476"/>
			<point x="340" y="476" type="curve" smooth="yes"/>
			<point x="197" y="476"/>
			<point x="24" y="264"/>
			<point x="24" y="112" type="curve" smooth="yes"/>
			<point x="24" y="21"/>
			<point x="79" y="-16"/>
		</contour>
		<component base="e" xOffset="282"/>
	</outline>
	<anchor name="aboveLC" x="453" y="480"/>
	<anchor name="belowLC" x="298" y="-20"/>
</glyph>
<glyph name="idieresis" format="2">
	<unicode hex="00EF"/>
	<advance width="292"/>
	<outline>
		<contour>
			<point x="151" y="554" type="curve" smooth="yes"/>
			<point x="187" y="554"/>
			<point x="223" y="581"/>
			<point x="223" y="629" type="curve" smooth="yes"/>
			<point x="223" y="663"/>
			<point x="196" y="684"/>
			<point x="164" y="684" type="curve" smooth="yes"/>
			<point x="128" y="684"/>
			<point x="91" y="657"/>
			<point x="91" y="610" type="curve" smooth="yes"/>
			<point x="91" y="574"/>
			<point x="120" y="554"/>
		</contour>
		<contour>
			<point x="325" y="554" type="curve" smooth="yes"/>
			<point x="361" y="554"/>
			<point x="397" y="581"/>
			<point x="397" y="629" type="curve" smooth="yes"/>
			<point x="397" y="663"/>
			<point x="370" y="684"/>
			<point x="338" y="684" type="curve" smooth="yes"/>
			<point x="302" y="684"/>
			<point x="265" y="657"/>
			<point x="265" y="610" type="curve" smooth="yes"/>
			<point x="265" y="574"/>
			<point x="294" y="554"/>
		</contour>
		<component base="dotlessi"/>
	</outline>
</glyph>
<glyph name="eth" format="2">
	<unicode hex="00F0"/>
	<advance width="504"/>
	<outline>
		<contour>
			<point x="210" y="-16" type="curve" smooth="yes"/>
			<point x="364" y="-16"/>
			<point x="494" y="132"/>
			<point x="494" y="373" type="curve" smooth="yes"/>
			<point x="494" y="557"/>
			<point x="394" y="685"/>
			<point x="215" y="735" type="curve"/>
			<point x="204" y="715" type="line"/>
			<point x="323" y="660"/>
			<point x="354" y="583"/>
			<point x="362" y="412" type="curve"/>
			<point x="377" y="408" type="line"/>
			<point x="370" y="432"/>
			<point x="348" y="476"/>
			<point x="278" y="476" type="curve" smooth="yes"/>
			<point x="109" y="476"/>
			<point x="18" y="321"/>
			<point x="18" y="168" type="curve" smooth="yes"/>
			<point x="18" y="41"/>
			<point x="110" y="-16"/>
		</contour>
		<contour>
			<point x="208" y="12" type="curve" smooth="yes"/>
			<point x="183" y="12"/>
			<point x="168" y="31"/>
			<point x="168" y="96" type="curve" smooth="yes"/>
			<point x="168" y="254"/>
			<point x="226" y="448"/>
			<point x="296" y="448" type="curve" smooth="yes"/>
			<point x="321" y="448"/>
			<point x="336" y="429"/>
			<point x="336" y="364" type="curve" smooth="yes"/>
			<point x="336" y="206"/>
			<point x="278" y="12"/>
		</contour>
		<contour>
			<point x="159" y="517" type="line"/>
			<point x="541" y="689" type="line"/>
			<point x="532" y="712" type="line"/>
			<point x="150" y="540" type="line"/>
		</contour>
	</outline>
</glyph>
<glyph name="divide" format="2">
	<unicode hex="00F7"/>
	<advance width="512"/>
	<outline>
		<contour>
			<point x="292" y="84" type="curve" smooth="yes"/>
			<point x="326" y="84"/>
			<point x="354" y="108"/>
			<point x="354" y="146" type="curve" smooth="yes"/>
			<point x="354" y="184"/>
			<point x="326" y="208"/>
			<point x="292" y="208" type="curve" smooth="yes"/>
			<point x="258" y="208"/>
			<point x="230" y="184"/>
			<point x="230" y="146" type="curve" smooth="yes"/>
			<point x="230" y="108"/>
			<point x="258" y="84"/>
		</contour>
		<contour>
			<point x="292" y="432" type="curve" smooth="yes"/>
			<point x="326" y="432"/>
			<point x="354" y="456"/>
			<point x="354" y="494" type="curve" smooth="yes"/>
			<point x="354" y="532"/>
			<point x="326" y="556"/>
			<point x="292" y="556" type="curve" smooth="yes"/>
			<point x="258" y="556"/>
			<point x="230" y="532"/>
			<point x="230" y="494" type="curve" smooth="yes"/>
			<point x="230" y="456"/>
			<point x="258" y="432"/>
		</contour>
		<component base="minus"/>
	</outline>
</glyph>
<glyph name="oslash" format="2">
	<unicode hex="00F8"/>
	<advance width="520"/>
	<outline>
		<contour>
			<point x="509" y="460" type="line"/>
			<point x="492" y="476" type="line"/>
			<point x="4" y="0" type="line"/>
			<point x="21" y="-16" type="line"/>
		</contour>
		<contour>
			<point x="218" y="-16" type="curve"/>
			<point x="399" y="-16"/>
			<point x="502" y="147"/>
			<point x="502" y="300" type="curve" smooth="yes"/>
			<point x="502" y="427"/>
			<point x="402" y="476"/>
			<point x="302" y="476" type="curve"/>
			<point x="121" y="476"/>
			<point x="18" y="313"/>
			<point x="18" y="160" type="curve" smooth="yes"/>
			<point x="18" y="33"/>
			<point x="118" y="-16"/>
		</contour>
		<contour>
			<point x="216" y="12" type="curve"/>
			<point x="191" y="12"/>
			<point x="168" y="35"/>
			<point x="168" y="100" type="curve" smooth="yes"/>
			<point x="168" y="258"/>
			<point x="234" y="448"/>
			<point x="304" y="448" type="curve"/>
			<point x="329" y="448"/>
			<point x="352" y="425"/>
			<point x="352" y="360" type="curve" smooth="yes"/>
			<point x="352" y="202"/>
			<point x="286" y="12"/>
		</contour>
	</outline>
	<anchor name="aboveLC" x="291" y="480"/>
</glyph>
<glyph name="thorn" format="2">
	<unicode hex="00FE"/>
	<advance width="518"/>
	<outline>
		<contour>
			<point x="-90" y="-240" type="line"/>
			<point x="196" y="-240" type="line"/>
			<point x="199" y="-218" type="line"/>
			<point x="108" y="-202" type="line"/>
			<point x="0" y="-202" type="line"/>
			<point x="-86" y="-218" type="line"/>
		</contour>
		<contour>
			<point x="-30" y="-240" type="line"/>
			<point x="119" y="-240" type="line"/>
			<point x="131" y="-171"/>
			<point x="150" y="-74"/>
			<point x="166" y="9" type="curve"/>
			<point x="171" y="27" type="line"/>
			<point x="241" y="358" type="line"/>
			<point x="243" y="370" type="line"/>
			<point x="316" y="713" type="line"/>
			<point x="300" y="725" type="line"/>
			<point x="92" y="669" type="line"/>
			<point x="88" y="651" type="line"/>
			<point x="173" y="625" type="line"/>
			<point x="148" y="664" type="line"/>
			<point x="135" y="568"/>
			<point x="122" y="497"/>
			<point x="108" y="430" type="curve" smooth="yes"/>
		</contour>
		<contour>
			<point x="196" y="-16" type="curve" smooth="yes"/>
			<point x="339" y="-16"/>
			<point x="504" y="196"/>
			<point x="504" y="348" type="curve" smooth="yes"/>
			<point x="504" y="439"/>
			<point x="449" y="476"/>
			<point x="394" y="476" type="curve" smooth="yes"/>
			<point x="312" y="476"/>
			<point x="252" y="394"/>
			<point x="222" y="342" type="curve"/>
			<point x="213" y="342" type="line"/>
			<point x="214" y="308" type="line"/>
			<point x="256" y="370"/>
			<point x="292" y="388"/>
			<point x="316" y="388" type="curve" smooth="yes"/>
			<point x="346" y="388"/>
			<point x="352" y="362"/>
			<point x="352" y="324" type="curve" smooth="yes"/>
			<point x="352" y="259"/>
			<point x="332" y="158"/>
			<point x="294" y="98" type="curve" smooth="yes"/>
			<point x="275" y="68"/>
			<point x="251" y="48"/>
			<point x="222" y="48" type="curve" smooth="yes"/>
			<point x="195" y="48"/>
			<point x="174" y="68"/>
			<point x="155" y="93" type="curve"/>
			<point x="60" y="52" type="line"/>
			<point x="86" y="9"/>
			<point x="141" y="-16"/>
		</contour>
	</outline>
	<anchor name="aboveLC" x="242" y="725"/>
	<anchor name="belowLC" x="309" y="-20"/>
</glyph>
<glyph name="aogonek" format="2">
	<unicode hex="0105"/>
	<advance width="541"/>
	<outline>
		<contour>
			<point x="152" y="-16" type="curve" smooth="yes"/>
			<point x="234" y="-16"/>
			<point x="294" y="66"/>
			<point x="324" y="118" type="curve"/>
			<point x="332" y="152" type="line"/>
			<point x="290" y="90"/>
			<point x="254" y="72"/>
			<point x="230" y="72" type="curve" smooth="yes"/>
			<point x="200" y="72"/>
			<point x="194" y="98"/>
			<point x="194" y="136" type="curve" smooth="yes"/>
			<point x="194" y="201"/>
			<point x="217" y="301"/>
			<point x="259" y="361" type="curve" smooth="yes"/>
			<point x="280" y="392"/>
			<point x="306" y="412"/>
			<point x="336" y="412" type="curve" smooth="yes"/>
			<point x="359" y="412"/>
			<point x="380" y="392"/>
			<point x="399" y="367" type="curve"/>
			<point x="494" y="408" type="line"/>
			<point x="468" y="451"/>
			<point x="413" y="476"/>
			<point x="358" y="476" type="curve" smooth="yes"/>
			<point x="215" y="476"/>
			<point x="42" y="264"/>
			<point x="42" y="112" type="curve" smooth="yes"/>
			<point x="42" y="21"/>
			<point x="97" y="-16"/>
		</contour>
		<contour>
			<point x="291" y="-150" type="curve" smooth="yes"/>
			<point x="291" y="-196"/>
			<point x="323" y="-228"/>
			<point x="378" y="-228" type="curve" smooth="yes"/>
			<point x="434" y="-228"/>
			<point x="477" y="-198"/>
			<point x="506" y="-159" type="curve"/>
			<point x="498" y="-144" type="line"/>
			<point x="483" y="-150"/>
			<point x="467" y="-156"/>
			<point x="441" y="-156" type="curve" smooth="yes"/>
			<point x="400" y="-156"/>
			<point x="380" y="-136"/>
			<point x="380" y="-104" type="curve" smooth="yes"/>
			<point x="380" y="-65"/>
			<point x="414.2013779714" y="-38.7986220286"/>
			<point x="467" y="14" type="curve"/>
			<point x="500" y="38"/>
			<point x="527" y="73"/>
			<point x="546" y="108" type="curve"/>
			<point x="527" y="120" type="line"/>
			<point x="501" y="85"/>
			<point x="481" y="72"/>
			<point x="469" y="72" type="curve" smooth="yes"/>
			<point x="461" y="72"/>
			<point x="455" y="75"/>
			<point x="455" y="86" type="curve" smooth="yes"/>
			<point x="455" y="95"/>
			<point x="459" y="108"/>
			<point x="461" y="120" type="curve" smooth="yes"/>
			<point x="533" y="464" type="line"/>
			<point x="517" y="476" type="line"/>
			<point x="369" y="402" type="line"/>
			<point x="318" y="160" type="line" smooth="yes"/>
			<point x="313" y="138"/>
			<point x="302" y="92"/>
			<point x="302" y="64" type="curve" smooth="yes"/>
			<point x="302" y="16"/>
			<point x="336" y="-16"/>
			<point x="383" y="-16" type="curve" smooth="yes"/>
			<point x="390" y="-16"/>
			<point x="397" y="-15"/>
			<point x="404" y="-14" type="curve"/>
			<point x="339" y="-52"/>
			<point x="291" y="-90"/>
		</contour>
	</outline>
	<anchor name="belowLC" x="264" y="-24"/>
	<anchor name="aboveLC" x="340" y="484"/>
</glyph>
<glyph name="dcroat" format="2">
	<unicode hex="0111"/>
	<advance width="541"/>
	<outline>
		<contour>
			<point x="374" y="-16" type="curve" smooth="yes"/>
			<point x="454" y="-16"/>
			<point x="513" y="47"/>
			<point x="546" y="108" type="curve"/>
			<point x="527" y="120" type="line"/>
			<point x="501" y="85"/>
			<point x="481" y="72"/>
			<point x="469" y="72" type="curve" smooth="yes"/>
			<point x="461" y="72"/>
			<point x="455" y="75"/>
			<point x="455" y="86" type="curve" smooth="yes"/>
			<point x="455" y="95"/>
			<point x="458" y="111"/>
			<point x="462" y="132" type="curve" smooth="yes"/>
			<point x="582" y="708" type="line"/>
			<point x="566" y="720" type="line"/>
			<point x="362" y="664" type="line"/>
			<point x="358" y="646" type="line"/>
			<point x="440" y="622" type="line"/>
			<point x="419" y="636" type="line"/>
			<point x="376" y="414" type="line"/>
			<point x="369" y="401" type="line"/>
			<point x="314" y="144" type="line" smooth="yes"/>
			<point x="312" y="134"/>
			<point x="308" y="118"/>
			<point x="305" y="102" type="curve" smooth="yes"/>
			<point x="301" y="84"/>
			<point x="298" y="65"/>
			<point x="298" y="50" type="curve" smooth="yes"/>
			<point x="298" y="10"/>
			<point x="327" y="-16"/>
		</contour>
		<contour>
			<point x="152" y="-16" type="curve" smooth="yes"/>
			<point x="234" y="-16"/>
			<point x="294" y="66"/>
			<point x="324" y="118" type="curve"/>
			<point x="329" y="118" type="line"/>
			<point x="332" y="152" type="line"/>
			<point x="290" y="90"/>
			<point x="254" y="72"/>
			<point x="230" y="72" type="curve" smooth="yes"/>
			<point x="200" y="72"/>
			<point x="194" y="98"/>
			<point x="194" y="136" type="curve" smooth="yes"/>
			<point x="194" y="209"/>
			<point x="220" y="309"/>
			<point x="271" y="365" type="curve" smooth="yes"/>
			<point x="289" y="384"/>
			<point x="310" y="396"/>
			<point x="333" y="396" type="curve" smooth="yes"/>
			<point x="356" y="396"/>
			<point x="377" y="376"/>
			<point x="396" y="351" type="curve"/>
			<point x="491" y="392" type="line"/>
			<point x="465" y="435"/>
			<point x="410" y="460"/>
			<point x="355" y="460" type="curve" smooth="yes"/>
			<point x="212" y="460"/>
			<point x="42" y="264"/>
			<point x="42" y="112" type="curve" smooth="yes"/>
			<point x="42" y="21"/>
			<point x="97" y="-16"/>
		</contour>
		<contour>
			<point x="267" y="537" type="line"/>
			<point x="595" y="537" type="line"/>
			<point x="600" y="565" type="line"/>
			<point x="272" y="565" type="line"/>
		</contour>
	</outline>
</glyph>
<glyph name="eogonek" format="2">
	<unicode hex="0119"/>
	<advance width="432"/>
	<outline>
		<contour>
			<point x="218" y="-228" type="curve" smooth="yes"/>
			<point x="274" y="-228"/>
			<point x="317" y="-198"/>
			<point x="346" y="-159" type="curve"/>
			<point x="338" y="-144" type="line"/>
			<point x="323" y="-150"/>
			<point x="307" y="-156"/>
			<point x="281" y="-156" type="curve" smooth="yes"/>
			<point x="240" y="-156"/>
			<point x="220" y="-136"/>
			<point x="220" y="-104" type="curve" smooth="yes"/>
			<point x="220" y="-65"/>
			<point x="248" y="-32"/>
			<point x="315" y="20" type="curve" smooth="yes"/>
			<point x="351" y="48"/>
			<point x="378" y="86"/>
			<point x="401" y="137" type="curve"/>
			<point x="384" y="148" type="line"/>
			<point x="353" y="108"/>
			<point x="308" y="88"/>
			<point x="268" y="88" type="curve" smooth="yes"/>
			<point x="213" y="88"/>
			<point x="165" y="126"/>
			<point x="165" y="204" type="curve" smooth="yes"/>
			<point x="165" y="348"/>
			<point x="236" y="444"/>
			<point x="277" y="444" type="curve" smooth="yes"/>
			<point x="294" y="444"/>
			<point x="310" y="434"/>
			<point x="310" y="400" type="curve" smooth="yes"/>
			<point x="310" y="318"/>
			<point x="271" y="254"/>
			<point x="95" y="208" type="curve"/>
			<point x="95" y="188" type="line"/>
			<point x="312" y="232"/>
			<point x="432" y="287"/>
			<point x="432" y="384" type="curve" smooth="yes"/>
			<point x="432" y="439"/>
			<point x="383" y="476"/>
			<point x="305" y="476" type="curve" smooth="yes"/>
			<point x="132" y="476"/>
			<point x="18" y="316"/>
			<point x="18" y="168" type="curve" smooth="yes"/>
			<point x="18" y="48"/>
			<point x="91" y="-16"/>
			<point x="185" y="-16" type="curve" smooth="yes"/>
			<point x="210" y="-16"/>
			<point x="235" y="-13"/>
			<point x="255" y="-6" type="curve"/>
			<point x="255" y="-7" type="line"/>
			<point x="185" y="-47"/>
			<point x="131" y="-86"/>
			<point x="131" y="-150" type="curve" smooth="yes"/>
			<point x="131" y="-196"/>
			<point x="163" y="-228"/>
		</contour>
	</outline>
	<anchor name="aboveLC" x="304" y="480"/>
</glyph>
<glyph name="Hbar" format="2">
	<unicode hex="0126"/>
	<advance width="660"/>
	<outline>
		<contour>
			<point x="8" y="0" type="line"/>
			<point x="283" y="0" type="line"/>
			<point x="288" y="24" type="line"/>
			<point x="192" y="40" type="line"/>
			<point x="116" y="40" type="line"/>
			<point x="13" y="24" type="line"/>
		</contour>
		<contour>
			<point x="64" y="0" type="line"/>
			<point x="229" y="0" type="line"/>
			<point x="244" y="102"/>
			<point x="260" y="208"/>
			<point x="280" y="312" type="curve" smooth="yes"/>
			<point x="346" y="652" type="line"/>
			<point x="181" y="652" type="line"/>
			<point x="166" y="550"/>
			<point x="150" y="444"/>
			<point x="130" y="340" type="curve" smooth="yes"/>
		</contour>
		<contour>
			<point x="123" y="628" type="line"/>
			<point x="219" y="612" type="line"/>
			<point x="295" y="612" type="line"/>
			<point x="399" y="628" type="line"/>
			<point x="404" y="652" type="line"/>
			<point x="128" y="652" type="line"/>
		</contour>
		<contour>
			<point x="340" y="0" type="line"/>
			<point x="615" y="0" type="line"/>
			<point x="620" y="24" type="line"/>
			<point x="524" y="40" type="line"/>
			<point x="448" y="40" type="line"/>
			<point x="345" y="24" type="line"/>
		</contour>
		<contour>
			<point x="396" y="0" type="line"/>
			<point x="561" y="0" type="line"/>
			<point x="576" y="102"/>
			<point x="592" y="208"/>
			<point x="612" y="312" type="curve" smooth="yes"/>
			<point x="678" y="652" type="line"/>
			<point x="513" y="652" type="line"/>
			<point x="498" y="550"/>
			<point x="482" y="444"/>
			<point x="462" y="340" type="curve" smooth="yes"/>
		</contour>
		<contour>
			<point x="455" y="628" type="line"/>
			<point x="551" y="612" type="line"/>
			<point x="627" y="612" type="line"/>
			<point x="731" y="628" type="line"/>
			<point x="736" y="652" type="line"/>
			<point x="460" y="652" type="line"/>
		</contour>
		<contour>
			<point x="206" y="302" type="line"/>
			<point x="526" y="302" type="line"/>
			<point x="526" y="332" type="line"/>
			<point x="206" y="332" type="line"/>
		</contour>
		<contour>
			<point x="90" y="465" type="line"/>
			<point x="706" y="465" type="line"/>
			<point x="711" y="491" type="line"/>
			<point x="95" y="491" type="line"/>
		</contour>
	</outline>
</glyph>
<glyph name="hbar" format="2">
	<unicode hex="0127"/>
	<advance width="544"/>
	<outline>
		<contour>
			<point x="380" y="-16" type="curve" smooth="yes"/>
			<point x="460" y="-16"/>
			<point x="519" y="47"/>
			<point x="552" y="108" type="curve"/>
			<point x="533" y="120" type="line"/>
			<point x="507" y="85"/>
			<point x="486" y="72"/>
			<point x="474" y="72" type="curve" smooth="yes"/>
			<point x="466" y="72"/>
			<point x="460" y="75"/>
			<point x="460" y="86" type="curve" smooth="yes"/>
			<point x="460" y="95"/>
			<point x="463" y="111"/>
			<point x="468" y="132" type="curve" smooth="yes"/>
			<point x="505" y="288" type="line" smooth="yes"/>
			<point x="512" y="318"/>
			<point x="517" y="348"/>
			<point x="517" y="378" type="curve" smooth="yes"/>
			<point x="517" y="434"/>
			<point x="485" y="460"/>
			<point x="441" y="460" type="curve" smooth="yes"/>
			<point x="367" y="460"/>
			<point x="307" y="411"/>
			<point x="233" y="328" type="curve"/>
			<point x="228" y="328" type="line"/>
			<point x="243" y="312" type="line"/>
			<point x="281" y="350"/>
			<point x="316" y="368"/>
			<point x="339" y="368" type="curve" smooth="yes"/>
			<point x="355" y="368"/>
			<point x="363" y="359"/>
			<point x="363" y="344" type="curve" smooth="yes"/>
			<point x="363" y="332"/>
			<point x="358" y="304"/>
			<point x="351" y="276" type="curve" smooth="yes"/>
			<point x="320" y="144" type="line" smooth="yes"/>
			<point x="315" y="122"/>
			<point x="304" y="78"/>
			<point x="304" y="50" type="curve" smooth="yes"/>
			<point x="304" y="10"/>
			<point x="333" y="-16"/>
		</contour>
		<contour>
			<point x="48" y="-8" type="line"/>
			<point x="193" y="0" type="line"/>
			<point x="197" y="68"/>
			<point x="211" y="140"/>
			<point x="225" y="206" type="curve" smooth="yes"/>
			<point x="250" y="325" type="line"/>
			<point x="251" y="329" type="line"/>
			<point x="330" y="713" type="line"/>
			<point x="315" y="725" type="line"/>
			<point x="107" y="669" type="line"/>
			<point x="103" y="651" type="line"/>
			<point x="185" y="627" type="line"/>
			<point x="160" y="641" type="line"/>
			<point x="151" y="572"/>
			<point x="138" y="499"/>
			<point x="123" y="430" type="curve" smooth="yes"/>
			<point x="33" y="4" type="line"/>
		</contour>
		<contour>
			<point x="91" y="542" type="line"/>
			<point x="419" y="542" type="line"/>
			<point x="424" y="570" type="line"/>
			<point x="96" y="570" type="line"/>
		</contour>
	</outline>
</glyph>
<glyph name="iogonek" format="2">
	<unicode hex="012F"/>
	<advance width="292"/>
	<outline>
		<contour>
			<point x="238" y="544" type="curve" smooth="yes"/>
			<point x="287" y="544"/>
			<point x="325" y="581"/>
			<point x="325" y="632" type="curve" smooth="yes"/>
			<point x="325" y="672"/>
			<point x="298" y="702"/>
			<point x="255" y="702" type="curve" smooth="yes"/>
			<point x="206" y="702"/>
			<point x="167" y="667"/>
			<point x="167" y="615" type="curve" smooth="yes"/>
			<point x="167" y="571"/>
			<point x="200" y="544"/>
		</contour>
		<contour>
			<point x="126" y="-228" type="curve" smooth="yes"/>
			<point x="182" y="-228"/>
			<point x="225" y="-198"/>
			<point x="254" y="-159" type="curve"/>
			<point x="246" y="-144" type="line"/>
			<point x="231" y="-150"/>
			<point x="215" y="-156"/>
			<point x="189" y="-156" type="curve" smooth="yes"/>
			<point x="148" y="-156"/>
			<point x="128" y="-136"/>
			<point x="128" y="-104" type="curve" smooth="yes"/>
			<point x="128" y="-69"/>
			<point x="148" y="-29"/>
			<point x="196" y="0" type="curve" smooth="yes"/>
			<point x="239" y="26"/>
			<point x="273" y="66"/>
			<point x="296" y="108" type="curve"/>
			<point x="277" y="120" type="line"/>
			<point x="251" y="85"/>
			<point x="233" y="72"/>
			<point x="221" y="72" type="curve" smooth="yes"/>
			<point x="213" y="72"/>
			<point x="207" y="75"/>
			<point x="207" y="86" type="curve" smooth="yes"/>
			<point x="207" y="95"/>
			<point x="210" y="111"/>
			<point x="214" y="132" type="curve" smooth="yes"/>
			<point x="282" y="464" type="line"/>
			<point x="266" y="476" type="line"/>
			<point x="60" y="420" type="line"/>
			<point x="56" y="402" type="line"/>
			<point x="146" y="376" type="line"/>
			<point x="123" y="413" type="line"/>
			<point x="66" y="144" type="line" smooth="yes"/>
			<point x="61" y="122"/>
			<point x="50" y="78"/>
			<point x="50" y="50" type="curve" smooth="yes"/>
			<point x="50" y="10"/>
			<point x="79" y="-16"/>
			<point x="126" y="-16" type="curve" smooth="yes"/>
			<point x="130" y="-16"/>
			<point x="134" y="-16"/>
			<point x="138" y="-15" type="curve" smooth="yes"/>
			<point x="138" y="-15"/>
			<point x="138" y="-16"/>
			<point x="138" y="-16" type="curve"/>
			<point x="79" y="-48"/>
			<point x="39" y="-94"/>
			<point x="39" y="-150" type="curve" smooth="yes"/>
			<point x="39" y="-196"/>
			<point x="71" y="-228"/>
		</contour>
	</outline>
</glyph>
<glyph name="kgreenlandic" format="2">
	<unicode hex="0138"/>
	<advance width="516"/>
	<outline>
		<contour>
			<point x="52" y="-8" type="line"/>
			<point x="195" y="0" type="line"/>
			<point x="199" y="68"/>
			<point x="213" y="140"/>
			<point x="227" y="206" type="curve" smooth="yes"/>
			<point x="257" y="342" type="line"/>
			<point x="282" y="464" type="line"/>
			<point x="266" y="476" type="line"/>
			<point x="60" y="420" type="line"/>
			<point x="56" y="402" type="line"/>
			<point x="136" y="378" type="line"/>
			<point x="119" y="392" type="line"/>
			<point x="36" y="4" type="line"/>
		</contour>
		<contour>
			<point x="408" y="-16" type="curve" smooth="yes"/>
			<point x="446" y="-16"/>
			<point x="482" y="-9"/>
			<point x="508" y="0" type="curve"/>
			<point x="512" y="20" type="line"/>
			<point x="492" y="24" type="line" smooth="yes"/>
			<point x="468" y="29"/>
			<point x="458" y="50"/>
			<point x="444" y="84" type="curve" smooth="yes"/>
			<point x="424" y="132" type="line" smooth="yes"/>
			<point x="398" y="194"/>
			<point x="355" y="224"/>
			<point x="292" y="228" type="curve" smooth="yes"/>
			<point x="232" y="232" type="line"/>
			<point x="228" y="224" type="line"/>
			<point x="420" y="304" type="line" smooth="yes"/>
			<point x="488" y="332"/>
			<point x="524" y="351"/>
			<point x="524" y="396" type="curve" smooth="yes"/>
			<point x="524" y="438"/>
			<point x="492" y="465"/>
			<point x="448" y="472" type="curve"/>
			<point x="216" y="228" type="line"/>
			<point x="212" y="220" type="line"/>
			<point x="218" y="216" type="line" smooth="yes"/>
			<point x="240" y="201"/>
			<point x="255" y="193"/>
			<point x="268" y="148" type="curve" smooth="yes"/>
			<point x="288" y="80" type="line" smooth="yes"/>
			<point x="310" y="6"/>
			<point x="336" y="-16"/>
		</contour>
	</outline>
</glyph>
<glyph name="Lslash" format="2">
	<unicode hex="0141"/>
	<advance width="504"/>
	<outline>
		<contour>
			<point x="436" y="432" type="line"/>
			<point x="237" y="340" type="line"/>
			<point x="231" y="310" type="line"/>
			<point x="431" y="402" type="line"/>
		</contour>
		<contour>
			<point x="232" y="340" type="line"/>
			<point x="52" y="256" type="line"/>
			<point x="47" y="226" type="line"/>
			<point x="226" y="310" type="line"/>
		</contour>
		<component base="L"/>
	</outline>
</glyph>
<glyph name="lslash" format="2">
	<unicode hex="0142"/>
	<advance width="308"/>
	<outline>
		<contour>
			<point x="266" y="406" type="line"/>
			<point x="49" y="295" type="line"/>
			<point x="44" y="265" type="line"/>
			<point x="260" y="376" type="line"/>
		</contour>
		<contour>
			<point x="340" y="438" type="line"/>
			<point x="123" y="327" type="line"/>
			<point x="118" y="297" type="line"/>
			<point x="334" y="408" type="line"/>
		</contour>
		<component base="l" xOffset="12"/>
	</outline>
</glyph>
<glyph name="OE" format="2">
	<unicode hex="0152"/>
	<advance width="824"/>
	<outline>
		<contour>
			<point x="426" y="20" type="curve"/>
			<point x="399" y="52" type="line"/>
			<point x="358" y="25"/>
			<point x="357" y="12"/>
			<point x="308" y="12" type="curve" smooth="yes"/>
			<point x="258" y="12"/>
			<point x="222" y="58"/>
			<point x="222" y="174" type="curve" smooth="yes"/>
			<point x="222" y="377"/>
			<point x="314" y="640"/>
			<point x="424" y="640" type="curve" smooth="yes"/>
			<point x="468" y="640"/>
			<point x="473" y="629"/>
			<point x="505" y="600" type="curve"/>
			<point x="539" y="630" type="line"/>
			<point x="500" y="655"/>
			<point x="474" y="668"/>
			<point x="425" y="668" type="curve" smooth="yes"/>
			<point x="185" y="668"/>
			<point x="60" y="440"/>
			<point x="60" y="230" type="curve" smooth="yes"/>
			<point x="60" y="56"/>
			<point x="165" y="-16"/>
			<point x="299" y="-16" type="curve" smooth="yes"/>
			<point x="345" y="-16"/>
			<point x="381" y="-2"/>
		</contour>
		<contour>
			<point x="364" y="0" type="line"/>
			<point x="525" y="0" type="line"/>
			<point x="542" y="103"/>
			<point x="560" y="208"/>
			<point x="580" y="312" type="curve" smooth="yes"/>
			<point x="646" y="652" type="line"/>
			<point x="485" y="652" type="line"/>
			<point x="468" y="549"/>
			<point x="450" y="444"/>
			<point x="430" y="340" type="curve" smooth="yes"/>
		</contour>
		<contour>
			<point x="443" y="0" type="line"/>
			<point x="767" y="0" type="line"/>
			<point x="802" y="188" type="line"/>
			<point x="778" y="188" type="line"/>
			<point x="675" y="12" type="line"/>
			<point x="712" y="28" type="line"/>
			<point x="448" y="28" type="line"/>
		</contour>
		<contour>
			<point x="502" y="317" type="line"/>
			<point x="686" y="317" type="line"/>
			<point x="692" y="349" type="line"/>
			<point x="508" y="349" type="line"/>
		</contour>
		<contour>
			<point x="535" y="624" type="line"/>
			<point x="799" y="624" type="line"/>
			<point x="767" y="640" type="line"/>
			<point x="819" y="476" type="line"/>
			<point x="843" y="476" type="line"/>
			<point x="864" y="652" type="line"/>
			<point x="540" y="652" type="line"/>
		</contour>
		<contour>
			<point x="690" y="220" type="line"/>
			<point x="712" y="220" type="line"/>
			<point x="753" y="444" type="line"/>
			<point x="731" y="444" type="line"/>
			<point x="674" y="340" type="line"/>
			<point x="671" y="324" type="line"/>
		</contour>
	</outline>
	<anchor name="aboveUC" x="554" y="692"/>
</glyph>
<glyph name="oe" format="2">
	<unicode hex="0153"/>
	<advance width="734"/>
	<outline>
		<contour>
			<point x="228" y="-16" type="curve"/>
			<point x="330" y="-16"/>
			<point x="405" y="34"/>
			<point x="451" y="105" type="curve"/>
			<point x="486" y="378" type="line"/>
			<point x="455" y="445"/>
			<point x="386" y="476"/>
			<point x="312" y="476" type="curve"/>
			<point x="131" y="476"/>
			<point x="36" y="321"/>
			<point x="36" y="168" type="curve" smooth="yes"/>
			<point x="36" y="41"/>
			<point x="128" y="-16"/>
		</contour>
		<contour>
			<point x="226" y="12" type="curve"/>
			<point x="201" y="12"/>
			<point x="186" y="31"/>
			<point x="186" y="96" type="curve" smooth="yes"/>
			<point x="186" y="254"/>
			<point x="244" y="448"/>
			<point x="314" y="448" type="curve"/>
			<point x="339" y="448"/>
			<point x="354" y="429"/>
			<point x="354" y="364" type="curve" smooth="yes"/>
			<point x="354" y="206"/>
			<point x="296" y="12"/>
		</contour>
		<component base="e" xOffset="302"/>
	</outline>
	<anchor name="aboveLC" x="448" y="480"/>
</glyph>
<glyph name="Uogonek" format="2">
	<unicode hex="0172"/>
	<advance width="596"/>
	<outline>
		<contour>
			<point x="98" y="164" type="curve" smooth="yes"/>
			<point x="98" y="20"/>
			<point x="186" y="-20"/>
			<point x="291" y="-20" type="curve" smooth="yes"/>
			<point x="319" y="-20"/>
			<point x="346" y="-17"/>
			<point x="370" y="-10" type="curve"/>
			<point x="370" y="-11" type="line"/>
			<point x="302" y="-49"/>
			<point x="251" y="-88"/>
			<point x="251" y="-150" type="curve" smooth="yes"/>
			<point x="251" y="-196"/>
			<point x="283" y="-228"/>
			<point x="338" y="-228" type="curve" smooth="yes"/>
			<point x="394" y="-228"/>
			<point x="437" y="-198"/>
			<point x="466" y="-159" type="curve"/>
			<point x="458" y="-144" type="line"/>
			<point x="443" y="-150"/>
			<point x="427" y="-156"/>
			<point x="401" y="-156" type="curve" smooth="yes"/>
			<point x="360" y="-156"/>
			<point x="340" y="-136"/>
			<point x="340" y="-104" type="curve" smooth="yes"/>
			<point x="340" y="-65"/>
			<point x="369" y="-33"/>
			<point x="435" y="20" type="curve"/>
			<point x="493" y="63"/>
			<point x="529" y="142"/>
			<point x="552" y="268" type="curve" smooth="yes"/>
			<point x="623" y="652" type="line"/>
			<point x="591" y="652" type="line"/>
			<point x="517" y="253" type="line" smooth="yes"/>
			<point x="494" y="122"/>
			<point x="433" y="68"/>
			<point x="358" y="68" type="curve" smooth="yes"/>
			<point x="291" y="68"/>
			<point x="254" y="95"/>
			<point x="254" y="172" type="curve" smooth="yes"/>
			<point x="254" y="194"/>
			<point x="258" y="225"/>
			<point x="263" y="256" type="curve" smooth="yes"/>
			<point x="333" y="652" type="line"/>
			<point x="173" y="652" type="line"/>
			<point x="158" y="550"/>
			<point x="139" y="436"/>
			<point x="120" y="332" type="curve" smooth="yes"/>
			<point x="107" y="257" type="line" smooth="yes"/>
			<point x="101" y="224"/>
			<point x="98" y="190"/>
		</contour>
		<contour>
			<point x="113" y="628" type="line"/>
			<point x="210" y="612" type="line"/>
			<point x="286" y="612" type="line"/>
			<point x="389" y="628" type="line"/>
			<point x="393" y="652" type="line"/>
			<point x="117" y="652" type="line"/>
		</contour>
		<contour>
			<point x="521" y="628" type="line"/>
			<point x="591" y="617" type="line"/>
			<point x="609" y="617" type="line"/>
			<point x="679" y="628" type="line"/>
			<point x="683" y="652" type="line"/>
			<point x="525" y="652" type="line"/>
		</contour>
	</outline>
	<anchor name="aboveUC" x="418" y="672"/>
	<anchor name="belowLC" x="303" y="-20"/>
</glyph>
<glyph name="uogonek" format="2">
	<unicode hex="0173"/>
	<advance width="552"/>
	<outline>
		<contour>
			<point x="130" y="-16" type="curve" smooth="yes"/>
			<point x="204" y="-16"/>
			<point x="264" y="33"/>
			<point x="338" y="116" type="curve"/>
			<point x="328" y="132" type="line"/>
			<point x="290" y="94"/>
			<point x="255" y="76"/>
			<point x="232" y="76" type="curve" smooth="yes"/>
			<point x="216" y="76"/>
			<point x="208" y="85"/>
			<point x="208" y="100" type="curve" smooth="yes"/>
			<point x="208" y="112"/>
			<point x="214" y="140"/>
			<point x="220" y="168" type="curve" smooth="yes"/>
			<point x="285" y="464" type="line"/>
			<point x="269" y="476" type="line"/>
			<point x="60" y="420" type="line"/>
			<point x="56" y="402" type="line"/>
			<point x="137" y="378" type="line"/>
			<point x="119" y="392" type="line"/>
			<point x="66" y="156" type="line" smooth="yes"/>
			<point x="59" y="126"/>
			<point x="52" y="96"/>
			<point x="52" y="66" type="curve" smooth="yes"/>
			<point x="52" y="10"/>
			<point x="86" y="-16"/>
		</contour>
		<contour>
			<point x="299" y="-150" type="curve" smooth="yes"/>
			<point x="299" y="-196"/>
			<point x="331" y="-228"/>
			<point x="386" y="-228" type="curve" smooth="yes"/>
			<point x="442" y="-228"/>
			<point x="485" y="-198"/>
			<point x="514" y="-159" type="curve"/>
			<point x="506" y="-144" type="line"/>
			<point x="491" y="-150"/>
			<point x="475" y="-156"/>
			<point x="449" y="-156" type="curve" smooth="yes"/>
			<point x="408" y="-156"/>
			<point x="388" y="-136"/>
			<point x="388" y="-104" type="curve" smooth="yes"/>
			<point x="388" y="-65"/>
			<point x="417" y="-33"/>
			<point x="472" y="11" type="curve"/>
			<point x="508" y="35"/>
			<point x="537" y="72"/>
			<point x="556" y="108" type="curve"/>
			<point x="537" y="120" type="line"/>
			<point x="511" y="85"/>
			<point x="491" y="72"/>
			<point x="479" y="72" type="curve" smooth="yes"/>
			<point x="471" y="72"/>
			<point x="465" y="75"/>
			<point x="465" y="86" type="curve" smooth="yes"/>
			<point x="465" y="95"/>
			<point x="469" y="111"/>
			<point x="473" y="132" type="curve" smooth="yes"/>
			<point x="543" y="464" type="line"/>
			<point x="528" y="476" type="line"/>
			<point x="378" y="433" type="line"/>
			<point x="374" y="371"/>
			<point x="363" y="320"/>
			<point x="349" y="254" type="curve" smooth="yes"/>
			<point x="325" y="144" type="line" smooth="yes"/>
			<point x="320" y="122"/>
			<point x="309" y="78"/>
			<point x="309" y="50" type="curve" smooth="yes"/>
			<point x="309" y="10"/>
			<point x="338" y="-16"/>
			<point x="385" y="-16" type="curve" smooth="yes"/>
			<point x="395" y="-16"/>
			<point x="404" y="-15"/>
			<point x="413" y="-13" type="curve"/>
			<point x="348" y="-51"/>
			<point x="299" y="-89"/>
		</contour>
	</outline>
	<anchor name="belowLC" x="248" y="-24"/>
	<anchor name="hornLC" x="453" y="471"/>
	<anchor name="aboveLC" x="330" y="484"/>
</glyph>
<glyph name="longs" format="2">
	<unicode hex="017F"/>
	<advance width="338"/>
	<outline>
		<contour>
			<point x="378" y="732" type="curve" smooth="yes"/>
			<point x="234" y="732"/>
			<point x="156" y="617"/>
			<point x="130" y="440" type="curve" smooth="yes"/>
			<point x="74" y="44" type="line" smooth="yes"/>
			<point x="66" y="-14"/>
			<point x="55" y="-88"/>
			<point x="34" y="-144" type="curve" smooth="yes"/>
			<point x="24" y="-173"/>
			<point x="10" y="-198"/>
			<point x="-6" y="-212" type="curve"/>
			<point x="10" y="-211" type="line"/>
			<point x="26" y="-210" type="line"/>
			<point x="-5" y="-173" type="line" smooth="yes"/>
			<point x="-35" y="-137"/>
			<point x="-64" y="-108"/>
			<point x="-106" y="-108" type="curve" smooth="yes"/>
			<point x="-138" y="-108"/>
			<point x="-168" y="-126"/>
			<point x="-174" y="-162" type="curve"/>
			<point x="-165" y="-213"/>
			<point x="-114" y="-240"/>
			<point x="-42" y="-240" type="curve" smooth="yes"/>
			<point x="21" y="-240"/>
			<point x="74" y="-213"/>
			<point x="116" y="-170" type="curve" smooth="yes"/>
			<point x="175" y="-110"/>
			<point x="212" y="-20"/>
			<point x="225" y="65" type="curve" smooth="yes"/>
			<point x="294" y="512" type="line" smooth="yes"/>
			<point x="310" y="615"/>
			<point x="318" y="680"/>
			<point x="353" y="710" type="curve"/>
			<point x="353" y="724" type="line"/>
			<point x="322" y="706" type="line"/>
			<point x="363" y="649" type="line" smooth="yes"/>
			<point x="387" y="615"/>
			<point x="411" y="588"/>
			<point x="448" y="588" type="curve" smooth="yes"/>
			<point x="484" y="588"/>
			<point x="510" y="612"/>
			<point x="511" y="652" type="curve"/>
			<point x="498" y="706"/>
			<point x="436" y="732"/>
		</contour>
	</outline>
</glyph>
<glyph name="Schwa" format="2">
	<unicode hex="018F"/>
	<advance width="582"/>
	<outline>
		<contour>
			<point x="254" y="-16" type="curve" smooth="yes"/>
			<point x="478" y="-16"/>
			<point x="576" y="218"/>
			<point x="576" y="406" type="curve" smooth="yes"/>
			<point x="576" y="570"/>
			<point x="487" y="668"/>
			<point x="346" y="668" type="curve" smooth="yes"/>
			<point x="255" y="668"/>
			<point x="194" y="636"/>
			<point x="128" y="564" type="curve"/>
			<point x="137" y="548" type="line"/>
			<point x="201" y="594"/>
			<point x="249" y="608"/>
			<point x="299" y="608" type="curve" smooth="yes"/>
			<point x="374" y="608"/>
			<point x="416" y="559"/>
			<point x="416" y="436" type="curve" smooth="yes"/>
			<point x="416" y="278"/>
			<point x="350" y="12"/>
			<point x="248" y="12" type="curve" smooth="yes"/>
			<point x="197" y="12"/>
			<point x="183" y="64"/>
			<point x="183" y="137" type="curve" smooth="yes"/>
			<point x="183" y="190"/>
			<point x="193" y="263"/>
			<point x="214" y="320" type="curve"/>
			<point x="435" y="320" type="line"/>
			<point x="440" y="350" type="line"/>
			<point x="64" y="350" type="line"/>
			<point x="43" y="295"/>
			<point x="34" y="243"/>
			<point x="34" y="195" type="curve" smooth="yes"/>
			<point x="34" y="72"/>
			<point x="101" y="-16"/>
		</contour>
	</outline>
	<anchor name="aboveUC" x="344" y="672"/>
	<anchor name="belowLC" x="247" y="-20"/>
</glyph>
<glyph name="florin" format="2">
	<unicode hex="0192"/>
	<advance width="524"/>
	<outline>
		<contour>
			<point x="139" y="352" type="line"/>
			<point x="459" y="352" type="line"/>
			<point x="465" y="380" type="line"/>
			<point x="145" y="380" type="line"/>
		</contour>
		<contour>
			<point x="366" y="364" type="line" smooth="yes"/>
			<point x="385" y="465"/>
			<point x="395" y="530"/>
			<point x="412" y="570" type="curve" smooth="yes"/>
			<point x="427" y="604"/>
			<point x="447" y="621"/>
			<point x="484" y="628" type="curve"/>
			<point x="444" y="632" type="line"/>
			<point x="464" y="586" type="line" smooth="yes"/>
			<point x="486" y="536"/>
			<point x="510" y="520"/>
			<point x="540" y="520" type="curve" smooth="yes"/>
			<point x="567" y="520"/>
			<point x="595" y="535"/>
			<point x="599" y="572" type="curve"/>
			<point x="591" y="614"/>
			<point x="536" y="640"/>
			<point x="468" y="640" type="curve" smooth="yes"/>
			<point x="417" y="640"/>
			<point x="360" y="624"/>
			<point x="328" y="596" type="curve" smooth="yes"/>
			<point x="265" y="540"/>
			<point x="237" y="442"/>
			<point x="221" y="360" type="curve" smooth="yes"/>
			<point x="184" y="168" type="line" smooth="yes"/>
			<point x="165" y="67"/>
			<point x="155" y="2"/>
			<point x="138" y="-38" type="curve" smooth="yes"/>
			<point x="123" y="-72"/>
			<point x="103" y="-89"/>
			<point x="66" y="-96" type="curve"/>
			<point x="106" y="-100" type="line"/>
			<point x="86" y="-54" type="line" smooth="yes"/>
			<point x="64" y="-4"/>
			<point x="40" y="12"/>
			<point x="10" y="12" type="curve" smooth="yes"/>
			<point x="-17" y="12"/>
			<point x="-45" y="-3"/>
			<point x="-49" y="-40" type="curve"/>
			<point x="-41" y="-82"/>
			<point x="18" y="-108"/>
			<point x="86" y="-108" type="curve" smooth="yes"/>
			<point x="137" y="-108"/>
			<point x="190" y="-92"/>
			<point x="222" y="-64" type="curve" smooth="yes"/>
			<point x="285" y="-8"/>
			<point x="313" y="90"/>
			<point x="329" y="172" type="curve" smooth="yes"/>
		</contour>
	</outline>
</glyph>
<glyph name="Uhorn" format="2">
	<unicode hex="01AF"/>
	<advance width="596"/>
	<outline>
		<contour>
			<point x="80" y="168" type="curve" smooth="yes"/>
			<point x="80" y="24"/>
			<point x="168" y="-16"/>
			<point x="273" y="-16" type="curve" smooth="yes"/>
			<point x="419" y="-16"/>
			<point x="494" y="60"/>
			<point x="534" y="272" type="curve" smooth="yes"/>
			<point x="605" y="652" type="line"/>
			<point x="573" y="652" type="line"/>
			<point x="499" y="257" type="line" smooth="yes"/>
			<point x="471" y="109"/>
			<point x="420" y="66"/>
			<point x="350" y="66" type="curve" smooth="yes"/>
			<point x="278" y="66"/>
			<point x="238" y="97"/>
			<point x="238" y="184" type="curve" smooth="yes"/>
			<point x="238" y="206"/>
			<point x="241" y="237"/>
			<point x="247" y="268" type="curve" smooth="yes"/>
			<point x="315" y="652" type="line"/>
			<point x="155" y="652" type="line"/>
			<point x="140" y="550"/>
			<point x="121" y="436"/>
			<point x="102" y="332" type="curve" smooth="yes"/>
			<point x="89" y="261" type="line" smooth="yes"/>
			<point x="83" y="228"/>
			<point x="80" y="194"/>
		</contour>
		<contour>
			<point x="566" y="617" type="line"/>
			<point x="650" y="617"/>
			<point x="727" y="651"/>
			<point x="727" y="742" type="curve" smooth="yes"/>
			<point x="727" y="757"/>
			<point x="723" y="777"/>
			<point x="720" y="786" type="curve"/>
			<point x="711" y="795"/>
			<point x="702" y="800"/>
			<point x="683" y="800" type="curve" smooth="yes"/>
			<point x="654" y="800"/>
			<point x="632" y="782"/>
			<point x="632" y="751" type="curve" smooth="yes"/>
			<point x="632" y="725"/>
			<point x="654" y="697"/>
			<point x="654" y="679" type="curve" smooth="yes"/>
			<point x="654" y="656"/>
			<point x="614" y="652"/>
			<point x="572" y="652" type="curve"/>
		</contour>
		<contour>
			<point x="95" y="628" type="line"/>
			<point x="192" y="612" type="line"/>
			<point x="268" y="612" type="line"/>
			<point x="371" y="628" type="line"/>
			<point x="375" y="652" type="line"/>
			<point x="99" y="652" type="line"/>
		</contour>
		<contour>
			<point x="503" y="628" type="line"/>
			<point x="573" y="617" type="line"/>
			<point x="591" y="617" type="line"/>
			<point x="595" y="652" type="line"/>
			<point x="507" y="652" type="line"/>
		</contour>
	</outline>
	<anchor name="aboveUC" x="418" y="672"/>
	<anchor name="belowLC" x="264" y="-20"/>
</glyph>
